SplineFontDB: 3.0
FontName: Bohemia-Regular-Italic
FullName: Bohemia Regular Italic
FamilyName: Bohemia
Weight: Regular
Copyright: Copyright (c) 2011, Barry Schwartz
Version: 1.1
DefaultBaseFilename: Bohemia-400-Italic
ItalicAngle: -9
UnderlinePosition: -100
UnderlineWidth: 50
Ascent: 690
Descent: 310
InvalidEm: 0
sfntRevision: 0x00011999
LayerCount: 2
Layer: 0 0 "Back" 1
Layer: 1 0 "Fore" 0
XUID: [1021 805 -1179658985 10880780]
FSType: 0
OS2Version: 4
OS2_WeightWidthSlopeOnly: 0
OS2_UseTypoMetrics: 1
CreationTime: 1287776574
ModificationTime: 1431280916
PfmFamily: 17
TTFWeight: 400
TTFWidth: 5
LineGap: 90
VLineGap: 0
Panose: 2 0 5 3 0 0 0 0 0 0
OS2TypoAscent: 690
OS2TypoAOffset: 0
OS2TypoDescent: -310
OS2TypoDOffset: 0
OS2TypoLinegap: 90
OS2WinAscent: 915
OS2WinAOffset: 0
OS2WinDescent: 390
OS2WinDOffset: 0
HheadAscent: 915
HheadAOffset: 0
HheadDescent: -390
HheadDOffset: 0
OS2SubXSize: 650
OS2SubYSize: 700
OS2SubXOff: 21
OS2SubYOff: 140
OS2SupXSize: 650
OS2SupYSize: 700
OS2SupXOff: -75
OS2SupYOff: 480
OS2StrikeYSize: 49
OS2StrikeYPos: 258
OS2CapHeight: 285
OS2XHeight: 305
OS2Vendor: 'PfEd'
OS2CodePages: 00000093.00000000
OS2UnicodeRanges: a000006f.0000004a.00000000.00000000
Lookup: 3 0 0 "'aalt' Access All Alternates lookup 0" { "'aalt' Access All Alternates lookup 0 subtable"  } ['aalt' ('DFLT' <'dflt' > ) ]
Lookup: 3 0 0 "'aalt' Access All Alternates in Latin lookup 1" { "'aalt' Access All Alternates in Latin lookup 1 subtable"  } ['aalt' ('latn' <'AZE ' 'CAT ' 'CRT ' 'MOL ' 'ROM ' 'TRK ' 'dflt' > ) ]
Lookup: 1 0 0 "'locl' Localized Forms in Latin lookup 2" { "'locl' Localized Forms in Latin lookup 2 subtable"  } ['locl' ('latn' <'CAT ' > ) ]
Lookup: 1 0 0 "'locl' Localized Forms in Latin lookup 3" { "'locl' Localized Forms in Latin lookup 3 subtable"  } ['locl' ('latn' <'MOL ' 'ROM ' > ) ]
Lookup: 1 0 0 "'locl' Localized Forms in Latin lookup 4" { "'locl' Localized Forms in Latin lookup 4 subtable"  } ['locl' ('latn' <'AZE ' 'CRT ' 'TRK ' > ) ]

StartChar: .notdef
Encoding: 65536 -1 0
Width: 500
Flags: MW
HStem: 0 50<100 400 100 450> 410 50<100 400 100 100>
VStem: 50 50<50 50 50 410> 400 50<50 410 410 410>
LayerCount: 2
Back
Fore
SplineSet
50 0 m 1
 50 460 l 1
 450 460 l 1
 450 0 l 1
 50 0 l 1
100 50 m 1
 400 50 l 1
 400 410 l 1
 100 410 l 1
 100 50 l 1
EndSplineSet
EndChar

StartChar: exclam
Encoding: 33 33 2
Width: 220
GlyphClass: 2
Flags: MW
HStem: -8 98<101.5 120 101.5 120>
VStem: 65 90<30.5 51> 102 25<150 150> 156 59
LayerCount: 2
Back
Fore
SplineSet
65 38 m 0xd0
 65 64 92 90 111 90 c 0
 129 90 155 63 155 43 c 0
 155 8 125 -8 115 -8 c 0
 87 -8 65 23 65 38 c 0xd0
102 150 m 0xb0
 102 154 110 237 122 333 c 0
 144 508 151 574 156 635 c 0
 157 653 172 657 185 657 c 2
 190 657 l 2
 209 657 215 651 215 640 c 0
 215 636 214 633 213 628 c 0
 204 588 173 438 127 151 c 0
 126 146 119 146 115 146 c 0
 107 146 102 146 102 150 c 0xb0
EndSplineSet
Position2: "'cpsp' Capital Spacing in Latin lookup 0 subtable" dx=4 dy=0 dh=8 dv=0
EndChar

StartChar: quotedbl
Encoding: 34 34 3
Width: 261
GlyphClass: 2
Flags: MW
HStem: 497 191<36.5 82 60 179>
VStem: 30 29 40 61 160 29 170 61
LayerCount: 2
Back
Fore
SplineSet
30 511 m 0xc0
 30 512 37 637 40 659 c 0
 42 675 48 688 72 688 c 0
 92 688 101 677 101 663 c 0xa0
 101 659 100 654 99 649 c 0
 91 617 64 533 59 516 c 0
 54 500 56 497 42 497 c 0
 31 497 30 503 30 511 c 0xc0
160 511 m 0x90
 160 512 167 637 170 659 c 0
 172 675 178 688 202 688 c 0
 222 688 231 677 231 663 c 0x88
 231 659 230 654 229 649 c 0
 221 617 194 533 189 516 c 0
 184 500 186 497 172 497 c 0
 161 497 160 503 160 511 c 0x90
EndSplineSet
EndChar

StartChar: numbersign
Encoding: 35 35 4
Width: 442
GlyphClass: 2
Flags: MW
HStem: -10 21G<101.5 119 242 264.5> 155 31<41 42 42 110 309 312 312 398> 323 30<35 137 37 132 333 397 397 399>
VStem: 91 40 113 40<150 153 150 153> 137 41<319 320 319 320.5 319 353> 146 39<357 359> 170 40 236 39 258 39<150 152.5> 283 38<318 318.5 318 322.5> 315 38
LayerCount: 2
Back
Fore
SplineSet
30 169 m 2xe8
 30 173 l 2
 30 184 32 186 41 186 c 2
 114 186 l 2
 121 186 120 187 121 193 c 0
 127 236 137 313 137 319 c 0
 137 322 134 323 132 323 c 2
 37 323 l 2
 33 323 30 325 30 336 c 2
 30 342 l 2
 30 349 31 353 37 353 c 2
 137 353 l 2xe4
 143 353 146 355 146 359 c 0xe2
 170 523 168 521 170 525 c 0
 174 532 170 532 191 532 c 0
 203 532 210 532 210 521 c 0xe1
 210 515 185 365 185 358 c 0
 185 356 187 353 191 353 c 2
 281 353 l 2
 287 353 288 353 289 360 c 0
 310 496 313 518 315 525 c 0
 316 527 316 532 329 532 c 0
 345 532 353 532 353 522 c 0xe210
 353 513 329 366 329 358 c 0
 329 356 330 353 333 353 c 2
 397 353 l 2
 410 353 412 352 412 337 c 0
 412 323 407 323 399 323 c 2
 327 323 l 2
 323 323 321 319 321 318 c 0xe020
 315 280 302 198 302 192 c 0
 302 189 305 186 309 186 c 2
 401 186 l 2
 411 186 412 184 412 169 c 0
 412 156 410 155 398 155 c 2
 312 155 l 2
 299 155 297 156 297 150 c 0xe040
 276 0 276 0 275 -2 c 0
 272 -10 276 -10 253 -10 c 0
 231 -10 236 -8 236 3 c 0xe080
 236 10 258 145 258 151 c 0
 258 154 257 155 251 155 c 2
 165 155 l 2
 155 155 153 156 153 150 c 0xe840
 132 0 132 0 131 -2 c 0
 127 -9 129 -10 109 -10 c 0
 94 -10 91 -7 91 3 c 0xf0
 91 10 113 145 113 151 c 0
 113 155 112 155 110 155 c 2
 42 155 l 2
 30 155 30 160 30 169 c 2xe8
158 193 m 0
 158 189 161 188 167 188 c 2
 257 188 l 2
 258 188 264 188 264 194 c 0
 275 278 283 314 283 321 c 0xe420
 283 324 279 325 276 325 c 2
 186 325 l 2
 180 325 179 322 178 320 c 2
 178 319 l 1
 172 279 158 199 158 193 c 0
EndSplineSet
EndChar

StartChar: dollar
Encoding: 36 36 5
Width: 500
GlyphClass: 2
Flags: MW
HStem: 1 18<237.5 245 237.5 284> 608 19<241.5 271 224 273.5> 662 20G<294 303 303 306>
VStem: 50 65 88 53<459.5 522> 197 30<-5.5 26.5> 360 56<106 171.5> 390 48
LayerCount: 2
Back
Fore
SplineSet
50 128 m 0xf6
 50 140 73 154 83 154 c 0
 88 154 98 122 115 91 c 0xf6
 128 68 146 44 167 33 c 0
 175 29 186 25 196 25 c 0
 199 25 202 26 203 36 c 2
 235 270 l 2
 237 285 238 288 228 294 c 0
 160 336 88 380 88 470 c 0
 88 574 180 627 268 627 c 0
 274 627 280 629 281 637 c 2
 286 673 l 2
 287 681 289 682 294 682 c 2
 303 682 l 2
 309 682 310 681 309 673 c 2
 304 637 l 2
 303 628 302 625 310 624 c 0
 400 609 438 527 438 496 c 0
 438 479 429 471 420 471 c 0
 408 471 393 485 390 500 c 0xed
 385 522 383 551 374 564 c 0
 362 580 342 600 311 605 c 0
 304 606 300 607 299 602 c 2
 267 355 l 2
 266 345 265 339 271 335 c 0
 339 291 416 249 416 145 c 0
 416 55 337 1 231 1 c 0
 220 1 221 2 219 -14 c 2
 205 -136 l 2
 204 -141 203 -142 199 -142 c 2
 182 -142 l 2
 178 -142 177 -140 178 -135 c 2
 196 -14 l 2
 197 -10 197 -7 197 -4 c 0
 197 5 193 5 181 8 c 0
 96 26 50 94 50 128 c 0xf6
141 485 m 0xec
 141 434 186 382 230 358 c 0
 233 356 236 354 238 354 c 0
 241 354 244 358 245 368 c 2
 276 602 l 2
 277 607 275 608 272 608 c 0
 211 608 141 560 141 485 c 0xec
227 25 m 0
 227 19 230 19 245 19 c 0
 309 21 360 67 360 145 c 0xe6
 360 198 316 248 266 272 c 0
 264 273 262 275 260 275 c 0
 259 275 258 271 257 266 c 2
 228 38 l 2
 227 32 227 28 227 25 c 0
EndSplineSet
Substitution2: "'subs' Subscript in Latin lookup 10 subtable" dollar.sub
Substitution2: "'sups' Superscript in Latin lookup 9 subtable" dollar.sup
Substitution2: "'dnom' Denominators in Latin lookup 6 subtable" dollar.denom
Substitution2: "'numr' Numerators in Latin lookup 5 subtable" dollar.numer
AlternateSubs2: "'aalt' Access All Alternates in Latin lookup 1 subtable" dollar.sub dollar.sup dollar.denom dollar.numer
AlternateSubs2: "'aalt' Access All Alternates lookup 0 subtable" dollar.sub dollar.sup dollar.denom dollar.numer
EndChar

StartChar: percent
Encoding: 37 37 6
Width: 657
GlyphClass: 2
Flags: MW
HStem: -9 16<419 471.5 419 479> 250 15<133.5 185.5 133.5 191.5> 273 33<495.5 543.5> 491 17<351 373 343.5 382.5> 531 32<210 244 174.5 258.5>
VStem: 50 49<331 381.5 318.5 398> 292 29<460 464 464 478 478 481.5> 336 49<72 123.5 60 149> 578 29<148 222.5>
LayerCount: 2
Back
Fore
SplineSet
50 362 m 0
 50 434 122 563 227 563 c 0
 261 563 279 551 298 532 c 0
 312 518 331 508 356 508 c 0
 390 508 427 523 449 536 c 0
 486 558 514 591 538 614 c 0
 540 616 552 631 553 631 c 0
 561 631 571 625 571 619 c 0
 571 617 570 614 566 608 c 0
 510 526 155 1 132 -35 c 0
 129 -40 120 -41 113 -41 c 0
 105 -41 97 -38 97 -31 c 0
 97 -29 98 -27 99 -25 c 0
 101 -21 410 416 461 505 c 0
 465 512 477 527 461 519 c 0
 456 516 409 491 356 491 c 0
 346 491 334 492 321 494 c 0
 319 494 321 481 321 478 c 2
 321 464 l 2
 321 456 321 447 320 439 c 0
 312 344 233 250 150 250 c 0
 85 250 50 300 50 362 c 0
99 336 m 0
 99 301 114 265 153 265 c 0
 218 265 292 352 292 461 c 0
 292 502 277 531 240 531 c 0
 180 531 99 427 99 336 c 0
336 103 m 0
 336 195 422 306 517 306 c 0
 573 306 607 264 607 197 c 0
 607 92 522 -9 436 -9 c 0
 371 -9 336 41 336 103 c 0
385 78 m 0
 385 42 399 7 439 7 c 0
 504 7 578 94 578 202 c 0
 578 243 562 273 525 273 c 0
 466 273 385 169 385 78 c 0
EndSplineSet
EndChar

StartChar: ampersand
Encoding: 38 38 7
Width: 693
GlyphClass: 2
Flags: MW
HStem: -8 61<237.5 336 237.5 357.5> 312 47<580 593.5> 334 50<178 185.5 157 194.5> 348 36<143.5 185.5> 357 49<387.5 393> 478 42<607 608.5> 586 57<193.5 241.5>
VStem: 35 54<183.5 258> 83 31<450 503.5 450 519.5> 288 22<276 318.5 276 323.5> 501 30<226.5 275.5> 673 20<418.5 442>
LayerCount: 2
Back
Fore
SplineSet
35 201 m 0xc770
 35 315 128 359 128 368 c 0
 128 376 83 400 83 476 c 0
 83 563 141 643 246 643 c 0
 276 643 298 638 324 627 c 0
 343 619 361 608 361 586 c 0
 361 564 350 544 340 534 c 0
 331 525 325 536 319 543 c 0
 289 575 261 586 222 586 c 0
 164 586 114 533 114 474 c 0
 114 426 141 384 173 384 c 0
 198 384 210 389 228 389 c 0
 241 389 247 384 247 377 c 0
 247 354 203 334 186 334 c 0xa6f0
 170 334 150 348 146 348 c 0x96f0
 141 348 89 326 89 242 c 0
 89 125 181 53 294 53 c 0
 378 53 501 102 501 265 c 0
 501 286 497 326 489 329 c 0
 462 339 411 357 375 357 c 0
 337 357 310 337 310 300 c 0
 310 252 352 248 383 242 c 0
 395 240 399 237 399 233 c 0
 399 223 382 210 368 210 c 0
 359 210 350 212 343 214 c 0
 301 227 288 266 288 283 c 0
 288 364 353 406 422 406 c 0x8f70
 470 406 543 359 617 359 c 0
 651 359 673 382 673 415 c 0
 673 469 628 478 589 478 c 0
 579 478 578 481 578 485 c 0
 578 507 599 520 615 520 c 0
 673 520 693 466 693 431 c 0
 693 406 686 382 676 366 c 0
 655 331 607 312 580 312 c 0
 570 312 551 313 543 315 c 0
 536 316 530 319 530 308 c 0
 530 301 531 286 531 277 c 0
 531 176 459 -8 256 -8 c 0
 115 -8 35 84 35 201 c 0xc770
EndSplineSet
Position2: "'cpsp' Capital Spacing in Latin lookup 0 subtable" dx=4 dy=0 dh=8 dv=0
EndChar

StartChar: quotesingle
Encoding: 39 39 8
Width: 131
GlyphClass: 2
Flags: MW
HStem: 497 191<36.5 82>
VStem: 30 29 40 61
LayerCount: 2
Back
Fore
SplineSet
30 511 m 0xc0
 30 512 37 637 40 659 c 0
 42 675 48 688 72 688 c 0
 92 688 101 677 101 663 c 0xa0
 101 659 100 654 99 649 c 0
 91 617 64 533 59 516 c 0
 54 500 56 497 42 497 c 0
 31 497 30 503 30 511 c 0xc0
EndSplineSet
EndChar

StartChar: parenleft
Encoding: 40 40 9
Width: 319
GlyphClass: 2
Flags: MW
VStem: 60 57<170 416>
LayerCount: 2
Back
Fore
SplineSet
60 285 m 0
 60 547 241 689 243 689 c 0
 250 689 259 683 259 676 c 0
 259 672 117 546 117 297 c 0
 117 14 255 -111 255 -126 c 0
 255 -133 250 -140 239 -140 c 0
 228 -140 60 55 60 285 c 0
EndSplineSet
Substitution2: "'case' Case-Sensitive Forms in Latin lookup 14 subtable" parenleft.u
Substitution2: "'subs' Subscript in Latin lookup 10 subtable" parenleft.sub
Substitution2: "'sups' Superscript in Latin lookup 9 subtable" parenleft.sup
Substitution2: "'dnom' Denominators in Latin lookup 6 subtable" parenleft.denom
Substitution2: "'numr' Numerators in Latin lookup 5 subtable" parenleft.numer
AlternateSubs2: "'aalt' Access All Alternates in Latin lookup 1 subtable" parenleft.u parenleft.sub parenleft.sup parenleft.denom parenleft.numer
AlternateSubs2: "'aalt' Access All Alternates lookup 0 subtable" parenleft.u parenleft.sub parenleft.sup parenleft.denom parenleft.numer
EndChar

StartChar: parenright
Encoding: 41 41 10
Width: 319
GlyphClass: 2
Flags: MW
VStem: 202 57<133 379 133 393.5>
LayerCount: 2
Back
Fore
SplineSet
60 -127 m 0
 60 -123 202 3 202 252 c 0
 202 535 64 660 64 675 c 0
 64 682 69 689 80 689 c 0
 91 689 259 494 259 264 c 0
 259 2 78 -140 76 -140 c 0
 69 -140 60 -134 60 -127 c 0
EndSplineSet
Substitution2: "'case' Case-Sensitive Forms in Latin lookup 14 subtable" parenright.u
Substitution2: "'subs' Subscript in Latin lookup 10 subtable" parenright.sub
Substitution2: "'sups' Superscript in Latin lookup 9 subtable" parenright.sup
Substitution2: "'dnom' Denominators in Latin lookup 6 subtable" parenright.denom
Substitution2: "'numr' Numerators in Latin lookup 5 subtable" parenright.numer
AlternateSubs2: "'aalt' Access All Alternates in Latin lookup 1 subtable" parenright.u parenright.sub parenright.sup parenright.denom parenright.numer
AlternateSubs2: "'aalt' Access All Alternates lookup 0 subtable" parenright.u parenright.sub parenright.sup parenright.denom parenright.numer
EndChar

StartChar: asterisk
Encoding: 42 42 11
Width: 391
GlyphClass: 2
Flags: MW
HStem: 420 58 513 24<177 188> 514 10 655 20G<262 276>
VStem: 164 63<378 396> 173 25<529 530> 183 12<500.5 511.5> 236 59
LayerCount: 2
Back
Fore
SplineSet
30 447 m 0xd3
 30 461 42 473 53 478 c 0
 73 487 126 503 154 515 c 0
 167 520 173 524 173 528 c 0xd5
 173 532 168 536 158 543 c 0
 133 561 85 587 70 603 c 0
 63 611 57 622 57 632 c 0
 57 646 66 659 85 659 c 0
 97 659 109 652 116 644 c 0
 132 627 160 575 176 550 c 0
 181 542 184 537 187 537 c 0
 189 537 191 541 195 550 c 0xd3
 206 577 224 639 236 656 c 0
 243 666 256 675 268 675 c 0
 284 675 295 660 295 647 c 0
 295 637 291 628 286 621 c 0
 271 599 228 568 208 546 c 0
 202 539 198 534 198 531 c 0xd5
 198 527 203 525 216 524 c 0
 247 521 311 524 332 517 c 0
 347 512 361 502 361 486 c 0
 361 467 346 457 329 457 c 0
 324 457 319 458 314 460 c 0
 299 465 245 495 216 508 c 0
 208 512 203 514 200 514 c 0
 198 514 195 513 195 510 c 0xb3
 195 507 196 503 198 496 c 0xb5
 205 464 227 411 227 387 c 0
 227 369 218 348 197 348 c 0
 174 348 164 370 164 386 c 0xb9
 164 406 178 461 182 492 c 0
 183 496 183 499 183 502 c 0
 183 510 182 513 179 513 c 0
 175 513 169 509 162 502 c 0
 139 481 104 438 85 427 c 0
 78 423 69 420 60 420 c 0
 43 420 30 430 30 447 c 0xd3
EndSplineSet
EndChar

StartChar: plus
Encoding: 43 43 12
Width: 527
GlyphClass: 2
Flags: MW
HStem: -22 21G<256 271.5> 188 44<39.5 219 49 217 303 475>
VStem: 241 45<-4 170 252 259 259 422>
LayerCount: 2
Back
Fore
SplineSet
31 212 m 0
 31 225 31 232 49 232 c 2
 219 232 l 2
 238 232 241 240 241 251 c 2
 241 427 l 2
 241 442 248 442 262 442 c 0
 276 442 286 442 286 422 c 2
 286 259 l 2
 286 245 287 232 303 232 c 2
 480 232 l 2
 496 232 496 225 496 211 c 0
 496 194 496 188 475 188 c 2
 303 188 l 2
 286 188 286 182 286 170 c 2
 286 -5 l 2
 286 -22 277 -22 266 -22 c 0
 246 -22 241 -22 241 -4 c 2
 241 170 l 2
 241 188 234 188 217 188 c 2
 48 188 l 2
 31 188 31 195 31 212 c 0
EndSplineSet
EndChar

StartChar: comma
Encoding: 44 44 13
Width: 195
GlyphClass: 2
Flags: MW
HStem: -148 244<21 104>
VStem: 98 57<-15.5 -5.5>
LayerCount: 2
Back
Fore
SplineSet
7 -127 m 0
 7 -125 28 -111 50 -90 c 0
 67 -73 98 -42 98 -11 c 0
 98 0 93 11 83 24 c 0
 67 44 45 62 45 68 c 0
 45 76 81 96 98 96 c 0
 110 96 155 65 155 16 c 0
 155 -47 29 -148 24 -148 c 0
 18 -148 7 -134 7 -127 c 0
EndSplineSet
Substitution2: "'subs' Subscript in Latin lookup 10 subtable" comma.sub
Substitution2: "'sups' Superscript in Latin lookup 9 subtable" comma.sup
Substitution2: "'dnom' Denominators in Latin lookup 6 subtable" comma.denom
Substitution2: "'numr' Numerators in Latin lookup 5 subtable" comma.numer
AlternateSubs2: "'aalt' Access All Alternates in Latin lookup 1 subtable" comma.sub comma.sup comma.denom comma.numer
AlternateSubs2: "'aalt' Access All Alternates lookup 0 subtable" comma.sub comma.sup comma.denom comma.numer
EndChar

StartChar: hyphen
Encoding: 45 45 14
Width: 268
GlyphClass: 2
Flags: MW
HStem: 198 43 206 42<225 232>
VStem: 30 203<200 241.5>
LayerCount: 2
Back
Fore
SplineSet
30 201 m 0xa0
 30 216 39 240 48 241 c 0xa0
 57 242 225 248 231 248 c 0
 233 248 233 244 233 239 c 0
 233 227 229 206 225 206 c 0x60
 212 205 47 198 34 198 c 0
 31 198 30 199 30 201 c 0xa0
EndSplineSet
Substitution2: "'case' Case-Sensitive Forms in Latin lookup 14 subtable" hyphen.u
Substitution2: "'subs' Subscript in Latin lookup 10 subtable" hyphen.sub
Substitution2: "'sups' Superscript in Latin lookup 9 subtable" hyphen.sup
Substitution2: "'dnom' Denominators in Latin lookup 6 subtable" hyphen.denom
Substitution2: "'numr' Numerators in Latin lookup 5 subtable" hyphen.numer
AlternateSubs2: "'aalt' Access All Alternates in Latin lookup 1 subtable" hyphen.u hyphen.sub hyphen.sup hyphen.denom hyphen.numer
AlternateSubs2: "'aalt' Access All Alternates lookup 0 subtable" hyphen.u hyphen.sub hyphen.sup hyphen.denom hyphen.numer
EndChar

StartChar: period
Encoding: 46 46 15
Width: 210
GlyphClass: 2
Flags: MW
HStem: -8 98<96.5 115 96.5 115>
VStem: 60 90<30.5 51>
LayerCount: 2
Back
Fore
SplineSet
60 38 m 0
 60 64 87 90 106 90 c 0
 124 90 150 63 150 43 c 0
 150 8 120 -8 110 -8 c 0
 82 -8 60 23 60 38 c 0
EndSplineSet
Substitution2: "'subs' Subscript in Latin lookup 10 subtable" period.sub
Substitution2: "'sups' Superscript in Latin lookup 9 subtable" period.sup
Substitution2: "'dnom' Denominators in Latin lookup 6 subtable" period.denom
Substitution2: "'numr' Numerators in Latin lookup 5 subtable" period.numer
AlternateSubs2: "'aalt' Access All Alternates in Latin lookup 1 subtable" period.sub period.sup period.denom period.numer
AlternateSubs2: "'aalt' Access All Alternates lookup 0 subtable" period.sub period.sup period.denom period.numer
EndChar

StartChar: slash
Encoding: 47 47 16
Width: 406
GlyphClass: 2
Flags: W
LayerCount: 2
Back
Fore
SplineSet
10 -220 m 0
 10 -211 21 -186 29 -163 c 2
 29 -163 344 680 346 687 c 0
 351 702 357 705 375 705 c 0
 384 705 396 703 396 693 c 0
 396 684 387 662 382 649 c 2
 68 -202 l 2
 57 -233 51 -233 36 -233 c 0
 24 -233 10 -233 10 -220 c 0
EndSplineSet
Substitution2: "'numr' Numerators in Latin lookup 5 subtable" fraction
AlternateSubs2: "'aalt' Access All Alternates in Latin lookup 1 subtable" fraction
AlternateSubs2: "'aalt' Access All Alternates lookup 0 subtable" fraction
EndChar

StartChar: zero
Encoding: 48 48 17
Width: 500
GlyphClass: 2
Flags: MW
HStem: -5 32<195.5 270.5 195.5 295> 336 30<220.5 299.5>
VStem: 62 45<113.5 197.5 113.5 221.5> 391 48<153.5 244 141.5 247.5>
LayerCount: 2
Back
Fore
SplineSet
62 164 m 0
 62 279 148 366 264 366 c 0
 372 366 439 290 439 198 c 0
 439 85 350 -5 240 -5 c 0
 141 -5 62 60 62 164 c 0
107 156 m 0
 107 71 160 27 231 27 c 0
 310 27 391 100 391 207 c 0
 391 288 335 336 264 336 c 0
 177 336 107 239 107 156 c 0
EndSplineSet
Substitution2: "'pnum' Proportional Numbers in Latin lookup 12 subtable" zero.p
Substitution2: "'lnum' Lining Figures in Latin lookup 11 subtable" zero.u
Substitution2: "'subs' Subscript in Latin lookup 10 subtable" zero.sub
Substitution2: "'sups' Superscript in Latin lookup 9 subtable" zero.sup
Substitution2: "'dnom' Denominators in Latin lookup 6 subtable" zero.denom
Substitution2: "'numr' Numerators in Latin lookup 5 subtable" zero.numer
AlternateSubs2: "'aalt' Access All Alternates in Latin lookup 1 subtable" zero.p zero.u zero.sub zero.sup zero.denom zero.numer
AlternateSubs2: "'aalt' Access All Alternates lookup 0 subtable" zero.p zero.u zero.sub zero.sup zero.denom zero.numer
EndChar

StartChar: one
Encoding: 49 49 18
Width: 500
GlyphClass: 2
Flags: MW
HStem: -2 27<144 150.5 320.5 330 330 335> 358 27<179 184 184 193.5 178.5 237 357.5 364>
VStem: 130 248
LayerCount: 2
Back
Fore
SplineSet
130 12 m 0
 130 21 131 25 144 25 c 2
 184 25 l 2
 195 25 193 27 195 37 c 0
 215 140 245 339 245 346 c 0
 245 355 247 358 237 358 c 2
 184 358 l 2
 174 358 173 362 173 371 c 0
 173 380 173 385 184 385 c 0
 203 385 252 383 277 383 c 0
 302 383 348 385 367 385 c 0
 378 385 378 382 378 371 c 0
 378 362 377 358 364 358 c 2
 325 358 l 2
 314 358 314 356 312 346 c 0
 300 267 281 141 267 37 c 0
 266 28 270 25 280 25 c 2
 330 25 l 2
 340 25 341 21 341 12 c 0
 341 3 341 -2 330 -2 c 0
 311 -2 259 0 234 0 c 0
 209 0 160 -2 141 -2 c 0
 130 -2 130 1 130 12 c 0
EndSplineSet
Substitution2: "'pnum' Proportional Numbers in Latin lookup 12 subtable" one.p
Substitution2: "'lnum' Lining Figures in Latin lookup 11 subtable" one.u
Substitution2: "'subs' Subscript in Latin lookup 10 subtable" one.sub
Substitution2: "'sups' Superscript in Latin lookup 9 subtable" one.sup
Substitution2: "'dnom' Denominators in Latin lookup 6 subtable" one.denom
Substitution2: "'numr' Numerators in Latin lookup 5 subtable" one.numer
AlternateSubs2: "'aalt' Access All Alternates in Latin lookup 1 subtable" one.p one.u one.sub one.sup one.denom one.numer
AlternateSubs2: "'aalt' Access All Alternates lookup 0 subtable" one.p one.u one.sub one.sup one.denom one.numer
EndChar

StartChar: two
Encoding: 50 50 19
Width: 500
GlyphClass: 2
Flags: MW
HStem: 0 58<146 393> 359 35<195.5 238>
VStem: 295 69<242 291.5>
LayerCount: 2
Back
Fore
SplineSet
54 11 m 0
 54 17 61 24 66 28 c 0
 96 56 167 95 222 144 c 0
 258 176 295 218 295 266 c 0
 295 317 265 359 211 359 c 0
 145 359 95 278 90 278 c 0
 84 278 72 287 72 294 c 0
 72 304 152 394 239 394 c 0
 322 394 364 351 364 280 c 0
 364 195 227 114 167 79 c 0
 148 68 139 61 139 59 c 0
 139 58 141 58 146 58 c 2
 394 58 l 2
 404 58 425 106 429 106 c 0
 434 106 447 101 447 98 c 0
 447 91 420 45 404 6 c 0
 402 1 400 0 393 0 c 2
 69 0 l 2
 58 0 54 5 54 11 c 0
EndSplineSet
Substitution2: "'pnum' Proportional Numbers in Latin lookup 12 subtable" two.p
Substitution2: "'lnum' Lining Figures in Latin lookup 11 subtable" two.u
Substitution2: "'subs' Subscript in Latin lookup 10 subtable" two.sub
Substitution2: "'sups' Superscript in Latin lookup 9 subtable" two.sup
Substitution2: "'dnom' Denominators in Latin lookup 6 subtable" two.denom
Substitution2: "'numr' Numerators in Latin lookup 5 subtable" two.numer
AlternateSubs2: "'aalt' Access All Alternates in Latin lookup 1 subtable" two.p two.u two.sub two.sup two.denom two.numer
AlternateSubs2: "'aalt' Access All Alternates lookup 0 subtable" two.p two.u two.sub two.sup two.denom two.numer
EndChar

StartChar: three
Encoding: 51 51 20
Width: 500
GlyphClass: 2
Flags: MW
HStem: -214 25<184.5 241.5 184.5 249.5> 73 32 359 28<230.5 269.5>
VStem: 136 126<79.5 132> 327 58<232.5 297.5> 349 66<-74 4>
LayerCount: 2
Back
Fore
SplineSet
56 -146 m 0xf4
 56 -135 81 -134 91 -134 c 0
 101 -134 116 -135 125 -145 c 0
 136 -158 164 -189 205 -189 c 0
 278 -189 349 -113 349 -35 c 0xf4
 349 43 292 76 208 76 c 0
 187 76 158 73 153 73 c 0
 142 73 136 75 136 84 c 0
 136 100 139 100 155 105 c 0
 254 133 327 182 327 272 c 0
 327 323 295 359 244 359 c 0
 178 359 139 324 133 324 c 0
 128 324 122 335 122 341 c 0
 122 348 198 387 263 387 c 0
 334 387 385 351 385 281 c 0xf8
 385 184 262 134 262 130 c 0
 262 124 415 121 415 -21 c 0
 415 -128 304 -214 195 -214 c 0
 97 -214 56 -162 56 -146 c 0xf4
EndSplineSet
Substitution2: "'pnum' Proportional Numbers in Latin lookup 12 subtable" three.p
Substitution2: "'lnum' Lining Figures in Latin lookup 11 subtable" three.u
Substitution2: "'subs' Subscript in Latin lookup 10 subtable" three.sub
Substitution2: "'sups' Superscript in Latin lookup 9 subtable" three.sup
Substitution2: "'dnom' Denominators in Latin lookup 6 subtable" three.denom
Substitution2: "'numr' Numerators in Latin lookup 5 subtable" three.numer
AlternateSubs2: "'aalt' Access All Alternates in Latin lookup 1 subtable" three.p three.u three.sub three.sup three.denom three.numer
AlternateSubs2: "'aalt' Access All Alternates lookup 0 subtable" three.p three.u three.sub three.sup three.denom three.numer
EndChar

StartChar: four
Encoding: 52 52 21
Width: 500
GlyphClass: 2
Flags: MW
HStem: 0 54<127 253 365 443> 372 20G<383.5 394>
VStem: 239 71<-191 -191>
LayerCount: 2
Back
Fore
SplineSet
46 8 m 0
 46 23 67 56 90 86 c 0
 100 99 114 112 124 124 c 0
 177 187 230 239 287 298 c 0
 295 307 377 392 390 392 c 0
 398 392 403 387 400 368 c 2
 350 72 l 2
 347 54 351 54 365 54 c 2
 448 54 l 2
 454 54 455 54 455 44 c 2
 455 10 l 2
 455 0 455 0 443 0 c 2
 346 0 l 2
 332 0 335 0 333 -14 c 0
 326 -76 310 -188 310 -193 c 0
 310 -200 309 -201 295 -204 c 2
 253 -212 l 2
 247 -213 236 -209 239 -191 c 2
 273 -11 l 2
 276 4 268 0 253 0 c 2
 64 0 l 2
 56 0 46 1 46 8 c 0
102 60 m 0
 102 56 108 54 127 54 c 2
 274 54 l 2
 292 54 290 56 293 74 c 2
 328 290 l 2
 330 301 323 302 316 295 c 2
 119 85 l 2
 109 75 102 66 102 60 c 0
EndSplineSet
Substitution2: "'pnum' Proportional Numbers in Latin lookup 12 subtable" four.p
Substitution2: "'lnum' Lining Figures in Latin lookup 11 subtable" four.u
Substitution2: "'subs' Subscript in Latin lookup 10 subtable" four.sub
Substitution2: "'sups' Superscript in Latin lookup 9 subtable" four.sup
Substitution2: "'dnom' Denominators in Latin lookup 6 subtable" four.denom
Substitution2: "'numr' Numerators in Latin lookup 5 subtable" four.numer
AlternateSubs2: "'aalt' Access All Alternates in Latin lookup 1 subtable" four.p four.u four.sub four.sup four.denom four.numer
AlternateSubs2: "'aalt' Access All Alternates lookup 0 subtable" four.p four.u four.sub four.sup four.denom four.numer
EndChar

StartChar: five
Encoding: 53 53 22
Width: 500
GlyphClass: 2
Flags: MW
HStem: -212 23<63.5 65 62.5 125.5> 322 56 375 20G<409.5 414.5>
VStem: 123 39<166.5 225.5> 293 62<-60.5 50.5>
LayerCount: 2
Back
Fore
SplineSet
58 -199 m 0xd8
 58 -192 60 -189 65 -189 c 0
 168 -181 293 -136 293 -5 c 0
 293 106 123 153 123 180 c 0
 123 194 165 292 190 372 c 0
 192 378 199 378 205 378 c 0xd8
 213 378 362 363 373 363 c 0
 389 363 394 361 399 371 c 0
 405 383 408 395 411 395 c 0xb8
 418 395 431 391 431 387 c 0
 431 381 415 343 406 319 c 0
 401 305 401 300 386 300 c 0
 373 300 303 312 224 322 c 0
 214 323 200 323 196 315 c 0
 179 280 162 229 162 222 c 0
 162 207 355 149 355 9 c 0
 355 -130 185 -212 66 -212 c 0
 61 -212 58 -208 58 -199 c 0xd8
EndSplineSet
Substitution2: "'pnum' Proportional Numbers in Latin lookup 12 subtable" five.p
Substitution2: "'lnum' Lining Figures in Latin lookup 11 subtable" five.u
Substitution2: "'subs' Subscript in Latin lookup 10 subtable" five.sub
Substitution2: "'sups' Superscript in Latin lookup 9 subtable" five.sup
Substitution2: "'dnom' Denominators in Latin lookup 6 subtable" five.denom
Substitution2: "'numr' Numerators in Latin lookup 5 subtable" five.numer
AlternateSubs2: "'aalt' Access All Alternates in Latin lookup 1 subtable" five.p five.u five.sub five.sup five.denom five.numer
AlternateSubs2: "'aalt' Access All Alternates lookup 0 subtable" five.p five.u five.sub five.sup five.denom five.numer
EndChar

StartChar: six
Encoding: 54 54 23
Width: 500
GlyphClass: 2
Flags: MW
HStem: -5 29<186 270 186 276> 343 21<238.5 282.5> 642 25
VStem: 55 61<147.5 195 147.5 264.5> 354 69<152.5 234>
LayerCount: 2
Back
Fore
SplineSet
55 187 m 0
 55 342 153 477 249 561 c 0
 331 632 420 667 436 667 c 0
 442 667 446 656 446 648 c 0
 446 645 441 643 438 642 c 0
 388 622 346 599 308 562 c 0
 249 505 196 435 173 389 c 0
 166 374 159 362 159 353 c 0
 159 352 170 354 186 357 c 0
 202 360 226 364 251 364 c 0
 355 364 423 303 423 191 c 0
 423 69 330 -5 222 -5 c 0
 144 -5 55 32 55 187 c 0
116 173 m 0
 116 122 139 24 233 24 c 0
 307 24 354 108 354 197 c 0
 354 271 331 343 234 343 c 0
 212 343 159 333 151 322 c 0
 125 287 116 217 116 173 c 0
EndSplineSet
Substitution2: "'pnum' Proportional Numbers in Latin lookup 12 subtable" six.p
Substitution2: "'lnum' Lining Figures in Latin lookup 11 subtable" six.u
Substitution2: "'subs' Subscript in Latin lookup 10 subtable" six.sub
Substitution2: "'sups' Superscript in Latin lookup 9 subtable" six.sup
Substitution2: "'dnom' Denominators in Latin lookup 6 subtable" six.denom
Substitution2: "'numr' Numerators in Latin lookup 5 subtable" six.numer
AlternateSubs2: "'aalt' Access All Alternates in Latin lookup 1 subtable" six.p six.u six.sub six.sup six.denom six.numer
AlternateSubs2: "'aalt' Access All Alternates lookup 0 subtable" six.p six.u six.sub six.sup six.denom six.numer
EndChar

StartChar: seven
Encoding: 55 55 24
Width: 500
GlyphClass: 2
Flags: MW
HStem: 335 58<176 190 190 383>
VStem: 65 27<286 286 286 291> 90 43
LayerCount: 2
Back
Fore
SplineSet
65 286 m 0xc0
 65 296 87 342 98 404 c 0
 100 418 103 424 110 424 c 0
 119 424 127 423 127 415 c 0
 127 409 125 402 125 395 c 0
 125 393 147 393 176 393 c 2
 444 393 l 2
 451 393 457 392 457 384 c 0
 457 370 290 102 242 20 c 0
 204 -45 160 -122 133 -195 c 0
 129 -206 127 -210 121 -210 c 0
 107 -210 90 -201 90 -190 c 0xa0
 90 -128 323 202 392 314 c 0
 395 319 397 324 397 327 c 0
 397 332 393 335 383 335 c 2
 190 335 l 2
 160 335 107 333 105 326 c 2
 92 286 l 2
 90 281 90 277 82 277 c 0
 75 277 65 280 65 286 c 0xc0
EndSplineSet
Substitution2: "'pnum' Proportional Numbers in Latin lookup 12 subtable" seven.p
Substitution2: "'lnum' Lining Figures in Latin lookup 11 subtable" seven.u
Substitution2: "'subs' Subscript in Latin lookup 10 subtable" seven.sub
Substitution2: "'sups' Superscript in Latin lookup 9 subtable" seven.sup
Substitution2: "'dnom' Denominators in Latin lookup 6 subtable" seven.denom
Substitution2: "'numr' Numerators in Latin lookup 5 subtable" seven.numer
AlternateSubs2: "'aalt' Access All Alternates in Latin lookup 1 subtable" seven.p seven.u seven.sub seven.sup seven.denom seven.numer
AlternateSubs2: "'aalt' Access All Alternates lookup 0 subtable" seven.p seven.u seven.sub seven.sup seven.denom seven.numer
EndChar

StartChar: eight
Encoding: 56 56 25
Width: 500
GlyphClass: 2
Flags: MW
HStem: -3 25<200.5 260 200.5 268.5> 638 23<234.5 300.5>
VStem: 70 54<107 190.5> 111 53<494 547> 211 78<325 348> 341 59<109.5 180> 371 49<479.5 556.5>
LayerCount: 2
Back
Fore
SplineSet
70 130 m 0xec
 70 251 211 321 211 329 c 0
 211 334 111 406 111 500 c 0
 111 594 181 661 283 661 c 0
 364 661 420 613 420 527 c 0xda
 420 423 289 352 289 344 c 0
 289 338 400 259 400 150 c 0
 400 60 319 -3 218 -3 c 0
 131 -3 70 39 70 130 c 0xec
124 145 m 0xec
 124 69 174 22 227 22 c 0
 293 22 341 79 341 140 c 0
 341 220 231 315 225 315 c 0
 216 315 124 245 124 145 c 0xec
164 534 m 0xda
 164 454 264 359 271 359 c 0
 282 359 371 434 371 525 c 0
 371 588 332 638 269 638 c 0
 200 638 164 582 164 534 c 0xda
EndSplineSet
Substitution2: "'pnum' Proportional Numbers in Latin lookup 12 subtable" eight.p
Substitution2: "'lnum' Lining Figures in Latin lookup 11 subtable" eight.u
Substitution2: "'subs' Subscript in Latin lookup 10 subtable" eight.sub
Substitution2: "'sups' Superscript in Latin lookup 9 subtable" eight.sup
Substitution2: "'dnom' Denominators in Latin lookup 6 subtable" eight.denom
Substitution2: "'numr' Numerators in Latin lookup 5 subtable" eight.numer
AlternateSubs2: "'aalt' Access All Alternates in Latin lookup 1 subtable" eight.p eight.u eight.sub eight.sup eight.denom eight.numer
AlternateSubs2: "'aalt' Access All Alternates lookup 0 subtable" eight.p eight.u eight.sub eight.sup eight.denom eight.numer
EndChar

StartChar: nine
Encoding: 57 57 26
Width: 500
GlyphClass: 2
Flags: MW
HStem: -205 33 25 27<216 238.5> 368 26<248 321.5>
VStem: 88 59<141.5 218 138.5 253> 387 58<202.5 259 149 281.5>
LayerCount: 2
Back
Fore
SplineSet
42 -185 m 0
 42 -182 54 -179 74 -172 c 0
 163 -141 246 -62 309 14 c 0
 322 29 329 42 329 46 c 0
 329 50 310 41 300 38 c 0
 278 31 251 25 226 25 c 0
 143 25 88 91 88 192 c 0
 88 314 188 394 296 394 c 0
 391 394 445 315 445 203 c 0
 445 95 383 -7 305 -73 c 0
 196 -165 58 -205 51 -205 c 0
 45 -205 42 -193 42 -185 c 0
147 173 m 0
 147 104 179 52 253 52 c 0
 284 52 306 56 327 65 c 0
 362 80 387 165 387 240 c 0
 387 323 348 368 295 368 c 0
 201 368 147 263 147 173 c 0
EndSplineSet
Substitution2: "'pnum' Proportional Numbers in Latin lookup 12 subtable" nine.p
Substitution2: "'lnum' Lining Figures in Latin lookup 11 subtable" nine.u
Substitution2: "'subs' Subscript in Latin lookup 10 subtable" nine.sub
Substitution2: "'sups' Superscript in Latin lookup 9 subtable" nine.sup
Substitution2: "'dnom' Denominators in Latin lookup 6 subtable" nine.denom
Substitution2: "'numr' Numerators in Latin lookup 5 subtable" nine.numer
AlternateSubs2: "'aalt' Access All Alternates in Latin lookup 1 subtable" nine.p nine.u nine.sub nine.sup nine.denom nine.numer
AlternateSubs2: "'aalt' Access All Alternates lookup 0 subtable" nine.p nine.u nine.sub nine.sup nine.denom nine.numer
EndChar

StartChar: colon
Encoding: 58 58 27
Width: 209
GlyphClass: 2
Flags: MW
HStem: -8 98<96.5 115 96.5 115> 267 98<125.5 144 125.5 144>
VStem: 60 90<30.5 51> 89 90<305.5 326>
LayerCount: 2
Back
Fore
SplineSet
60 38 m 0xe0
 60 64 87 90 106 90 c 0
 124 90 150 63 150 43 c 0
 150 8 120 -8 110 -8 c 0
 82 -8 60 23 60 38 c 0xe0
89 313 m 0xd0
 89 339 116 365 135 365 c 0
 153 365 179 338 179 318 c 0
 179 283 149 267 139 267 c 0
 111 267 89 298 89 313 c 0xd0
EndSplineSet
EndChar

StartChar: semicolon
Encoding: 59 59 28
Width: 195
GlyphClass: 2
Flags: MW
HStem: 267 98<116.5 135 116.5 135>
VStem: 80 90<305.5 326> 98 57<-15.5 -5.5>
LayerCount: 2
Back
Fore
SplineSet
7 -127 m 0xa0
 7 -125 28 -111 50 -90 c 0
 67 -73 98 -42 98 -11 c 0
 98 0 93 11 83 24 c 0
 67 44 45 62 45 68 c 0
 45 76 81 96 98 96 c 0
 110 96 155 65 155 16 c 0
 155 -47 29 -148 24 -148 c 0
 18 -148 7 -134 7 -127 c 0xa0
80 313 m 0xc0
 80 339 107 365 126 365 c 0
 144 365 170 338 170 318 c 0
 170 283 140 267 130 267 c 0
 102 267 80 298 80 313 c 0xc0
EndSplineSet
EndChar

StartChar: less
Encoding: 60 60 29
Width: 527
GlyphClass: 2
Flags: MW
HStem: 361 20G<465 472.5>
VStem: 41 73<205.5 210.5 205.5 216>
LayerCount: 2
Back
Fore
SplineSet
41 211 m 0
 41 221 41 225 56 231 c 0
 463 379 462 381 468 381 c 0
 477 381 487 377 487 356 c 0
 487 347 479 343 471 340 c 2
 156 229 l 2
 137 222 114 213 114 208 c 0
 114 203 136 197 156 190 c 2
 476 78 l 2
 482 76 487 72 487 65 c 0
 487 57 481 41 463 41 c 0
 457 41 460 41 55 188 c 0
 41 193 41 197 41 211 c 0
EndSplineSet
EndChar

StartChar: equal
Encoding: 61 61 30
Width: 527
GlyphClass: 2
Flags: MW
HStem: 110 45<39 480 49 475> 266 44<39 480 49 475>
LayerCount: 2
Back
Fore
SplineSet
31 134 m 0
 31 147 31 155 49 155 c 2
 480 155 l 2
 496 155 496 148 496 134 c 0
 496 117 496 110 475 110 c 2
 48 110 l 2
 30 110 31 117 31 134 c 0
31 290 m 0
 31 303 31 310 49 310 c 2
 480 310 l 2
 496 310 496 303 496 289 c 0
 496 272 496 266 475 266 c 2
 48 266 l 2
 30 266 31 273 31 290 c 0
EndSplineSet
EndChar

StartChar: greater
Encoding: 62 62 31
Width: 527
GlyphClass: 2
Flags: MW
HStem: 361 20G<54.5 62>
VStem: 414 73<205.5 210.5>
LayerCount: 2
Back
Fore
SplineSet
41 65 m 0
 41 72 45 76 51 78 c 2
 372 190 l 2
 392 197 414 203 414 208 c 0
 414 213 391 222 372 229 c 2
 56 340 l 2
 48 343 41 347 41 356 c 0
 41 377 50 381 59 381 c 0
 65 381 64 379 471 231 c 0
 486 225 487 221 487 211 c 0
 487 197 486 193 472 188 c 0
 67 41 70 41 64 41 c 0
 46 41 41 57 41 65 c 0
EndSplineSet
EndChar

StartChar: question
Encoding: 63 63 32
Width: 374
GlyphClass: 2
Flags: MW
HStem: -8 98<116.5 135 116.5 135> 600 57<176 204.5 168.5 205>
VStem: 80 90<30.5 51> 84 34<186 206 179 225> 313 26<487.5 527 468 529.5>
LayerCount: 2
Back
Fore
SplineSet
80 38 m 0xe8
 80 64 107 90 126 90 c 0
 144 90 170 63 170 43 c 0
 170 8 140 -8 130 -8 c 0
 102 -8 80 23 80 38 c 0xe8
84 206 m 0xd8
 84 244 112 278 149 315 c 0
 217 383 313 460 313 515 c 0
 313 544 295 574 276 586 c 0
 254 600 223 600 187 600 c 0
 165 600 116 597 107 597 c 0
 94 597 96 617 95 636 c 0
 94 648 99 650 113 652 c 0
 131 655 160 657 177 657 c 0
 232 657 253 647 267 638 c 0
 311 609 339 553 339 501 c 0
 339 435 320 419 290 385 c 0
 249 339 221 314 185 278 c 0
 166 259 118 220 118 192 c 0
 118 166 146 143 146 139 c 0
 146 136 137 126 132 126 c 0
 127 126 84 166 84 206 c 0xd8
EndSplineSet
Position2: "'cpsp' Capital Spacing in Latin lookup 0 subtable" dx=4 dy=0 dh=8 dv=0
EndChar

StartChar: at
Encoding: 64 64 33
Width: 795
GlyphClass: 2
Flags: MW
HStem: -113 29<285 418> 54 30<449 482.5> 54 47 374 21<403 435.5> 560 28<368.5 539 364 541>
VStem: 50 34<99 291 99 301> 204 67<135.5 172> 374 65<68 132> 460 92<336.5 412> 715 30<307.5 414.5>
LayerCount: 2
Back
Fore
SplineSet
50 187 m 0xdfc0
 50 415 260 588 468 588 c 0
 610 588 745 524 745 344 c 0
 745 152 556 54 409 54 c 0
 391 54 374 60 374 76 c 0
 374 90 380 123 380 123 c 1
 380 123 319 56 262 56 c 0
 223 56 204 96 204 139 c 0
 204 205 311 395 454 395 c 0
 468 395 482 389 485 389 c 0
 487 389 489 392 499 404 c 0
 509 416 513 420 527 420 c 0
 540 420 552 417 552 407 c 0
 552 403 551 397 549 393 c 0
 523 337 439 149 439 115 c 0
 439 99 439 84 459 84 c 0
 514 84 587 118 647 178 c 0
 689 220 715 278 715 337 c 0
 715 492 611 560 471 560 c 0
 266 560 84 401 84 181 c 0
 84 17 214 -84 356 -84 c 0
 493 -84 582 -34 666 44 c 0
 667 45 676 52 679 52 c 0
 688 52 693 41 693 38 c 0
 693 34 692 30 689 27 c 0
 606 -63 483 -113 353 -113 c 0
 196 -113 50 -8 50 187 c 0xdfc0
271 147 m 0
 271 124 287 101 313 101 c 0xbfc0
 382 101 460 323 460 350 c 0
 460 365 443 374 428 374 c 0
 378 374 271 256 271 147 c 0
EndSplineSet
EndChar

StartChar: A
Encoding: 65 65 34
Width: 688
GlyphClass: 2
Flags: MW
HStem: -3 30<38 45.5 197.5 209 209 214 460 467.5 649.5 657 657 662> 281 24<277.5 469 302 469 469 473> 667 20G<482.5 491.5>
LayerCount: 2
Back
Fore
SplineSet
20 15 m 0
 20 27 22 27 38 27 c 2
 71 27 l 2
 79 27 338 489 420 610 c 0
 433 629 454 640 471 673 c 0
 475 681 479 687 486 687 c 0
 497 687 497 678 499 668 c 0
 518 551 603 27 615 27 c 2
 657 27 l 2
 668 27 668 26 668 14 c 0
 668 -1 667 -3 657 -3 c 0
 642 -3 597 0 567 0 c 0
 537 0 479 -3 456 -3 c 0
 443 -3 442 -2 442 15 c 0
 442 27 444 27 460 27 c 2
 517 27 l 2
 519 27 519 31 519 38 c 0
 519 79 494 229 491 262 c 0
 489 281 488 281 473 281 c 2
 284 281 l 2
 271 281 268 279 261 266 c 0
 236 219 140 42 140 28 c 0
 140 27 141 27 141 27 c 1
 209 27 l 2
 220 27 220 26 220 14 c 0
 220 -1 219 -3 209 -3 c 0
 186 -3 137 0 107 0 c 0
 77 0 57 -3 34 -3 c 0
 21 -3 20 -2 20 15 c 0
284 311 m 0
 284 306 290 305 302 305 c 2
 469 305 l 2
 479 305 482 307 482 310 c 0
 482 326 439 579 437 579 c 0
 435 579 430 571 424 560 c 2
 291 326 l 2
 287 319 284 314 284 311 c 0
EndSplineSet
Position2: "'cpsp' Capital Spacing in Latin lookup 0 subtable" dx=4 dy=0 dh=8 dv=0
EndChar

StartChar: B
Encoding: 66 66 35
Width: 571
GlyphClass: 2
Flags: MW
HStem: -3 33<237.5 292.5> 323 21<220 231 231 236 236 246.5 220 262> 636 29<92 94.5 87 98 87 153>
VStem: 444 82<128.5 231>
LayerCount: 2
Back
Fore
SplineSet
20 15 m 0
 20 27 22 27 38 27 c 2
 81 27 l 1
 81 27 159 541 163 622 c 0
 164 634 163 636 153 636 c 2
 98 636 l 2
 86 636 79 636 79 651 c 0
 79 663 83 665 91 665 c 0
 98 665 178 662 213 662 c 0
 241 662 310 665 323 665 c 0
 428 665 521 632 521 516 c 0
 521 374 328 339 328 337 c 0
 328 334 526 330 526 165 c 0
 526 14 348 -3 237 -3 c 0
 214 -3 167 0 137 0 c 0
 107 0 57 -3 34 -3 c 0
 21 -3 20 -2 20 15 c 0
166 48 m 0
 166 33 174 33 200 31 c 0
 214 30 230 30 245 30 c 0
 362 30 444 76 444 181 c 0
 444 281 363 323 262 323 c 2
 231 323 l 2
 206 323 204 322 202 311 c 0
 199 297 176 131 167 60 c 0
 166 55 166 51 166 48 c 0
208 364 m 0
 206 348 204 344 220 344 c 2
 236 344 l 2
 257 344 283 343 287 343 c 0
 309 343 324 351 342 360 c 0
 393 386 442 427 442 501 c 0
 442 583 383 637 291 637 c 2
 275 637 l 2
 255 637 248 634 243 606 c 0
 232 540 212 393 208 364 c 0
EndSplineSet
Position2: "'cpsp' Capital Spacing in Latin lookup 0 subtable" dx=4 dy=0 dh=8 dv=0
EndChar

StartChar: C
Encoding: 67 67 36
Width: 686
GlyphClass: 2
Flags: MW
HStem: -14 34<300.5 407.5> 643 28<318.5 441 302 450.5>
VStem: 35 90<203.5 367.5 203.5 399.5> 576 40 603 48 610 41
LayerCount: 2
Back
Fore
SplineSet
35 291 m 0xf0
 35 508 206 671 398 671 c 0
 484 671 566 632 610 584 c 1xe4
 612 591 620 625 622 625 c 0
 631 625 651 620 651 614 c 0xe8
 651 608 621 461 616 435 c 0xf0
 615 429 608 430 603 430 c 0
 590 430 580 437 580 441 c 0
 580 445 603 529 603 538 c 0xe8
 603 544 504 643 397 643 c 0
 240 643 125 447 125 288 c 0
 125 119 234 20 367 20 c 0
 470 20 546 81 551 96 c 0
 562 128 570 158 576 180 c 0
 580 193 586 192 599 189 c 0
 608 187 616 183 616 178 c 0
 616 173 604 132 583 62 c 0
 577 42 455 -14 360 -14 c 0
 198 -14 35 64 35 291 c 0xf0
EndSplineSet
Position2: "'cpsp' Capital Spacing in Latin lookup 0 subtable" dx=4 dy=0 dh=8 dv=0
EndChar

StartChar: D
Encoding: 68 68 37
Width: 742
GlyphClass: 2
Flags: MW
HStem: -4 29<24.5 79 319.5 352> 635 28<327 419>
VStem: 614 88<316.5 443.5>
LayerCount: 2
Back
Fore
SplineSet
19 10 m 0
 19 25 23 25 36 25 c 2
 79 25 l 2
 86 25 158 542 167 625 c 0
 168 632 164 636 163 636 c 2
 93 634 l 2
 84 634 80 634 80 646 c 0
 80 658 80 662 93 662 c 0
 97 662 178 661 212 661 c 0
 272 661 310 663 344 663 c 0
 551 663 702 570 702 335 c 0
 702 113 534 -2 352 -4 c 0
 287 -4 192 0 127 0 c 0
 99 0 41 -4 30 -4 c 0
 19 -4 19 -2 19 10 c 0
171 46 m 0
 171 36 174 31 177 29 c 0
 183 25 216 25 236 25 c 0
 577 25 614 268 614 365 c 0
 614 522 522 635 316 635 c 0
 296 635 267 635 253 631 c 0
 253 630 171 92 171 46 c 0
EndSplineSet
Position2: "'cpsp' Capital Spacing in Latin lookup 0 subtable" dx=4 dy=0 dh=8 dv=0
EndChar

StartChar: E
Encoding: 69 69 38
Width: 579
GlyphClass: 2
Flags: MW
HStem: -3 30<38 45.5> -3 40<490 494 490 505> 325 27<215.5 387 223 374> 636 29<100 102.5 95 106 95 161>
VStem: 424 50 445 29<418 418> 507 31<553 554 550 560.5> 517 30<678 678> 528 31
LayerCount: 2
Back
Fore
SplineSet
20 15 m 0xb1
 20 27 22 27 38 27 c 2
 81 27 l 1
 81 27 164 546 164 626 c 0
 164 633 162 636 161 636 c 2
 106 636 l 2
 94 636 87 636 87 651 c 0
 87 663 91 665 99 665 c 0
 106 665 178 662 213 662 c 0
 266 662 379 665 422 665 c 0
 489 665 515 666 517 678 c 0
 518 688 522 690 530 690 c 0
 544 690 547 689 547 679 c 0xb1
 547 660 540 634 538 554 c 0
 538 546 536 544 522 544 c 0
 510 544 507 548 507 558 c 0
 507 563 513 625 513 631 c 0
 513 635 361 638 250 638 c 0
 245 638 218 436 209 369 c 0
 207 354 205 352 223 352 c 2
 387 352 l 2
 406 352 432 352 434 365 c 2
 445 418 l 2xb6
 446 424 453 425 461 425 c 0
 468 425 474 424 474 419 c 0
 474 410 464 370 457 332 c 0
 451 300 444 256 442 243 c 0
 441 238 436 236 429 236 c 0
 421 236 412 238 412 244 c 0
 415 262 424 307 424 311 c 0
 424 321 416 325 374 325 c 2
 223 325 l 2
 208 325 205 325 203 315 c 0
 200 299 169 83 164 39 c 0
 164 32 166 30 171 30 c 0
 197 30 490 37 490 37 c 2
 498 37 515 103 528 134 c 0
 530 139 534 143 542 143 c 0
 550 143 559 138 559 132 c 0x7880
 559 121 538 71 517 8 c 0
 514 -1 510 -3 500 -3 c 0x71
 477 -3 167 0 137 0 c 0
 107 0 57 -3 34 -3 c 0
 21 -3 20 -2 20 15 c 0xb1
EndSplineSet
Position2: "'cpsp' Capital Spacing in Latin lookup 0 subtable" dx=4 dy=0 dh=8 dv=0
EndChar

StartChar: F
Encoding: 70 70 39
Width: 541
GlyphClass: 2
Flags: MW
HStem: -3 30<38 45.5 225.5 237 237 242> 325 27<215.5 379 223 366> 636 29<100 102.5 95 106 95 161>
VStem: 164 45 416 47 434 29<408 408> 481 31<553 554 550 560.5> 491 30<678 678>
LayerCount: 2
Back
Fore
SplineSet
20 15 m 0xf8
 20 27 22 27 38 27 c 2
 81 27 l 1
 81 27 164 546 164 626 c 0
 164 633 162 636 161 636 c 2
 106 636 l 2
 94 636 87 636 87 651 c 0
 87 663 91 665 99 665 c 0
 106 665 178 662 213 662 c 0
 266 662 379 665 422 665 c 0
 489 665 489 666 491 678 c 0
 492 688 496 690 504 690 c 0
 518 690 521 689 521 679 c 0xf9
 521 660 514 634 512 554 c 0
 512 546 510 544 496 544 c 0
 484 544 481 548 481 558 c 0
 481 563 487 625 487 631 c 0
 487 635 361 638 250 638 c 0
 245 638 214 405 209 368 c 0
 207 352 207 352 223 352 c 2
 379 352 l 2
 398 352 424 352 426 365 c 2
 434 408 l 2xf6
 435 414 442 415 450 415 c 0
 457 415 463 414 463 409 c 0
 463 400 456 370 449 332 c 0
 443 300 439 266 437 253 c 0
 436 248 431 246 424 246 c 0
 416 246 407 248 407 254 c 0
 410 272 416 307 416 311 c 0
 416 321 408 325 366 325 c 2
 223 325 l 2
 208 325 205 325 203 315 c 0
 200 299 169 80 164 36 c 0
 163 30 166 27 172 27 c 2
 237 27 l 2
 248 27 248 26 248 14 c 0
 248 -1 247 -3 237 -3 c 0
 214 -3 167 0 137 0 c 0
 107 0 57 -3 34 -3 c 0
 21 -3 20 -2 20 15 c 0xf8
EndSplineSet
Position2: "'cpsp' Capital Spacing in Latin lookup 0 subtable" dx=4 dy=0 dh=8 dv=0
EndChar

StartChar: G
Encoding: 71 71 40
Width: 721
GlyphClass: 2
Flags: MW
HStem: -26 34<299 379> 220 30<446.5 449 449 450 446.5 534> 650 25<333 454.5>
VStem: 35 95<192.5 362.5 192.5 376.5>
LayerCount: 2
Back
Fore
SplineSet
35 266 m 0
 35 487 209 675 411 675 c 0
 537 675 626 614 628 614 c 0
 630 614 633 636 634 641 c 0
 636 649 637 652 645 652 c 0
 655 652 667 650 666 643 c 0
 658 590 654 565 643 468 c 0
 642 460 641 454 628 454 c 0
 610 454 608 461 610 470 c 0
 611 474 626 561 626 570 c 0
 626 578 494 650 415 650 c 0
 251 650 130 449 130 276 c 0
 130 109 236 8 362 8 c 0
 458 8 520 50 525 70 c 0
 530 89 540 136 543 206 c 0
 544 219 540 220 534 220 c 2
 449 220 l 2
 443 220 441 225 441 232 c 0
 441 241 443 250 450 250 c 0
 499 249 548 247 580 247 c 0
 612 247 636 249 683 250 c 0
 690 250 691 244 691 236 c 0
 691 228 690 220 683 220 c 2
 626 220 l 2
 622 220 611 109 607 74 c 0
 605 56 450 -26 308 -26 c 0
 230 -26 35 19 35 266 c 0
EndSplineSet
Position2: "'cpsp' Capital Spacing in Latin lookup 0 subtable" dx=4 dy=0 dh=8 dv=0
EndChar

StartChar: H
Encoding: 72 72 41
Width: 795
GlyphClass: 2
Flags: MW
HStem: -3 30<38 45.5 237.5 249 249 254 483 490.5 676.5 688 688 693> 326 24<225 567 235 565> 639 30<106.5 125 110.5 125 110.5 171 312.5 320 547.5 562 749.5 757>
LayerCount: 2
Back
Fore
SplineSet
20 13 m 0
 20 25 22 27 38 27 c 2
 91 27 l 2
 101 27 180 585 180 623 c 0
 180 633 178 639 171 639 c 2
 110 639 l 2
 103 639 98 640 98 654 c 0
 98 669 104 669 117 669 c 0
 133 669 193 666 223 666 c 0
 253 666 301 669 324 669 c 0
 337 669 338 668 338 651 c 0
 338 639 336 639 320 639 c 2
 270 639 l 2
 264 639 243 509 223 369 c 0
 221 354 220 350 235 350 c 2
 567 350 l 2
 580 350 585 350 587 362 c 0
 603 486 617 601 617 623 c 0
 617 636 615 639 608 639 c 2
 547 639 l 2
 540 639 535 640 535 654 c 0
 535 669 541 669 554 669 c 0
 570 669 631 666 661 666 c 0
 691 666 738 669 761 669 c 0
 774 669 775 668 775 651 c 0
 775 639 773 639 757 639 c 2
 707 639 l 2
 692 639 623 52 623 40 c 0
 623 32 625 27 631 27 c 2
 688 27 l 2
 699 27 699 26 699 14 c 0
 699 -1 698 -3 688 -3 c 0
 665 -3 604 0 574 0 c 0
 544 0 502 -3 479 -3 c 0
 466 -3 465 -2 465 15 c 0
 465 27 467 27 483 27 c 2
 536 27 l 2
 540 27 560 168 580 314 c 0
 581 325 580 326 565 326 c 2
 231 326 l 2
 219 326 216 324 214 310 c 0
 197 185 182 66 182 40 c 0
 182 32 184 27 190 27 c 2
 249 27 l 2
 260 27 260 26 260 14 c 0
 260 -1 259 -3 249 -3 c 0
 226 -3 166 0 136 0 c 0
 106 0 57 -3 34 -3 c 0
 21 -3 20 0 20 13 c 0
EndSplineSet
Position2: "'cpsp' Capital Spacing in Latin lookup 0 subtable" dx=4 dy=0 dh=8 dv=0
EndChar

StartChar: I
Encoding: 73 73 42
Width: 377
GlyphClass: 2
Flags: MW
HStem: -3 30<38 45.5 256.5 268 268 273> 639 30<108.5 127 112.5 127 112.5 178 331.5 339>
LayerCount: 2
Back
Fore
SplineSet
20 15 m 0
 20 27 22 27 38 27 c 2
 98 27 l 2
 105 27 187 572 187 623 c 0
 187 633 185 639 178 639 c 2
 112 639 l 2
 105 639 100 640 100 654 c 0
 100 669 106 669 119 669 c 0
 135 669 204 666 234 666 c 0
 264 666 320 669 343 669 c 0
 356 669 357 668 357 651 c 0
 357 639 355 639 339 639 c 2
 282 639 l 2
 270 639 194 100 194 40 c 0
 194 32 196 27 202 27 c 2
 268 27 l 2
 279 27 279 26 279 14 c 0
 279 -1 278 -3 268 -3 c 0
 245 -3 177 0 147 0 c 0
 117 0 57 -3 34 -3 c 0
 21 -3 20 -2 20 15 c 0
EndSplineSet
Position2: "'cpsp' Capital Spacing in Latin lookup 0 subtable" dx=4 dy=0 dh=8 dv=0
EndChar

StartChar: J
Encoding: 74 74 43
Width: 365
GlyphClass: 2
Flags: MW
HStem: -212 67<-16.5 80> 639 30<103 109 109 117 102.5 177 319.5 327>
LayerCount: 2
Back
Fore
SplineSet
-58 -188 m 0
 -58 -153 2 -124 9 -124 c 0
 25 -124 40 -145 61 -145 c 0
 99 -145 103 -62 109 -5 c 0
 134 239 187 604 187 621 c 0
 187 631 187 639 177 639 c 2
 109 639 l 2
 97 639 89 639 89 654 c 0
 89 669 96 669 109 669 c 0
 125 669 202 666 232 666 c 0
 262 666 308 669 331 669 c 0
 344 669 345 668 345 651 c 0
 345 639 343 639 327 639 c 2
 277 639 l 2
 265 639 214 210 203 130 c 0
 192 45 182 -65 104 -148 c 0
 75 -179 41 -212 -5 -212 c 0
 -28 -212 -58 -202 -58 -188 c 0
EndSplineSet
Position2: "'cpsp' Capital Spacing in Latin lookup 0 subtable" dx=4 dy=0 dh=8 dv=0
EndChar

StartChar: K
Encoding: 75 75 44
Width: 656
GlyphClass: 2
Flags: MW
HStem: -3 30<38 45.5 217.5 229 229 234 437 444.5 613.5 625 625 630> 320 18<206.5 265 215 257> 639 30<95.5 114 99.5 114 99.5 156 287.5 295 456 462 462 470 599.5 607>
LayerCount: 2
Back
Fore
SplineSet
20 13 m 0
 20 25 22 27 38 27 c 2
 71 27 l 2
 81 27 165 585 165 623 c 0
 165 633 163 639 156 639 c 2
 99 639 l 2
 92 639 87 640 87 654 c 0
 87 669 93 669 106 669 c 0
 122 669 178 666 208 666 c 0
 238 666 276 669 299 669 c 0
 312 669 313 668 313 651 c 0
 313 639 311 639 295 639 c 2
 260 639 l 2
 244 639 203 374 202 358 c 0
 201 346 206 338 215 338 c 2
 265 338 l 2
 277 338 444 557 488 618 c 0
 492 624 498 630 498 634 c 0
 498 637 494 639 483 639 c 2
 462 639 l 2
 450 639 443 639 443 654 c 0
 443 669 449 669 462 669 c 0
 478 669 501 666 531 666 c 0
 561 666 588 669 611 669 c 0
 624 669 625 668 625 651 c 0
 625 639 623 639 607 639 c 2
 549 639 l 1
 485 553 377 429 331 378 c 0
 323 369 314 362 314 359 c 0
 314 356 318 352 323 347 c 0
 391 285 479 155 562 44 c 0
 570 33 583 27 597 27 c 2
 625 27 l 2
 636 27 636 26 636 14 c 0
 636 -1 635 -3 625 -3 c 0
 602 -3 541 0 511 0 c 0
 481 0 456 -3 433 -3 c 0
 420 -3 419 -2 419 15 c 0
 419 27 421 27 437 27 c 2
 445 27 l 2
 460 27 465 30 465 34 c 0
 465 39 459 46 453 54 c 0
 413 111 266 320 257 320 c 2
 211 320 l 2
 202 320 197 321 195 310 c 0
 182 214 158 70 158 38 c 0
 158 32 159 27 160 27 c 2
 229 27 l 2
 240 27 240 26 240 14 c 0
 240 -1 239 -3 229 -3 c 0
 206 -3 146 0 116 0 c 0
 86 0 57 -3 34 -3 c 0
 21 -3 20 0 20 13 c 0
EndSplineSet
Position2: "'cpsp' Capital Spacing in Latin lookup 0 subtable" dx=4 dy=0 dh=8 dv=0
EndChar

StartChar: L
Encoding: 76 76 45
Width: 586
GlyphClass: 2
Flags: MW
HStem: -3 30<37 44.5> -3 40 639 27
VStem: 166 89<610 639>
LayerCount: 2
Back
Fore
SplineSet
20 15 m 0xb0
 20 27 21 27 37 27 c 2
 89 27 l 2xb0
 91 27 166 594 166 626 c 0
 166 635 166 639 164 639 c 2
 106 639 l 2
 93 639 90 640 90 654 c 0
 90 668 94 669 110 669 c 0
 126 669 178 666 208 666 c 0
 238 666 295 669 318 669 c 0
 334 669 335 668 335 654 c 0
 335 642 333 639 317 639 c 2
 255 639 l 2
 255 638 178 66 178 53 c 0
 178 40 182 31 195 31 c 0
 304 31 476 36 486 37 c 0x70
 502 38 503 39 509 60 c 2
 534 137 l 2
 536 142 539 145 545 145 c 0
 555 145 566 141 566 135 c 0
 566 127 547 78 529 8 c 0
 527 -1 519 -3 509 -3 c 0
 486 -3 163 0 133 0 c 0
 103 0 56 -3 33 -3 c 0
 20 -3 20 -2 20 15 c 0xb0
EndSplineSet
Substitution2: "'locl' Localized Forms in Latin lookup 2 subtable" L.CAT
AlternateSubs2: "'aalt' Access All Alternates in Latin lookup 1 subtable" L.CAT
Position2: "'cpsp' Capital Spacing in Latin lookup 0 subtable" dx=4 dy=0 dh=8 dv=0
EndChar

StartChar: M
Encoding: 77 77 46
Width: 883
GlyphClass: 2
Flags: MW
HStem: -3 30<38 41 189 194 194 199 600 600.5 802.5 812 812 817.5> 639 30<143 148 148 155 143 194 837.5 845>
LayerCount: 2
Back
Fore
SplineSet
20 15 m 0
 20 27 22 27 38 27 c 2
 86 27 l 1
 116 166 219 618 219 631 c 0
 219 638 213 639 194 639 c 2
 148 639 l 2
 137 639 137 640 137 652 c 0
 137 667 138 669 148 669 c 0
 162 669 232 666 253 666 c 0
 275 666 294 669 300 669 c 0
 310 669 317 669 320 656 c 2
 421 147 l 2
 424 132 427 123 431 123 c 0
 435 123 441 134 447 147 c 0
 529 318 605 479 699 652 c 0
 705 663 708 666 720 666 c 2
 764 666 l 2
 794 666 826 669 849 669 c 0
 862 669 863 668 863 651 c 0
 863 639 861 639 845 639 c 2
 799 639 l 2
 799 637 735 78 735 27 c 1
 812 27 l 2
 823 27 825 26 825 14 c 0
 825 -1 824 -3 814 -3 c 0
 791 -3 722 0 692 0 c 0
 662 0 605 -3 596 -3 c 0
 583 -3 582 -2 582 15 c 0
 582 27 584 27 600 27 c 2
 639 27 l 2
 660 27 719 621 719 621 c 1
 630 451 566 336 466 124 c 0
 445 79 427 74 391 27 c 0
 382 16 379 15 375 15 c 0
 370 15 362 18 359 36 c 0
 333 198 248 617 248 617 c 1
 224 525 208 455 192 377 c 0
 161 228 129 49 129 27 c 1
 194 27 l 2
 205 27 205 26 205 14 c 0
 205 -1 204 -3 194 -3 c 0
 184 -3 136 0 106 0 c 0
 76 0 48 -3 34 -3 c 0
 21 -3 20 -2 20 15 c 0
EndSplineSet
Position2: "'cpsp' Capital Spacing in Latin lookup 0 subtable" dx=4 dy=0 dh=8 dv=0
EndChar

StartChar: N
Encoding: 78 78 47
Width: 824
GlyphClass: 2
Flags: MW
HStem: -21 21G -3 30<27.5 88 215.5 227 227 232> 639 30<96 101 101 108 96 151 612 617 617 628.5 778.5 786>
VStem: 88 51<27 85> 188 21
LayerCount: 2
Back
Fore
SplineSet
20 15 m 0x78
 20 27 22 27 38 27 c 2
 88 27 l 1x78
 116 200 146 372 177 541 c 0
 180 561 188 596 188 614 c 0
 188 618 187 619 183 626 c 0
 176 639 172 639 151 639 c 2
 101 639 l 2
 90 639 90 640 90 652 c 0
 90 667 91 669 101 669 c 0
 115 669 192 666 213 666 c 0
 235 666 252 669 258 669 c 0
 269 669 271 667 278 656 c 2
 607 157 l 2
 615 145 620 145 623 145 c 0
 632 145 695 567 695 627 c 0
 695 635 695 639 693 639 c 2
 617 639 l 2
 606 639 606 640 606 652 c 0
 606 667 607 669 617 669 c 0
 640 669 676 666 706 666 c 0
 736 666 767 669 790 669 c 0
 803 669 804 668 804 651 c 0
 804 639 802 639 786 639 c 2
 744 639 l 2
 739 639 686 311 664 172 c 0
 660 147 655 123 648 4 c 0
 647 -15 644 -21 632 -21 c 0xb8
 622 -21 613 -4 604 11 c 0
 559 84 529 128 486 191 c 2
 230 565 l 2
 223 575 218 586 214 586 c 0
 212 586 210 581 209 566 c 0
 209 553 139 128 139 42 c 0
 139 32 140 27 142 27 c 2
 227 27 l 2
 238 27 238 26 238 14 c 0
 238 -1 237 -3 227 -3 c 0x78
 204 -3 151 0 121 0 c 0xb8
 91 0 42 -3 34 -3 c 0
 21 -3 20 -2 20 15 c 0x78
EndSplineSet
Position2: "'cpsp' Capital Spacing in Latin lookup 0 subtable" dx=4 dy=0 dh=8 dv=0
EndChar

StartChar: O
Encoding: 79 79 48
Width: 734
GlyphClass: 2
Flags: MW
HStem: -22 24<272 430 272 435.5> 645 28<337.5 482>
VStem: 35 92<216.5 374.5 216.5 399.5> 608 91<293 428.5>
LayerCount: 2
Back
Fore
SplineSet
35 280 m 0
 35 519 226 673 407 673 c 0
 588 673 699 542 699 348 c 0
 699 148 537 -22 334 -22 c 0
 174 -22 35 66 35 280 c 0
127 286 m 0
 127 147 193 2 351 2 c 0
 509 2 608 213 608 373 c 0
 608 484 554 645 410 645 c 0
 265 645 127 463 127 286 c 0
EndSplineSet
Position2: "'cpsp' Capital Spacing in Latin lookup 0 subtable" dx=4 dy=0 dh=8 dv=0
EndChar

StartChar: P
Encoding: 80 80 49
Width: 570
GlyphClass: 2
Flags: MW
HStem: -3 30<38 45.5 225.5 237 237 242> 302 21<277.5 287.5 222.5 349> 636 29<100 102.5 95 106 95 161> 643 24<316 345.5>
VStem: 458 77<429 539.5>
LayerCount: 2
Back
Fore
SplineSet
20 15 m 0xd8
 20 27 22 27 38 27 c 2
 81 27 l 1
 81 27 164 596 164 626 c 0
 164 633 162 636 161 636 c 2
 106 636 l 2
 94 636 87 636 87 651 c 0
 87 663 91 665 99 665 c 0xe8
 106 665 173 662 208 662 c 0
 238 662 307 667 325 667 c 0
 461 667 535 594 535 496 c 0
 535 344 407 302 291 302 c 0
 264 302 225 304 215 304 c 0
 203 304 199 303 197 295 c 0
 194 279 169 80 164 36 c 0
 163 30 166 27 172 27 c 2
 237 27 l 2
 248 27 248 26 248 14 c 0
 248 -1 247 -3 237 -3 c 0
 214 -3 167 0 137 0 c 0
 107 0 57 -3 34 -3 c 0
 21 -3 20 -2 20 15 c 0xd8
202 335 m 0
 202 324 212 323 233 323 c 0
 342 323 458 368 458 490 c 0
 458 589 400 643 291 643 c 0xd8
 280 643 247 642 246 638 c 0
 242 613 213 420 204 354 c 0
 203 345 202 339 202 335 c 0
EndSplineSet
Position2: "'cpsp' Capital Spacing in Latin lookup 0 subtable" dx=4 dy=0 dh=8 dv=0
EndChar

StartChar: Q
Encoding: 81 81 50
Width: 717
GlyphClass: 2
Flags: MW
HStem: -198 41<576.5 591.5> -111 45<92 149.5> 646 29<330 448>
VStem: 35 86<194 391 194 394.5> 595 87<283 459.5 281 476.5>
LayerCount: 2
Back
Fore
SplineSet
16 -107 m 0
 16 -75 67 -66 117 -66 c 0
 143 -66 169 -71 188 -71 c 0
 198 -71 206 -69 211 -67 c 0
 223 -62 281 -32 319 -14 c 0
 327 -10 332 -8 332 -7 c 0
 332 -2 35 -5 35 305 c 0
 35 484 191 675 398 675 c 0
 572 675 682 544 682 375 c 0
 682 187 567 63 438 16 c 0
 403 3 395 5 357 -14 c 0
 328 -28 294 -45 266 -60 c 0
 253 -67 238 -73 238 -76 c 0
 238 -79 255 -81 271 -85 c 0
 330 -101 528 -157 625 -157 c 0
 693 -157 717 -146 723 -146 c 0
 726 -146 728 -149 728 -157 c 0
 728 -158 623 -198 560 -198 c 0
 368 -198 164 -111 135 -111 c 0
 131 -111 113 -114 98 -120 c 0
 82 -126 63 -133 49 -133 c 0
 30 -133 16 -124 16 -107 c 0
121 290 m 0
 121 98 247 17 368 17 c 0
 418 17 595 166 595 400 c 0
 595 553 511 646 385 646 c 0
 275 646 121 492 121 290 c 0
EndSplineSet
Position2: "'cpsp' Capital Spacing in Latin lookup 0 subtable" dx=4 dy=0 dh=8 dv=0
EndChar

StartChar: R
Encoding: 82 82 51
Width: 625
GlyphClass: 2
Flags: MW
HStem: 0 27 312 24<218 229 222 229 229 246 222 248> 636 26<98 218.5> 643 26<327.5 348>
VStem: 454 78<145 187> 462 85<452 545.5>
LayerCount: 2
Back
Fore
SplineSet
20 13 m 0xd8
 20 25 22 27 38 27 c 2
 79 27 l 1
 104 169 153 520 162 621 c 0
 162 626 165 636 159 636 c 2
 98 636 l 2
 86 636 79 636 79 651 c 0
 79 663 88 665 96 665 c 0
 103 665 138 662 203 662 c 0xe8
 234 662 310 669 345 669 c 0
 459 669 547 603 547 507 c 0xd4
 547 350 353 329 353 324 c 0
 353 322 380 316 419 300 c 0
 469 280 532 238 532 136 c 0
 532 120 529 66 529 38 c 0
 529 31 530 27 532 27 c 2
 575 27 l 2
 591 27 595 25 595 12 c 0
 595 3 593 -3 587 -3 c 0
 579 -3 487 0 443 0 c 0
 436 0 437 5 438 13 c 0
 446 60 454 120 454 170 c 0
 454 234 398 291 319 307 c 0
 300 311 273 312 248 312 c 2
 221 312 l 2
 215 312 196 312 193 288 c 0
 185 231 166 77 164 36 c 0
 164 30 166 27 172 27 c 2
 225 27 l 2
 236 27 238 26 238 14 c 0
 238 -1 237 -3 227 -3 c 0
 204 -3 167 0 137 0 c 0
 107 0 57 -3 34 -3 c 0
 21 -3 20 -3 20 13 c 0xd8
204 350 m 0
 204 338 212 336 222 336 c 2
 229 336 l 2
 263 336 288 333 299 333 c 0
 364 333 462 406 462 498 c 0
 462 593 405 643 291 643 c 0xd4
 280 643 241 642 241 638 c 0
 236 595 210 403 205 363 c 0
 204 358 204 354 204 350 c 0
EndSplineSet
Position2: "'cpsp' Capital Spacing in Latin lookup 0 subtable" dx=4 dy=0 dh=8 dv=0
EndChar

StartChar: S
Encoding: 83 83 52
Width: 505
GlyphClass: 2
Flags: MW
HStem: -13 29<222.5 296.5> 638 31<244.5 326.5>
VStem: 40 38<58 102.5> 89 70<423 530.5> 395 65<114 215.5> 423 47 440 30
LayerCount: 2
Back
Fore
SplineSet
40 67 m 0xf8
 40 73 54 152 57 167 c 0
 59 175 62 199 65 201 c 0
 66 202 68 202 70 202 c 0
 78 202 93 198 93 192 c 0
 93 188 78 105 78 100 c 0
 78 80 180 16 265 16 c 0
 340 16 395 68 395 139 c 0xf8
 395 292 89 264 89 473 c 0
 89 588 174 669 294 669 c 0
 365 669 430 613 432 613 c 0
 434 613 437 633 440 645 c 0xf2
 441 649 441 656 452 655 c 0
 459 654 470 654 470 648 c 0
 470 640 449 534 439 481 c 0
 437 469 430 469 424 469 c 0
 412 469 408 475 408 481 c 0
 408 482 423 535 423 550 c 0xf4
 423 556 370 638 283 638 c 0
 206 638 159 584 159 506 c 0
 159 340 460 392 460 175 c 0
 460 53 343 -13 250 -13 c 0
 130 -13 40 49 40 67 c 0xf8
EndSplineSet
Position2: "'cpsp' Capital Spacing in Latin lookup 0 subtable" dx=4 dy=0 dh=8 dv=0
EndChar

StartChar: T
Encoding: 84 84 53
Width: 681
GlyphClass: 2
Flags: MW
HStem: 0 27 633 28<148 527 201 311 410.5 415 415 521> 666 20G<77.5 89 641 652>
VStem: 20 35<541.5 552> 622 30<544 545 541 551.5> 631 30
LayerCount: 2
Back
Fore
SplineSet
20 546 m 0xf8
 20 548 41 600 63 672 c 0
 67 684 70 686 85 686 c 0
 93 686 95 680 95 674 c 2
 95 669 l 2
 95 663 148 661 201 661 c 2
 527 661 l 2
 585 661 630 662 631 672 c 0
 632 682 637 686 645 686 c 0
 659 686 661 685 661 675 c 0xf4
 661 656 656 624 652 545 c 0
 652 537 647 535 633 535 c 0
 621 535 622 539 622 549 c 0
 622 554 628 621 628 627 c 0
 628 633 578 633 521 633 c 2
 415 633 l 2
 406 633 404 624 402 613 c 0
 387 512 321 44 321 41 c 0
 321 32 323 27 329 27 c 2
 393 27 l 2
 404 27 404 26 404 14 c 0
 404 -1 403 -3 393 -3 c 0
 370 -3 303 0 273 0 c 0
 243 0 178 -3 162 -3 c 0
 149 -3 148 -2 148 15 c 0
 148 27 150 27 166 27 c 2
 220 27 l 2
 233 27 298 488 314 596 c 0
 315 604 317 615 317 622 c 0
 317 629 316 633 311 633 c 2
 174 633 l 2
 122 633 82 632 79 622 c 2
 55 552 l 2
 50 539 49 535 39 535 c 0
 29 535 20 537 20 546 c 0xf8
EndSplineSet
Position2: "'cpsp' Capital Spacing in Latin lookup 0 subtable" dx=4 dy=0 dh=8 dv=0
EndChar

StartChar: U
Encoding: 85 85 54
Width: 759
GlyphClass: 2
Flags: MW
HStem: -7 47<309.5 311.5> 1 21G<544 548 548 553> 634 30<72 78 78 86 71.5 141 258.5 266 533 539 539 547 720 721>
VStem: 76 83<110 194> 537 35
LayerCount: 2
Back
Fore
SplineSet
60 649 m 0xb8
 60 664 65 664 78 664 c 0
 94 664 140 661 170 661 c 0
 200 661 247 664 270 664 c 0
 283 664 284 663 284 646 c 0
 284 634 282 634 266 634 c 2
 234 634 l 2
 224 634 159 250 159 176 c 0
 159 44 297 40 322 40 c 0xb8
 383 40 453 69 487 91 c 0
 502 101 518 121 526 151 c 0
 536 191 547 251 558 314 c 0
 579 438 598 546 606 634 c 1
 539 634 l 2
 527 634 519 634 519 649 c 0
 519 664 526 664 539 664 c 0
 555 664 613 661 643 661 c 0
 673 661 715 664 725 664 c 0
 738 664 739 663 739 646 c 0
 739 634 737 634 721 634 c 2
 689 634 l 1
 681 596 674 556 667 516 c 0
 638 339 606 141 572 26 c 0
 566 4 560 1 553 1 c 2
 548 1 l 2x78
 540 1 538 5 537 12 c 0
 532 55 533 79 524 79 c 0
 519 79 502 68 479 55 c 0
 437 32 355 -7 268 -7 c 0
 163 -7 76 51 76 151 c 0
 76 237 142 569 142 629 c 0
 142 632 142 634 141 634 c 2
 78 634 l 2
 66 634 60 634 60 649 c 0xb8
EndSplineSet
Position2: "'cpsp' Capital Spacing in Latin lookup 0 subtable" dx=4 dy=0 dh=8 dv=0
EndChar

StartChar: V
Encoding: 86 86 55
Width: 666
GlyphClass: 2
Flags: MW
HStem: -17 21G<192.5 204.5> 634 30<32 38 38 46 31.5 78 223.5 231 469 475 475 480 626 635>
LayerCount: 2
Back
Fore
SplineSet
20 649 m 0
 20 664 25 664 38 664 c 0
 54 664 100 661 130 661 c 0
 160 661 212 664 235 664 c 0
 248 664 249 663 249 646 c 0
 249 634 247 634 231 634 c 2
 176 634 l 2
 175 634 172 632 172 629 c 0
 172 597 245 81 252 81 c 0
 257 81 352 244 430 393 c 2
 548 618 l 2
 556 634 550 634 542 634 c 2
 475 634 l 2
 463 634 457 634 457 649 c 0
 457 664 461 664 474 664 c 0
 486 664 519 661 573 661 c 0
 588 661 621 664 631 664 c 0
 644 664 646 663 646 646 c 0
 646 634 643 634 627 634 c 0
 606 634 607 633 603 627 c 2
 289 88 l 2
 280 73 261 56 235 16 c 0
 229 7 211 -17 198 -17 c 0
 187 -17 185 -8 178 44 c 0
 156 204 88 634 78 634 c 2
 38 634 l 2
 26 634 20 634 20 649 c 0
EndSplineSet
Position2: "'cpsp' Capital Spacing in Latin lookup 0 subtable" dx=4 dy=0 dh=8 dv=0
EndChar

StartChar: W
Encoding: 87 87 56
Width: 1010
GlyphClass: 2
Flags: MW
HStem: -17 21G<188.5 200.5 554.5 566.5> 634 30<32 38 38 46 31.5 78 217.5 225 401 407 407 415 609.5 615 814 820 820 825 970 979>
LayerCount: 2
Back
Fore
SplineSet
20 649 m 0
 20 664 25 664 38 664 c 0
 54 664 100 661 130 661 c 0
 160 661 206 664 229 664 c 0
 242 664 243 663 243 646 c 0
 243 634 241 634 225 634 c 2
 172 634 l 2
 171 634 168 632 168 629 c 0
 168 597 237 84 244 84 c 0
 251 84 408 369 471 488 c 1
 459 583 454 634 450 634 c 2
 407 634 l 2
 395 634 389 634 389 649 c 0
 389 664 394 664 407 664 c 0
 423 664 462 661 492 661 c 0
 521 661 600 664 619 664 c 0
 632 664 634 663 634 646 c 0
 634 634 631 634 615 634 c 2
 542 634 l 2
 540 634 539 627 539 615 c 0
 539 603 601 72 607 72 c 0
 618 72 859 557 890 618 c 0
 898 634 892 634 884 634 c 2
 820 634 l 2
 808 634 802 634 802 649 c 0
 802 664 806 664 819 664 c 0
 831 664 861 661 915 661 c 0
 930 661 965 664 975 664 c 0
 988 664 990 663 990 646 c 0
 990 634 987 634 971 634 c 0
 939 634 944 634 933 613 c 0
 869 489 806 364 739 244 c 2
 651 88 l 2
 643 73 623 56 597 16 c 0
 591 7 573 -17 560 -17 c 0
 549 -17 547 -8 540 44 c 0
 528 128 500 306 478 438 c 1
 283 88 l 2
 275 73 255 56 229 16 c 0
 223 7 207 -17 194 -17 c 0
 183 -17 181 -8 174 44 c 0
 152 204 86 634 78 634 c 2
 38 634 l 2
 26 634 20 634 20 649 c 0
EndSplineSet
Position2: "'cpsp' Capital Spacing in Latin lookup 0 subtable" dx=4 dy=0 dh=8 dv=0
EndChar

StartChar: X
Encoding: 88 88 57
Width: 661
GlyphClass: 2
Flags: MW
HStem: -3 30<36 41.5 178 180 180 188 396 403.5 600 608 608 614> 634 30<109 115 115 123 108.5 158 300.5 308 477 485 485 492.5 617 625>
LayerCount: 2
Back
Fore
SplineSet
20 12 m 0
 20 27 24 27 36 27 c 2
 62 27 l 2
 74 27 192 193 301 325 c 0
 311 337 311 333 305 346 c 2
 180 600 l 2
 169 622 162 634 158 634 c 2
 115 634 l 2
 103 634 97 634 97 649 c 0
 97 664 102 664 115 664 c 0
 131 664 180 661 210 661 c 0
 240 661 289 664 312 664 c 0
 325 664 326 663 326 646 c 0
 326 634 324 634 308 634 c 2
 267 634 l 2
 252 634 254 634 259 619 c 0
 264 603 303 512 344 426 c 0
 354 405 362 387 364 387 c 0
 366 387 377 402 394 426 c 0
 447 500 534 617 534 630 c 0
 534 633 533 634 531 634 c 2
 485 634 l 2
 469 634 467 634 467 646 c 0
 467 663 468 664 481 664 c 0
 504 664 519 661 549 661 c 0
 579 661 609 664 625 664 c 0
 638 664 641 664 641 649 c 0
 641 634 637 634 625 634 c 2
 596 634 l 2
 588 634 382 367 382 367 c 2
 377 360 376 359 381 351 c 0
 422 277 549 27 561 27 c 2
 608 27 l 2
 620 27 626 27 626 12 c 0
 626 -3 621 -3 608 -3 c 0
 592 -3 538 0 508 0 c 0
 478 0 415 -3 392 -3 c 0
 379 -3 378 -2 378 15 c 0
 378 27 380 27 396 27 c 2
 443 27 l 2
 458 27 458 28 452 42 c 0
 428 99 360 234 327 304 c 0
 322 314 321 310 312 299 c 0
 279 257 126 52 126 31 c 0
 126 28 129 27 139 27 c 2
 180 27 l 2
 196 27 198 27 198 15 c 0
 198 -2 197 -3 184 -3 c 0
 172 -3 129 0 99 0 c 0
 69 0 47 -3 36 -3 c 0
 23 -3 20 -3 20 12 c 0
EndSplineSet
Position2: "'cpsp' Capital Spacing in Latin lookup 0 subtable" dx=4 dy=0 dh=8 dv=0
EndChar

StartChar: Y
Encoding: 89 89 58
Width: 613
GlyphClass: 2
Flags: MW
HStem: 0 27 639 30<32 38 38 46 31.5 85 215.5 223 421 429 429 436.5 569 577>
LayerCount: 2
Back
Fore
SplineSet
20 654 m 0
 20 669 25 669 38 669 c 0
 54 669 109 666 139 666 c 0
 169 666 204 669 227 669 c 0
 240 669 241 668 241 651 c 0
 241 639 239 639 223 639 c 2
 192 639 l 2
 177 639 180 639 184 624 c 0
 200 571 259 428 287 359 c 0
 291 351 292 347 295 347 c 0
 299 347 305 355 311 365 c 0
 358 436 482 612 482 636 c 0
 482 638 483 639 482 639 c 2
 429 639 l 2
 413 639 411 639 411 651 c 0
 411 668 412 669 425 669 c 0
 448 669 473 666 503 666 c 0
 533 666 561 669 577 669 c 0
 590 669 593 669 593 654 c 0
 593 639 589 639 577 639 c 2
 541 639 l 2
 536 639 375 419 318 332 c 0
 314 325 312 319 310 310 c 0
 289 186 266 45 266 40 c 0
 266 32 265 27 271 27 c 2
 334 27 l 2
 345 27 345 26 345 14 c 0
 345 -1 344 -3 334 -3 c 0
 311 -3 259 0 229 0 c 0
 199 0 158 -3 135 -3 c 0
 122 -3 121 0 121 13 c 0
 121 25 123 27 139 27 c 2
 181 27 l 2
 188 27 194 72 226 260 c 0
 231 287 231 296 231 301 c 0
 231 307 85 639 85 639 c 1
 38 639 l 2
 26 639 20 639 20 654 c 0
EndSplineSet
Position2: "'cpsp' Capital Spacing in Latin lookup 0 subtable" dx=4 dy=0 dh=8 dv=0
EndChar

StartChar: Z
Encoding: 90 90 59
Width: 599
GlyphClass: 2
Flags: MW
HStem: 0 32 629 32<174 552 204 441>
VStem: 93 34 117 30<680 681 668 681.5>
LayerCount: 2
Back
Fore
SplineSet
35 15 m 0xd0
 35 27 465 621 465 626 c 0
 465 629 460 629 441 629 c 2
 185 629 l 2
 163 629 143 629 141 619 c 0
 136 596 128 548 127 544 c 0
 125 536 125 534 119 533 c 2
 114 533 l 2
 105 533 93 535 93 540 c 0xe0
 93 547 111 621 117 680 c 0
 117 683 121 686 133 686 c 0
 140 686 147 685 147 681 c 2
 147 672 l 2
 147 664 157 661 204 661 c 2
 552 661 l 2
 564 661 569 659 569 646 c 0
 569 642 480 512 382 371 c 0
 275 217 158 52 158 42 c 0
 158 39 161 32 169 32 c 2
 473 35 l 2
 481 35 489 37 494 50 c 0
 499 64 506 90 517 139 c 0
 518 144 524 147 531 147 c 0
 546 147 551 142 551 135 c 0
 551 130 525 38 518 8 c 0
 516 -1 506 -3 496 -3 c 0
 384 -3 147 0 43 0 c 0
 36 0 35 1 35 15 c 0xd0
EndSplineSet
Position2: "'cpsp' Capital Spacing in Latin lookup 0 subtable" dx=4 dy=0 dh=8 dv=0
EndChar

StartChar: bracketleft
Encoding: 91 91 60
Width: 296
GlyphClass: 2
Flags: MW
HStem: -141 36<138 243 138 243> 654 36<131.5 138 138 243>
VStem: 80 45<-98 -93 -93 642>
LayerCount: 2
Back
Fore
SplineSet
80 -126 m 2
 80 675 l 2
 80 686 81 690 92 690 c 2
 243 690 l 2
 255 690 256 689 256 681 c 2
 256 667 l 2
 256 654 254 654 243 654 c 2
 138 654 l 2
 125 654 125 652 125 642 c 2
 125 -93 l 2
 125 -103 125 -105 138 -105 c 2
 243 -105 l 2
 254 -105 256 -105 256 -118 c 2
 256 -130 l 2
 256 -138 255 -141 243 -141 c 2
 93 -141 l 2
 81 -141 80 -140 80 -126 c 2
EndSplineSet
Substitution2: "'case' Case-Sensitive Forms in Latin lookup 14 subtable" bracketleft.u
Substitution2: "'subs' Subscript in Latin lookup 10 subtable" bracketleft.sub
Substitution2: "'sups' Superscript in Latin lookup 9 subtable" bracketleft.sup
Substitution2: "'dnom' Denominators in Latin lookup 6 subtable" bracketleft.denom
Substitution2: "'numr' Numerators in Latin lookup 5 subtable" bracketleft.numer
AlternateSubs2: "'aalt' Access All Alternates in Latin lookup 1 subtable" bracketleft.u bracketleft.sub bracketleft.sup bracketleft.denom bracketleft.numer
AlternateSubs2: "'aalt' Access All Alternates lookup 0 subtable" bracketleft.u bracketleft.sub bracketleft.sup bracketleft.denom bracketleft.numer
EndChar

StartChar: backslash
Encoding: 92 92 61
Width: 406
GlyphClass: 2
Flags: MW
VStem: 338 58<-226.5 -202>
LayerCount: 2
Back
Fore
SplineSet
10 693 m 0
 10 703 22 705 31 705 c 0
 49 705 55 702 60 687 c 0
 62 680 377 -163 377 -163 c 2
 385 -186 396 -211 396 -220 c 0
 396 -233 382 -233 370 -233 c 0
 355 -233 349 -233 338 -202 c 2
 24 649 l 2
 19 662 10 684 10 693 c 0
EndSplineSet
EndChar

StartChar: bracketright
Encoding: 93 93 62
Width: 296
GlyphClass: 2
Flags: MW
HStem: -141 36<47 158 53 158 158 164.5 53 204> 654 36<47.5 203 53 158>
VStem: 171 45<-93 642 642 647>
LayerCount: 2
Back
Fore
SplineSet
40 -118 m 2
 40 -105 42 -105 53 -105 c 2
 158 -105 l 2
 171 -105 171 -103 171 -93 c 2
 171 642 l 2
 171 652 171 654 158 654 c 2
 53 654 l 2
 42 654 40 654 40 667 c 2
 40 679 l 2
 40 687 41 690 53 690 c 2
 203 690 l 2
 215 690 216 689 216 675 c 2
 216 -126 l 2
 216 -137 215 -141 204 -141 c 2
 53 -141 l 2
 41 -141 40 -140 40 -132 c 2
 40 -118 l 2
EndSplineSet
Substitution2: "'case' Case-Sensitive Forms in Latin lookup 14 subtable" bracketright.u
Substitution2: "'subs' Subscript in Latin lookup 10 subtable" bracketright.sub
Substitution2: "'sups' Superscript in Latin lookup 9 subtable" bracketright.sup
Substitution2: "'dnom' Denominators in Latin lookup 6 subtable" bracketright.denom
Substitution2: "'numr' Numerators in Latin lookup 5 subtable" bracketright.numer
AlternateSubs2: "'aalt' Access All Alternates in Latin lookup 1 subtable" bracketright.u bracketright.sub bracketright.sup bracketright.denom bracketright.numer
AlternateSubs2: "'aalt' Access All Alternates lookup 0 subtable" bracketright.u bracketright.sub bracketright.sup bracketright.denom bracketright.numer
EndChar

StartChar: asciicircum
Encoding: 94 94 63
Width: 402
GlyphClass: 2
Flags: MW
HStem: 311 320<51 197 103 197 197 303 197 355>
VStem: 51 304<311 311>
LayerCount: 2
Back
Fore
SplineSet
51 311 m 1
 197 631 l 2
 199 632 201 632 203 632 c 0
 205 632 207 632 209 631 c 2
 355 311 l 1
 345 309 340 308 329 308 c 0
 319 308 314 309 303 311 c 1
 201 543 l 1
 103 311 l 1
 91 309 89 308 75 308 c 0
 64 308 60 309 51 311 c 1
EndSplineSet
EndChar

StartChar: underscore
Encoding: 95 95 64
Width: 410
GlyphClass: 2
Flags: MW
HStem: -70 45<32.5 372 41 372 41 372>
LayerCount: 2
Back
Fore
SplineSet
25 -43 m 2
 25 -30 30 -25 41 -25 c 2
 372 -25 l 2
 385 -25 385 -33 385 -42 c 2
 385 -47 l 2
 385 -55 383 -70 372 -70 c 2
 38 -70 l 2
 27 -70 25 -65 25 -51 c 2
 25 -43 l 2
EndSplineSet
EndChar

StartChar: grave
Encoding: 96 96 65
Width: 400
GlyphClass: 2
Flags: MW
HStem: 449 157<150 196 150 211>
VStem: 128 87
LayerCount: 2
Back
Fore
SplineSet
128 575 m 0
 128 594 138 606 162 606 c 0
 175 606 185 597 188 582 c 2
 214 457 l 2
 214 455 215 452 215 451 c 0
 215 450 214 449 211 449 c 2
 196 449 l 2
 193 449 191 451 189 455 c 2
 132 562 l 2
 129 567 128 571 128 575 c 0
EndSplineSet
EndChar

StartChar: a
Encoding: 97 97 66
Width: 433
GlyphClass: 2
Flags: MW
HStem: -11 54 347 40<198 247>
VStem: 25 69<85 117> 254 65<5 85> 343 57<372 373>
LayerCount: 2
Back
Fore
SplineSet
25 59 m 0
 25 175 102 387 252 387 c 0
 275 387 295 376 308 357 c 0
 317 344 323 329 328 329 c 0
 331 329 343 371 343 373 c 0
 346 381 365 382 379 384 c 0
 389 385 400 383 400 379 c 0
 400 365 319 107 319 63 c 0
 319 53 323 43 333 43 c 0
 348 43 394 99 397 99 c 0
 401 99 408 93 408 85 c 0
 408 81 324 -11 281 -11 c 0
 265 -11 254 -3 254 13 c 0
 254 55 311 226 311 226 c 1
 311 226 256 125 186 52 c 0
 151 16 127 -10 90 -10 c 0
 47 -10 25 21 25 59 c 0
94 96 m 0
 94 74 97 43 120 43 c 0
 156 43 249 153 299 235 c 0
 311 254 314 284 314 289 c 0
 314 327 262 347 232 347 c 0
 164 347 94 177 94 96 c 0
EndSplineSet
Substitution2: "'subs' Subscript in Latin lookup 10 subtable" a.sub
Substitution2: "'sups' Superscript in Latin lookup 9 subtable" a.sup
Substitution2: "'dnom' Denominators in Latin lookup 6 subtable" a.denom
Substitution2: "'numr' Numerators in Latin lookup 5 subtable" a.numer
AlternateSubs2: "'aalt' Access All Alternates in Latin lookup 1 subtable" a.sub a.sup a.denom a.numer
AlternateSubs2: "'aalt' Access All Alternates lookup 0 subtable" a.sub a.sup a.denom a.numer
EndChar

StartChar: b
Encoding: 98 98 67
Width: 453
GlyphClass: 2
Flags: MW
HStem: -8 28<156 212> 4 21G<31 39.5> 341 47<317.5 333.5> 662 20G<200 208>
VStem: 25 87<10 96> 133 83<605.5 675.5> 359 69<246.5 294.5>
LayerCount: 2
Back
Fore
SplineSet
25 12 m 0x7e
 25 20 36 32 38 35 c 0
 44 43 44 45 46 54 c 0
 88 278 133 588 133 623 c 0
 133 627 131 630 126 630 c 0
 119 630 51 608 44 608 c 0
 37 608 35 615 35 633 c 0
 35 638 35 643 40 644 c 0
 101 659 196 682 204 682 c 0
 212 682 216 679 216 672 c 0
 216 664 183 452 176 414 c 0
 164 345 127 163 127 163 c 1
 127 163 178 248 214 296 c 0
 258 355 285 388 350 388 c 0
 382 388 402 377 414 365 c 0
 426 353 428 339 428 323 c 0
 428 118 254 -8 170 -8 c 0
 124 -8 91 20 82 20 c 0xbe
 79 20 70 16 62 12 c 0
 57 10 44 4 35 4 c 0
 27 4 25 8 25 12 c 0x7e
112 80 m 0
 112 50 132 20 180 20 c 0
 269 20 359 211 359 282 c 0
 359 307 350 341 317 341 c 0
 279 341 254 310 234 282 c 0
 167 189 112 112 112 80 c 0
EndSplineSet
Substitution2: "'subs' Subscript in Latin lookup 10 subtable" b.sub
Substitution2: "'sups' Superscript in Latin lookup 9 subtable" b.sup
Substitution2: "'dnom' Denominators in Latin lookup 6 subtable" b.denom
Substitution2: "'numr' Numerators in Latin lookup 5 subtable" b.numer
AlternateSubs2: "'aalt' Access All Alternates in Latin lookup 1 subtable" b.sub b.sup b.denom b.numer
AlternateSubs2: "'aalt' Access All Alternates lookup 0 subtable" b.sub b.sup b.denom b.numer
EndChar

StartChar: c
Encoding: 99 99 68
Width: 402
GlyphClass: 2
Flags: MW
HStem: -9 49<143.5 211.5> 364 27<224 260>
VStem: 25 65<131 168 131 209.5> 290 64<312 316 290.5 327.5>
LayerCount: 2
Back
Fore
SplineSet
25 128 m 0
 25 291 151 391 246 391 c 0
 283 391 313 381 332 360 c 0
 345 346 354 328 354 304 c 0
 354 277 337 255 311 255 c 0
 295 255 289 273 289 292 c 0
 289 300 290 308 290 316 c 0
 290 339 277 364 243 364 c 0
 205 364 163 337 137 297 c 0
 107 252 90 192 90 144 c 0
 90 118 91 40 196 40 c 0
 283 40 351 118 358 118 c 0
 362 118 370 110 370 104 c 0
 370 98 261 -9 162 -9 c 0
 55 -9 25 63 25 128 c 0
EndSplineSet
Substitution2: "'subs' Subscript in Latin lookup 10 subtable" c.sub
Substitution2: "'sups' Superscript in Latin lookup 9 subtable" c.sup
Substitution2: "'dnom' Denominators in Latin lookup 6 subtable" c.denom
Substitution2: "'numr' Numerators in Latin lookup 5 subtable" c.numer
AlternateSubs2: "'aalt' Access All Alternates in Latin lookup 1 subtable" c.sub c.sup c.denom c.numer
AlternateSubs2: "'aalt' Access All Alternates lookup 0 subtable" c.sub c.sup c.denom c.numer
EndChar

StartChar: d
Encoding: 100 100 69
Width: 473
GlyphClass: 2
Flags: MW
HStem: -7 52<306.5 385> 357 22<195.5 262.5> 608 34 659 20G<443.5 449>
VStem: 25 66<83.5 116.5> 287 70<17 86>
LayerCount: 2
Back
Fore
SplineSet
25 74 m 0
 25 159 99 379 240 379 c 0
 290 379 317 360 327 356 c 0
 339 351 341 352 344 366 c 0
 357 436 380 608 381 612 c 0
 383 619 384 629 377 629 c 0
 373 629 293 608 288 608 c 0
 284 608 283 612 285 629 c 0
 286 640 288 640 295 642 c 0
 385 661 441 679 446 679 c 0
 452 679 457 677 457 664 c 0
 457 649 357 112 357 60 c 0
 357 47 365 45 370 45 c 0
 400 45 459 118 463 118 c 0
 467 118 473 112 473 110 c 0
 473 105 395 -7 314 -7 c 0
 299 -7 287 6 287 28 c 0
 287 69 328 237 328 237 c 1
 328 237 290 165 239 98 c 0
 200 46 163 -4 102 -4 c 0
 86 -4 25 0 25 74 c 0
91 102 m 0
 91 65 103 46 137 46 c 0
 174 46 228 118 275 186 c 0
 296 218 329 266 329 304 c 0
 329 321 285 357 240 357 c 0
 151 357 91 176 91 102 c 0
EndSplineSet
Substitution2: "'subs' Subscript in Latin lookup 10 subtable" d.sub
Substitution2: "'sups' Superscript in Latin lookup 9 subtable" d.sup
Substitution2: "'dnom' Denominators in Latin lookup 6 subtable" d.denom
Substitution2: "'numr' Numerators in Latin lookup 5 subtable" d.numer
AlternateSubs2: "'aalt' Access All Alternates in Latin lookup 1 subtable" d.sub d.sup d.denom d.numer
AlternateSubs2: "'aalt' Access All Alternates lookup 0 subtable" d.sub d.sup d.denom d.numer
EndChar

StartChar: e
Encoding: 101 101 70
Width: 390
GlyphClass: 2
Flags: MW
HStem: -5 40<159 210.5> 170 23<112 118> 367 24<213 262.5>
VStem: 25 66<91 137.5 91 180.5> 298 65<294.5 338.5>
LayerCount: 2
Back
Fore
SplineSet
25 105 m 0
 25 256 138 391 270 391 c 0
 312 391 363 378 363 325 c 0
 363 264 304 218 240 194 c 0
 191 176 137 170 99 170 c 0
 94 170 91 151 91 124 c 0
 91 58 131 35 187 35 c 0
 281 35 350 122 357 122 c 0
 362 122 370 114 370 108 c 0
 370 104 270 -5 151 -5 c 0
 83 -5 25 28 25 105 c 0
106 200 m 0
 106 196 108 193 116 193 c 0
 210 193 298 242 298 326 c 0
 298 351 277 367 248 367 c 0
 178 367 140 298 120 245 c 0
 114 230 106 203 106 200 c 0
EndSplineSet
Substitution2: "'subs' Subscript in Latin lookup 10 subtable" e.sub
Substitution2: "'sups' Superscript in Latin lookup 9 subtable" e.sup
Substitution2: "'dnom' Denominators in Latin lookup 6 subtable" e.denom
Substitution2: "'numr' Numerators in Latin lookup 5 subtable" e.numer
AlternateSubs2: "'aalt' Access All Alternates in Latin lookup 1 subtable" e.sub e.sup e.denom e.numer
AlternateSubs2: "'aalt' Access All Alternates lookup 0 subtable" e.sub e.sup e.denom e.numer
EndChar

StartChar: f
Encoding: 102 102 71
Width: 284
GlyphClass: 2
Flags: MW
HStem: -276 53<-73.5 28> 347 25<39 117 44 117 117 118 197 275> 641 40<259.5 377.5>
LayerCount: 2
Back
Fore
SplineSet
-125 -240 m 0
 -125 -222 -96 -199 -76 -199 c 0
 -50 -199 -29 -223 5 -223 c 0
 51 -223 61 -104 69 -54 c 0
 92 91 122 330 122 336 c 0
 122 340 123 347 118 347 c 2
 42 347 l 2
 36 347 35 347 35 353 c 0
 35 357 36 362 37 366 c 0
 38 371 39 372 44 372 c 2
 117 372 l 2
 126 372 126 372 127 384 c 0
 129 406 140 489 169 541 c 0
 181 562 211 619 270 653 c 0
 294 667 329 681 361 681 c 0
 394 681 434 659 434 645 c 0
 434 627 400 604 380 604 c 0
 354 604 333 641 299 641 c 0
 220 641 196 429 189 378 c 0
 188 374 193 372 197 372 c 2
 279 372 l 2
 283 372 284 371 284 370 c 0
 284 366 283 359 282 356 c 0
 281 350 280 347 275 347 c 2
 195 347 l 2
 186 347 187 347 185 336 c 0
 178 289 147 59 128 -54 c 0
 125 -73 99 -185 34 -234 c 0
 12 -250 -19 -276 -57 -276 c 0
 -90 -276 -125 -254 -125 -240 c 0
EndSplineSet
Substitution2: "'subs' Subscript in Latin lookup 10 subtable" f.sub
Substitution2: "'sups' Superscript in Latin lookup 9 subtable" f.sup
Substitution2: "'dnom' Denominators in Latin lookup 6 subtable" f.denom
Substitution2: "'numr' Numerators in Latin lookup 5 subtable" f.numer
AlternateSubs2: "'aalt' Access All Alternates in Latin lookup 1 subtable" f.sub f.sup f.denom f.numer
AlternateSubs2: "'aalt' Access All Alternates lookup 0 subtable" f.sub f.sup f.denom f.numer
EndChar

StartChar: g
Encoding: 103 103 72
Width: 426
GlyphClass: 2
Flags: MW
HStem: -251 29<177 229.5> 376 23<199.5 259.5>
VStem: -6 42<-181.5 -129.5 -181.5 -127> 54 50<-4 49.5> 60 63<184 257.5 183.5 277> 314 62<244 273.5 244 302> 344 61<-159 -109.5> 364 48
LayerCount: 2
Back
Fore
SplineSet
-6 -157 m 0xf2
 -6 -97 58 -60 85 -48 c 0
 93 -44 97 -42 97 -40 c 0
 97 -37 86 -35 79 -30 c 0
 65 -20 54 -11 54 3 c 0xf2
 54 11 86 65 99 70 c 2
 159 92 l 2
 164 94 171 95 158 99 c 0
 129 108 60 138 60 230 c 0
 60 324 139 399 237 399 c 0
 303 399 333 354 336 354 c 0
 340 354 358 400 364 411 c 0
 368 418 372 420 385 420 c 0
 396 420 412 416 412 409 c 0xe9
 412 382 366 325 366 320 c 0
 366 317 367 312 369 307 c 0
 374 294 376 280 376 267 c 0xe4
 376 221 354 174 323 146 c 0
 285 111 253 102 197 87 c 0
 155 75 104 59 104 40 c 0
 104 11 196 1 274 -11 c 0
 347 -23 405 -40 405 -106 c 0
 405 -212 294 -251 165 -251 c 0
 87 -251 -6 -233 -6 -157 c 0xf2
36 -151 m 0
 36 -212 150 -222 204 -222 c 0
 282 -222 344 -195 344 -133 c 0
 344 -86 296 -74 240 -64 c 0
 194 -56 139 -47 133 -47 c 0
 122 -47 112 -53 101 -58 c 0
 65 -76 36 -108 36 -151 c 0
123 229 m 0xec
 123 138 173 115 197 115 c 0
 245 115 314 183 314 279 c 0
 314 325 283 376 236 376 c 0
 163 376 123 286 123 229 c 0xec
EndSplineSet
Substitution2: "'subs' Subscript in Latin lookup 10 subtable" g.sub
Substitution2: "'sups' Superscript in Latin lookup 9 subtable" g.sup
Substitution2: "'dnom' Denominators in Latin lookup 6 subtable" g.denom
Substitution2: "'numr' Numerators in Latin lookup 5 subtable" g.numer
AlternateSubs2: "'aalt' Access All Alternates in Latin lookup 1 subtable" g.sub g.sup g.denom g.numer
AlternateSubs2: "'aalt' Access All Alternates lookup 0 subtable" g.sub g.sup g.denom g.numer
EndChar

StartChar: h
Encoding: 104 104 73
Width: 468
GlyphClass: 2
Flags: MW
HStem: 0 45<296.5 369> 346 37<313.5 317> 638 37
VStem: 25 66<9 9 9 11.5> 267 68<26.5 81.5> 340 62<302.5 318>
LayerCount: 2
Back
Fore
SplineSet
25 6 m 0
 25 17 89 270 123 619 c 0
 124 630 121 638 119 638 c 0
 102 638 36 611 32 611 c 0
 30 611 29 619 29 625 c 0
 29 633 32 639 36 641 c 0
 77 656 167 675 191 675 c 0
 197 675 197 670 197 660 c 0
 192 563 131 257 104 123 c 1
 104 123 151 233 219 315 c 0
 248 350 284 383 343 383 c 0
 375 383 402 369 402 335 c 0
 402 270 335 96 335 67 c 0
 335 56 342 45 356 45 c 0
 382 45 447 132 451 132 c 0
 454 132 463 124 463 122 c 0
 463 117 384 0 308 0 c 0
 285 0 267 15 267 38 c 0
 267 71 340 255 340 307 c 0
 340 329 328 346 306 346 c 0
 257 346 206 267 165 199 c 0
 143 162 120 125 111 91 c 2
 91 9 l 2
 89 0 36 -2 33 -2 c 0
 27 -2 25 1 25 6 c 0
EndSplineSet
Substitution2: "'subs' Subscript in Latin lookup 10 subtable" h.sub
Substitution2: "'sups' Superscript in Latin lookup 9 subtable" h.sup
Substitution2: "'dnom' Denominators in Latin lookup 6 subtable" h.denom
Substitution2: "'numr' Numerators in Latin lookup 5 subtable" h.numer
AlternateSubs2: "'aalt' Access All Alternates in Latin lookup 1 subtable" h.sub h.sup h.denom h.numer
AlternateSubs2: "'aalt' Access All Alternates lookup 0 subtable" h.sub h.sup h.denom h.numer
EndChar

StartChar: i
Encoding: 105 105 74
Width: 270
GlyphClass: 2
Flags: MW
HStem: -6 61<79 153.5> 328 55<106 181> 501 94<157.5 183.5 156 184>
VStem: 60 71<4.5 89> 128 85<538.5 557.5 534 562> 131 65<279.5 369.5>
LayerCount: 2
Back
Fore
SplineSet
25 282 m 0xe4
 25 288 139 383 176 383 c 0
 186 383 196 378 196 361 c 0xe4
 196 314 131 103 131 75 c 0
 131 65 131 55 144 55 c 0
 163 55 220 119 223 119 c 0
 227 119 235 110 235 107 c 0
 235 93 115 -6 84 -6 c 0
 74 -6 60 -3 60 12 c 0xf0
 60 63 131 249 131 310 c 0
 131 320 129 328 119 328 c 0
 93 328 42 269 37 269 c 0
 32 269 25 277 25 282 c 0xe4
128 549 m 0xe8
 128 575 143 595 169 595 c 0
 198 595 213 568 213 547 c 0
 213 521 196 501 172 501 c 0
 143 501 128 528 128 549 c 0xe8
EndSplineSet
Substitution2: "'subs' Subscript in Latin lookup 10 subtable" i.sub
Substitution2: "'sups' Superscript in Latin lookup 9 subtable" i.sup
Substitution2: "'dnom' Denominators in Latin lookup 6 subtable" i.denom
Substitution2: "'numr' Numerators in Latin lookup 5 subtable" i.numer
Substitution2: "'locl' Localized Forms in Latin lookup 4 subtable" i.TRK
AlternateSubs2: "'aalt' Access All Alternates in Latin lookup 1 subtable" i.sub i.sup i.denom i.numer i.TRK
AlternateSubs2: "'aalt' Access All Alternates lookup 0 subtable" i.sub i.sup i.denom i.numer
EndChar

StartChar: j
Encoding: 106 106 75
Width: 297
GlyphClass: 2
Flags: MW
HStem: -255 45<-31 55> 328 55<133 208> 531 94<186.5 212.5 185 213>
VStem: 157 85<568.5 587.5 564 592> 158 66<296.5 367.5>
LayerCount: 2
Back
Fore
SplineSet
-69 -221 m 0xe8
 -69 -201 -54 -185 -34 -185 c 0
 2 -185 7 -210 41 -210 c 0
 69 -210 79 -159 91 -102 c 0
 117 26 158 283 158 310 c 0
 158 320 156 328 146 328 c 0
 120 328 52 239 47 239 c 0
 42 239 35 245 35 250 c 0
 35 256 148 383 203 383 c 0
 213 383 224 376 224 359 c 0
 224 312 173 27 169 -3 c 0
 159 -63 142 -165 73 -217 c 0
 51 -233 16 -255 -14 -255 c 0
 -48 -255 -69 -236 -69 -221 c 0xe8
157 579 m 0xf0
 157 605 172 625 198 625 c 0
 227 625 242 598 242 577 c 0
 242 551 225 531 201 531 c 0
 172 531 157 558 157 579 c 0xf0
EndSplineSet
Substitution2: "'subs' Subscript in Latin lookup 10 subtable" j.sub
Substitution2: "'sups' Superscript in Latin lookup 9 subtable" j.sup
Substitution2: "'dnom' Denominators in Latin lookup 6 subtable" j.denom
Substitution2: "'numr' Numerators in Latin lookup 5 subtable" j.numer
AlternateSubs2: "'aalt' Access All Alternates in Latin lookup 1 subtable" j.sub j.sup j.denom j.numer
AlternateSubs2: "'aalt' Access All Alternates lookup 0 subtable" j.sub j.sup j.denom j.numer
EndChar

StartChar: k
Encoding: 107 107 76
Width: 450
GlyphClass: 2
Flags: MW
HStem: -2 39<332.5 401.5> 348 33<303 308> 613 28<51 51> 659 20G<196 204>
VStem: 133 81<623 673> 169 42<173.5 185.5> 329 68<304 334.5> 423 27<57 67.5>
LayerCount: 2
Back
Fore
SplineSet
25 -3 m 0xf7
 25 24 107 352 133 623 c 0
 133 627 131 632 126 632 c 0
 119 632 58 615 51 613 c 0
 43 611 42 614 44 632 c 0
 45 637 45 640 50 641 c 0
 146 664 192 679 200 679 c 0
 208 679 214 678 214 668 c 0xfb
 214 648 133 257 117 179 c 1
 117 179 153 248 189 296 c 0
 229 349 268 381 338 381 c 0
 369 381 397 371 397 344 c 0
 397 252 281 200 232 189 c 0
 226 188 211 186 211 185 c 0
 211 184 225 179 238 167 c 0
 263 143 302 101 311 90 c 0
 336 59 353 37 389 37 c 0
 414 37 423 50 423 64 c 0
 423 71 421 78 421 84 c 0
 421 91 424 96 429 96 c 0
 437 96 450 86 450 53 c 0
 450 21 378 -2 339 -2 c 0
 326 -2 313 2 296 18 c 0
 271 41 246 79 219 113 c 0
 194 145 169 172 169 175 c 0
 169 180 184 195 186 197 c 0
 188 199 191 199 196 199 c 0
 204 199 214 200 224 204 c 0
 269 224 329 280 329 328 c 0
 329 341 318 348 298 348 c 0
 274 348 256 336 235 316 c 0
 203 286 172 234 135 178 c 0
 123 159 116 142 111 120 c 0
 105 95 94 46 90 22 c 0
 87 3 86 0 80 0 c 0
 78 0 41 -6 30 -6 c 0
 26 -6 25 -6 25 -3 c 0xf7
EndSplineSet
Substitution2: "'subs' Subscript in Latin lookup 10 subtable" k.sub
Substitution2: "'sups' Superscript in Latin lookup 9 subtable" k.sup
Substitution2: "'dnom' Denominators in Latin lookup 6 subtable" k.denom
Substitution2: "'numr' Numerators in Latin lookup 5 subtable" k.numer
AlternateSubs2: "'aalt' Access All Alternates in Latin lookup 1 subtable" k.sub k.sup k.denom k.numer
AlternateSubs2: "'aalt' Access All Alternates lookup 0 subtable" k.sub k.sup k.denom k.numer
EndChar

StartChar: l
Encoding: 108 108 77
Width: 272
GlyphClass: 2
Flags: MW
HStem: -10 57<76.5 155> 659 20G<214.5 220.5>
VStem: 55 72<14 72.5> 150 77
LayerCount: 2
Back
Fore
SplineSet
55 28 m 0
 55 46 125 402 150 612 c 0
 152 625 150 631 136 627 c 0
 114 621 66 609 62 609 c 0
 58 609 57 612 59 629 c 0
 60 640 62 640 69 642 c 0
 159 662 212 679 217 679 c 0
 224 679 227 675 227 670 c 0
 227 649 127 77 127 68 c 0
 127 50 136 47 141 47 c 0
 169 47 237 131 241 131 c 0
 245 131 257 120 257 118 c 0
 257 113 152 -10 84 -10 c 0
 69 -10 55 0 55 28 c 0
EndSplineSet
Substitution2: "'subs' Subscript in Latin lookup 10 subtable" l.sub
Substitution2: "'sups' Superscript in Latin lookup 9 subtable" l.sup
Substitution2: "'dnom' Denominators in Latin lookup 6 subtable" l.denom
Substitution2: "'numr' Numerators in Latin lookup 5 subtable" l.numer
Substitution2: "'locl' Localized Forms in Latin lookup 2 subtable" l.CAT
AlternateSubs2: "'aalt' Access All Alternates in Latin lookup 1 subtable" l.sub l.sup l.denom l.numer l.CAT
AlternateSubs2: "'aalt' Access All Alternates lookup 0 subtable" l.sub l.sup l.denom l.numer
EndChar

StartChar: m
Encoding: 109 109 78
Width: 739
GlyphClass: 2
Flags: MW
HStem: -11 21G<93 98.5> -4 53<551 629> 333 46<334 404.5>
VStem: 135 68<262.5 362.5> 304 64 362 65<290.5 307> 526 75<17 92.5> 604 70<283.5 353.5>
LayerCount: 2
Back
Fore
SplineSet
15 255 m 0xbb
 15 265 136 373 185 373 c 0
 195 373 203 371 203 354 c 0
 203 293 182 201 168 117 c 1
 234 269 312 379 393 379 c 0
 416 379 427 355 427 332 c 0xb7
 427 249 370 81 370 81 c 1
 409 152 517 379 623 379 c 0
 668 379 674 362 674 345 c 0
 674 293 601 112 601 73 c 0
 601 65 604 49 619 49 c 0
 639 49 708 131 712 131 c 0
 716 131 724 122 724 119 c 0
 724 113 616 -4 561 -4 c 0
 541 -4 526 9 526 25 c 0
 526 65 604 253 604 314 c 0
 604 324 597 336 583 336 c 0
 554 336 502 271 458 203 c 0
 417 140 390 91 368 15 c 0
 366 7 361 4 354 3 c 0
 338 1 324 0 312 0 c 0
 307 0 304 2 304 7 c 0x7b
 304 30 362 181 362 296 c 0x77
 362 318 355 333 341 333 c 0
 327 333 311 317 304 308 c 0
 273 271 239 229 196 141 c 0
 178 105 161 44 155 23 c 0
 153 16 151 6 144 3 c 0
 126 -4 102 -11 95 -11 c 0
 91 -11 89 -6 90 -1 c 0
 103 53 135 229 135 296 c 0
 135 306 131 313 121 313 c 0
 95 313 32 238 27 238 c 0
 24 238 15 240 15 255 c 0xbb
EndSplineSet
Substitution2: "'subs' Subscript in Latin lookup 10 subtable" m.sub
Substitution2: "'sups' Superscript in Latin lookup 9 subtable" m.sup
Substitution2: "'dnom' Denominators in Latin lookup 6 subtable" m.denom
Substitution2: "'numr' Numerators in Latin lookup 5 subtable" m.numer
AlternateSubs2: "'aalt' Access All Alternates in Latin lookup 1 subtable" m.sub m.sup m.denom m.numer
AlternateSubs2: "'aalt' Access All Alternates lookup 0 subtable" m.sub m.sup m.denom m.numer
EndChar

StartChar: n
Encoding: 110 110 79
Width: 515
GlyphClass: 2
Flags: MW
HStem: -6 21G<78 83.5> 1 49<330 413> 344 42<365.5 373>
VStem: 135 73<282.5 373> 308 71<66 70.5> 388 68<316 322.5>
LayerCount: 2
Back
Fore
SplineSet
15 287 m 0xbc
 15 289 127 386 187 386 c 0
 196 386 208 381 208 365 c 0
 208 304 176 202 154 118 c 1
 244 277 326 386 405 386 c 0
 450 386 456 359 456 342 c 0
 456 290 379 98 379 70 c 0
 379 62 383 50 398 50 c 0
 428 50 484 124 488 124 c 0
 492 124 500 116 500 113 c 0
 500 107 413 1 340 1 c 0x7c
 320 1 308 18 308 42 c 0
 308 99 388 254 388 315 c 0
 388 330 380 344 366 344 c 0
 328 344 236 215 187 136 c 0
 166 102 149 45 143 24 c 0
 141 17 138 -1 128 -2 c 0
 108 -4 87 -6 80 -6 c 0
 76 -6 74 -1 75 4 c 0
 88 58 135 249 135 316 c 0
 135 326 132 334 122 334 c 0
 98 334 34 270 29 270 c 0
 26 270 15 277 15 287 c 0xbc
EndSplineSet
Substitution2: "'subs' Subscript in Latin lookup 10 subtable" n.sub
Substitution2: "'sups' Superscript in Latin lookup 9 subtable" n.sup
Substitution2: "'dnom' Denominators in Latin lookup 6 subtable" n.denom
Substitution2: "'numr' Numerators in Latin lookup 5 subtable" n.numer
AlternateSubs2: "'aalt' Access All Alternates in Latin lookup 1 subtable" n.sub n.sup n.denom n.numer
AlternateSubs2: "'aalt' Access All Alternates lookup 0 subtable" n.sub n.sup n.denom n.numer
EndChar

StartChar: o
Encoding: 111 111 80
Width: 419
GlyphClass: 2
Flags: MW
HStem: -8 24<128 216 128 228> 374 23<205 281.5>
VStem: 25 62<125 190 125 211> 331 63<233 269 176.5 295>
LayerCount: 2
Back
Fore
SplineSet
25 138 m 0
 25 284 123 397 256 397 c 0
 362 397 394 300 394 238 c 0
 394 115 291 -8 165 -8 c 0
 71 -8 25 62 25 138 c 0
87 146 m 0
 87 104 89 16 167 16 c 0
 265 16 331 188 331 278 c 0
 331 312 318 374 245 374 c 0
 165 374 87 234 87 146 c 0
EndSplineSet
Substitution2: "'subs' Subscript in Latin lookup 10 subtable" o.sub
Substitution2: "'sups' Superscript in Latin lookup 9 subtable" o.sup
Substitution2: "'dnom' Denominators in Latin lookup 6 subtable" o.denom
Substitution2: "'numr' Numerators in Latin lookup 5 subtable" o.numer
AlternateSubs2: "'aalt' Access All Alternates in Latin lookup 1 subtable" o.sub o.sup o.denom o.numer
AlternateSubs2: "'aalt' Access All Alternates lookup 0 subtable" o.sub o.sup o.denom o.numer
EndChar

StartChar: p
Encoding: 112 112 81
Width: 486
GlyphClass: 2
Flags: MW
HStem: -280 39 -266 32<31 47 47 55 31 72> -7 26<230.5 279.5 230.5 285.5> 342 40<364 372.5>
VStem: 147 71<271 376> 399 62<225.5 294.5>
LayerCount: 2
Back
Fore
SplineSet
10 225 m 2x7c
 10 225 109 395 201 395 c 0
 213 395 218 388 218 364 c 0
 218 317 186 131 186 131 c 1
 213 198 233 244 286 325 c 0
 308 359 343 382 385 382 c 0
 449 382 461 342 461 291 c 0
 461 140 335 -7 236 -7 c 0
 217 -7 189 0 180 0 c 0
 174 0 168 0 167 -8 c 2
 135 -217 l 2
 133 -227 135 -240 144 -241 c 0
 207 -248 223 -244 223 -259 c 0
 223 -279 216 -280 203 -280 c 0xbc
 195 -280 115 -266 29 -266 c 0
 18 -266 12 -265 12 -256 c 0
 12 -238 15 -234 31 -234 c 2
 47 -234 l 2
 63 -234 66 -231 69 -213 c 0
 127 120 147 238 147 304 c 0
 147 314 145 322 135 322 c 0
 101 322 31 210 26 210 c 0
 21 210 10 220 10 225 c 2x7c
181 51 m 0
 181 24 216 19 245 19 c 0
 314 19 399 173 399 278 c 0
 399 311 390 342 355 342 c 0
 302 342 261 242 236 195 c 0
 204 134 181 80 181 51 c 0
EndSplineSet
Substitution2: "'subs' Subscript in Latin lookup 10 subtable" p.sub
Substitution2: "'sups' Superscript in Latin lookup 9 subtable" p.sup
Substitution2: "'dnom' Denominators in Latin lookup 6 subtable" p.denom
Substitution2: "'numr' Numerators in Latin lookup 5 subtable" p.numer
AlternateSubs2: "'aalt' Access All Alternates in Latin lookup 1 subtable" p.sub p.sup p.denom p.numer
AlternateSubs2: "'aalt' Access All Alternates lookup 0 subtable" p.sub p.sup p.denom p.numer
EndChar

StartChar: q
Encoding: 113 113 82
Width: 455
GlyphClass: 2
Flags: MW
HStem: -288 33 -281 34<267.5 329.5> -7 47<124 135> 361 20<229.5 292 196 296.5>
VStem: 25 64<80.5 120> 342 88<303 368.5>
LayerCount: 2
Back
Fore
SplineSet
25 74 m 0xbc
 25 166 118 381 274 381 c 0
 310 381 342 369 360 361 c 0
 369 357 371 355 374 355 c 0
 377 355 380 356 390 362 c 0
 395 364 408 373 420 375 c 0
 425 376 430 372 430 365 c 0
 430 359 417 334 403 304 c 0
 400 297 397 287 396 279 c 0
 360 73 306 -223 306 -236 c 0
 306 -245 312 -247 320 -247 c 0
 339 -247 353 -247 372 -249 c 0
 383 -250 384 -256 384 -265 c 0
 384 -278 385 -284 368 -284 c 0
 363 -284 326 -281 283 -281 c 0x7c
 252 -281 201 -288 196 -288 c 0
 189 -288 182 -288 183 -276 c 0
 184 -258 188 -258 204 -255 c 0
 229 -251 231 -253 236 -229 c 0
 258 -125 261 -136 329 237 c 1
 329 237 298 168 247 98 c 0
 209 45 161 -7 109 -7 c 0
 93 -7 25 0 25 74 c 0xbc
89 99 m 0
 89 62 112 40 136 40 c 0
 172 40 231 118 278 186 c 0
 299 218 342 288 342 318 c 0
 342 330 319 361 274 361 c 0
 185 361 89 173 89 99 c 0
EndSplineSet
Substitution2: "'subs' Subscript in Latin lookup 10 subtable" q.sub
Substitution2: "'sups' Superscript in Latin lookup 9 subtable" q.sup
Substitution2: "'dnom' Denominators in Latin lookup 6 subtable" q.denom
Substitution2: "'numr' Numerators in Latin lookup 5 subtable" q.numer
AlternateSubs2: "'aalt' Access All Alternates in Latin lookup 1 subtable" q.sub q.sup q.denom q.numer
AlternateSubs2: "'aalt' Access All Alternates lookup 0 subtable" q.sub q.sup q.denom q.numer
EndChar

StartChar: r
Encoding: 114 114 83
Width: 341
GlyphClass: 2
Flags: MW
HStem: -4 21G<72 80.5> 338 55<249 295>
VStem: 114 59<264.5 371>
LayerCount: 2
Back
Fore
SplineSet
25 291 m 0
 25 302 112 386 155 386 c 0
 171 386 173 376 173 366 c 0
 173 346 155 243 146 190 c 1
 150 189 l 1
 165 228 186 291 212 338 c 0
 227 366 252 393 284 393 c 0
 306 393 331 380 331 357 c 0
 331 340 325 320 309 320 c 0
 287 320 275 338 254 338 c 0
 244 338 236 332 229 321 c 0
 211 293 190 243 172 196 c 0
 166 180 164 169 161 158 c 0
 146 96 140 61 128 7 c 0
 127 1 85 -4 76 -4 c 0
 68 -4 66 -3 66 0 c 0
 66 8 114 236 114 293 c 0
 114 306 114 331 101 331 c 0
 75 331 39 280 34 280 c 0
 29 280 25 286 25 291 c 0
EndSplineSet
Substitution2: "'subs' Subscript in Latin lookup 10 subtable" r.sub
Substitution2: "'sups' Superscript in Latin lookup 9 subtable" r.sup
Substitution2: "'dnom' Denominators in Latin lookup 6 subtable" r.denom
Substitution2: "'numr' Numerators in Latin lookup 5 subtable" r.numer
AlternateSubs2: "'aalt' Access All Alternates in Latin lookup 1 subtable" r.sub r.sup r.denom r.numer
AlternateSubs2: "'aalt' Access All Alternates lookup 0 subtable" r.sub r.sup r.denom r.numer
EndChar

StartChar: s
Encoding: 115 115 84
Width: 336
GlyphClass: 2
Flags: MW
HStem: -5 26<133.5 165.5 133.5 184> 380 19<188 211.5>
VStem: 73 61<269.5 314.5> 217 62<77.5 125>
LayerCount: 2
Back
Fore
SplineSet
20 61 m 0
 20 77 36 86 44 86 c 0
 66 86 74 75 87 62 c 0
 111 38 121 21 146 21 c 0
 185 21 217 49 217 94 c 0
 217 156 73 200 73 283 c 0
 73 346 133 399 204 399 c 0
 292 399 301 346 301 335 c 0
 301 324 293 318 283 318 c 0
 259 318 245 335 235 353 c 0
 227 367 220 380 203 380 c 0
 173 380 134 366 134 317 c 0
 134 222 279 216 279 107 c 0
 279 48 220 -5 148 -5 c 0
 87 -5 20 30 20 61 c 0
EndSplineSet
Substitution2: "'hist' Historical Forms in Latin lookup 13 subtable" longs
Substitution2: "'subs' Subscript in Latin lookup 10 subtable" s.sub
Substitution2: "'sups' Superscript in Latin lookup 9 subtable" s.sup
Substitution2: "'dnom' Denominators in Latin lookup 6 subtable" s.denom
Substitution2: "'numr' Numerators in Latin lookup 5 subtable" s.numer
AlternateSubs2: "'aalt' Access All Alternates in Latin lookup 1 subtable" longs s.sub s.sup s.denom s.numer
AlternateSubs2: "'aalt' Access All Alternates lookup 0 subtable" longs s.sub s.sup s.denom s.numer
EndChar

StartChar: t
Encoding: 116 116 85
Width: 284
GlyphClass: 2
Flags: MW
HStem: -2 66<77 158> 342 30<49 51 51 98 185 254>
VStem: 132 67
LayerCount: 2
Back
Fore
SplineSet
35 346 m 0
 35 349 36 361 36 365 c 0
 36 367 38 372 44 372 c 2
 105 372 l 2
 111 372 114 372 116 380 c 0
 120 402 129 458 132 481 c 0
 134 493 135 496 150 498 c 0
 155 499 162 499 171 499 c 0
 185 499 199 498 199 494 c 0
 199 491 178 400 175 382 c 0
 174 373 174 372 185 372 c 2
 258 372 l 2
 266 372 267 369 267 364 c 0
 267 351 263 342 254 342 c 2
 181 342 l 2
 169 342 170 342 168 332 c 0
 152 246 127 94 127 85 c 0
 127 77 127 64 146 64 c 0
 170 64 251 154 255 154 c 0
 258 154 269 145 269 143 c 0
 269 138 149 -2 89 -2 c 0
 65 -2 54 9 54 32 c 0
 54 49 107 324 107 331 c 0
 107 340 110 342 98 342 c 2
 51 342 l 2
 47 342 35 342 35 346 c 0
EndSplineSet
Substitution2: "'subs' Subscript in Latin lookup 10 subtable" t.sub
Substitution2: "'sups' Superscript in Latin lookup 9 subtable" t.sup
Substitution2: "'dnom' Denominators in Latin lookup 6 subtable" t.denom
Substitution2: "'numr' Numerators in Latin lookup 5 subtable" t.numer
AlternateSubs2: "'aalt' Access All Alternates in Latin lookup 1 subtable" t.sub t.sup t.denom t.numer
AlternateSubs2: "'aalt' Access All Alternates lookup 0 subtable" t.sub t.sup t.denom t.numer
EndChar

StartChar: u
Encoding: 117 117 86
Width: 521
GlyphClass: 2
Flags: MW
HStem: -5 59<129.5 200.5> 344 47<112 181.5>
VStem: 332 63<19 99.5> 388 62<386 386>
LayerCount: 2
Back
Fore
SplineSet
15 256 m 0xe0
 15 260 58 319 97 360 c 0
 114 377 139 391 168 391 c 0
 195 391 223 380 223 355 c 0
 223 325 159 124 159 77 c 0
 159 66 165 54 187 54 c 0
 214 54 242 85 275 132 c 0
 316 191 357 268 376 331 c 0
 379 342 385 369 388 386 c 0
 389 392 399 391 441 396 c 0
 445 396 450 395 450 387 c 0xd0
 450 375 395 110 395 89 c 0
 395 79 397 64 414 64 c 0
 439 64 494 154 498 154 c 0
 502 154 506 150 506 147 c 0
 506 140 425 0 365 0 c 0
 347 0 332 11 332 27 c 0
 332 68 373 214 381 280 c 1
 380 277 347 206 312 153 c 0
 264 80 197 -5 139 -5 c 0
 120 -5 84 -1 84 37 c 0
 84 68 145 248 145 315 c 0
 145 326 144 344 125 344 c 0
 99 344 34 246 29 246 c 0
 24 246 15 251 15 256 c 0xe0
EndSplineSet
Substitution2: "'subs' Subscript in Latin lookup 10 subtable" u.sub
Substitution2: "'sups' Superscript in Latin lookup 9 subtable" u.sup
Substitution2: "'dnom' Denominators in Latin lookup 6 subtable" u.denom
Substitution2: "'numr' Numerators in Latin lookup 5 subtable" u.numer
AlternateSubs2: "'aalt' Access All Alternates in Latin lookup 1 subtable" u.sub u.sup u.denom u.numer
AlternateSubs2: "'aalt' Access All Alternates lookup 0 subtable" u.sub u.sup u.denom u.numer
EndChar

StartChar: v
Encoding: 118 118 87
Width: 443
GlyphClass: 2
Flags: MW
HStem: -5 69<194 216.5> 350 42<106 108> 371 30<333 389>
VStem: 120 60<91 117> 140 65<302.5 324> 370 48<310.5 347>
LayerCount: 2
Back
Fore
SplineSet
10 299 m 0xcc
 10 310 88 392 124 392 c 0
 135 392 156 388 166 382 c 0
 196 365 205 359 205 337 c 0xcc
 205 268 180 138 180 100 c 0
 180 82 209 64 214 64 c 0
 219 64 229 65 237 75 c 0
 244 83 256 100 268 116 c 0
 311 174 370 253 370 331 c 0
 370 363 360 371 345 371 c 0
 321 371 289 362 286 362 c 0
 285 362 280 367 280 378 c 0
 280 384 350 401 378 401 c 0
 400 401 418 396 418 361 c 0
 418 260 326 149 247 48 c 0
 240 39 230 24 224 14 c 0
 216 1 211 -5 200 -5 c 0
 188 -5 169 8 159 16 c 0
 131 38 120 50 120 97 c 0xb4
 120 137 140 256 140 319 c 0
 140 329 139 336 130 342 c 0
 123 346 110 350 106 350 c 0
 72 350 31 286 27 286 c 0
 20 286 10 295 10 299 c 0xcc
EndSplineSet
Substitution2: "'subs' Subscript in Latin lookup 10 subtable" v.sub
Substitution2: "'sups' Superscript in Latin lookup 9 subtable" v.sup
Substitution2: "'dnom' Denominators in Latin lookup 6 subtable" v.denom
Substitution2: "'numr' Numerators in Latin lookup 5 subtable" v.numer
AlternateSubs2: "'aalt' Access All Alternates in Latin lookup 1 subtable" v.sub v.sup v.denom v.numer
AlternateSubs2: "'aalt' Access All Alternates lookup 0 subtable" v.sub v.sup v.denom v.numer
EndChar

StartChar: w
Encoding: 119 119 88
Width: 681
GlyphClass: 2
Flags: MW
HStem: -1 55<196 221> 344 42<87 139.5> 362 32<572 627>
VStem: 126 59<86 98.5 86 106> 148 62<288 306.5> 345 59<83.5 90.5> 372 62<294.5 343> 605 51<329 341.5>
LayerCount: 2
Back
Fore
SplineSet
10 302 m 0xc9
 10 313 98 386 134 386 c 0
 145 386 169 374 179 368 c 0
 209 348 210 336 210 322 c 0xc9
 210 254 185 102 185 95 c 0
 185 77 208 54 219 54 c 0
 223 54 232 59 241 72 c 0
 266 107 319 187 338 211 c 0
 356 234 372 286 372 303 c 0
 372 316 360 327 352 335 c 0
 336 351 325 355 325 359 c 0
 325 371 350 395 363 395 c 0
 385 395 434 352 434 334 c 0xd3
 434 302 404 133 404 95 c 0
 404 72 428 52 442 52 c 0
 451 52 460 63 472 77 c 0
 504 114 536 153 560 188 c 0
 589 231 604 271 605 329 c 0
 605 354 595 362 584 362 c 0
 560 362 508 350 505 350 c 0
 504 350 499 356 499 367 c 0
 499 373 606 394 616 394 c 0
 638 394 656 390 656 355 c 0
 656 275 576 150 491 64 c 0
 473 47 463 35 443 14 c 0
 435 6 434 4 427 4 c 0
 380 4 345 41 345 81 c 0
 345 100 366 193 374 234 c 1
 342 184 286 98 249 51 c 0
 242 42 230 23 223 14 c 0
 214 2 212 -1 202 -1 c 0
 190 -1 171 13 161 21 c 0
 133 43 126 52 126 86 c 0xb5
 126 126 148 201 148 298 c 0
 148 315 121 344 104 344 c 0
 70 344 28 287 24 287 c 0
 17 287 10 298 10 302 c 0xc9
EndSplineSet
Substitution2: "'subs' Subscript in Latin lookup 10 subtable" w.sub
Substitution2: "'sups' Superscript in Latin lookup 9 subtable" w.sup
Substitution2: "'dnom' Denominators in Latin lookup 6 subtable" w.denom
Substitution2: "'numr' Numerators in Latin lookup 5 subtable" w.numer
AlternateSubs2: "'aalt' Access All Alternates in Latin lookup 1 subtable" w.sub w.sup w.denom w.numer
AlternateSubs2: "'aalt' Access All Alternates lookup 0 subtable" w.sub w.sup w.denom w.numer
EndChar

StartChar: x
Encoding: 120 120 89
Width: 458
GlyphClass: 2
Flags: MW
HStem: -3 46<68.5 81> -3 55<348 356> 348 40<115.5 136> 357 39<386.5 405>
VStem: 15 38<14 75.5> 417 24<327 366.5>
LayerCount: 2
Back
Fore
SplineSet
15 23 m 0x8c
 15 46 27 83 41 114 c 0
 43 117 45 119 49 119 c 0
 51 119 63 116 63 111 c 0
 63 107 53 86 53 65 c 0
 53 50 63 43 74 43 c 0
 107 43 188 145 213 179 c 0
 219 188 219 188 215 200 c 0
 190 270 157 348 115 348 c 0
 83 348 48 291 40 291 c 0
 35 291 29 299 29 304 c 0
 29 309 83 388 148 388 c 0xac
 214 388 227 338 261 248 c 0
 266 235 268 240 274 250 c 0
 308 303 357 396 416 396 c 0
 432 396 441 377 441 356 c 0
 441 336 435 314 433 300 c 0
 432 295 416 297 416 300 c 0
 416 311 417 322 417 332 c 0
 417 350 410 357 400 357 c 0
 371 357 311 272 279 224 c 0
 274 217 274 214 277 204 c 0
 292 160 331 52 365 52 c 0
 393 52 423 118 426 118 c 0
 430 118 443 114 443 110 c 0
 443 91 381 -3 331 -3 c 0x5c
 278 -3 261 71 231 157 c 0
 227 168 226 162 220 155 c 0
 180 109 113 -3 49 -3 c 0
 31 -3 15 5 15 23 c 0x8c
EndSplineSet
Substitution2: "'subs' Subscript in Latin lookup 10 subtable" x.sub
Substitution2: "'sups' Superscript in Latin lookup 9 subtable" x.sup
Substitution2: "'dnom' Denominators in Latin lookup 6 subtable" x.denom
Substitution2: "'numr' Numerators in Latin lookup 5 subtable" x.numer
AlternateSubs2: "'aalt' Access All Alternates in Latin lookup 1 subtable" x.sub x.sup x.denom x.numer
AlternateSubs2: "'aalt' Access All Alternates lookup 0 subtable" x.sub x.sup x.denom x.numer
EndChar

StartChar: y
Encoding: 121 121 90
Width: 422
GlyphClass: 2
Flags: MW
HStem: -289 80 337 45<101.5 135.5> 374 20G<368 377.5>
VStem: 174 57 360 47
LayerCount: 2
Back
Fore
SplineSet
-13 -262 m 0xb8
 -13 -223 29 -220 61 -209 c 0
 81 -202 104 -180 115 -160 c 0
 169 -60 174 -23 174 17 c 0
 174 130 166 337 105 337 c 0
 65 337 29 276 24 276 c 0
 22 276 10 279 10 286 c 0
 10 290 68 382 135 382 c 0xd8
 222 382 222 241 231 43 c 1
 265 109 318 195 343 276 c 0
 355 314 357 342 360 377 c 0
 361 389 365 394 371 394 c 0
 384 394 407 385 407 369 c 0
 407 365 406 358 405 352 c 0
 394 281 304 122 257 41 c 0
 251 30 231 -3 228 -8 c 2
 218 -27 l 2
 196 -69 150 -159 117 -217 c 0
 108 -233 96 -243 78 -254 c 0
 53 -269 23 -289 4 -289 c 0
 -7 -289 -13 -273 -13 -262 c 0xb8
EndSplineSet
Substitution2: "'subs' Subscript in Latin lookup 10 subtable" y.sub
Substitution2: "'sups' Superscript in Latin lookup 9 subtable" y.sup
Substitution2: "'dnom' Denominators in Latin lookup 6 subtable" y.denom
Substitution2: "'numr' Numerators in Latin lookup 5 subtable" y.numer
AlternateSubs2: "'aalt' Access All Alternates in Latin lookup 1 subtable" y.sub y.sup y.denom y.numer
AlternateSubs2: "'aalt' Access All Alternates lookup 0 subtable" y.sub y.sup y.denom y.numer
EndChar

StartChar: z
Encoding: 122 122 91
Width: 414
GlyphClass: 2
Flags: MW
HStem: -10 21G<33.5 42.5> -2 53<318 336 336 343> 14 51 318 34<258.5 333> 350 46<131.5 153.5> 369 20G<362.5 378>
VStem: 352 27
LayerCount: 2
Back
Fore
SplineSet
25 2 m 0xa2
 25 20 46 36 56 48 c 2
 294 313 l 2
 304 325 289 318 280 318 c 0xb2
 237 318 170 350 137 350 c 0
 101 350 74 302 70 302 c 0
 65 302 57 307 57 310 c 0
 57 314 105 396 158 396 c 0x0a
 203 396 282 352 324 352 c 0
 342 352 351 389 374 389 c 0
 382 389 389 381 389 373 c 0
 389 347 345 337 330 321 c 2
 110 77 l 2
 103 69 100 66 120 65 c 0x36
 206 61 299 51 337 51 c 0
 350 51 352 56 352 69 c 0
 352 70 351 95 351 97 c 0
 351 101 357 103 362 103 c 0
 366 103 371 102 371 98 c 0
 374 64 379 17 379 12 c 0
 379 -1 361 -2 343 -2 c 2
 336 -2 l 2x42
 283 -2 144 14 65 14 c 0
 56 14 49 -10 36 -10 c 0
 31 -10 25 -7 25 2 c 0xa2
EndSplineSet
Substitution2: "'subs' Subscript in Latin lookup 10 subtable" z.sub
Substitution2: "'sups' Superscript in Latin lookup 9 subtable" z.sup
Substitution2: "'dnom' Denominators in Latin lookup 6 subtable" z.denom
Substitution2: "'numr' Numerators in Latin lookup 5 subtable" z.numer
AlternateSubs2: "'aalt' Access All Alternates in Latin lookup 1 subtable" z.sub z.sup z.denom z.numer
AlternateSubs2: "'aalt' Access All Alternates lookup 0 subtable" z.sub z.sup z.denom z.numer
EndChar

StartChar: braceleft
Encoding: 123 123 92
Width: 307
GlyphClass: 2
Flags: MW
HStem: -141 26<227 258 227 260> 663 26<227 258>
VStem: 40 56<272.5 275.5 272.5 288.5> 117 52<52 126 416 422 422 496 496 562.5>
LayerCount: 2
Back
Fore
SplineSet
40 274 m 0
 40 303 117 251 117 416 c 2
 117 496 l 2
 117 629 118 689 255 689 c 0
 265 689 267 688 267 676 c 0
 267 663 263 663 253 663 c 0
 201 663 169 648 169 571 c 2
 169 422 l 2
 169 335 166 299 111 281 c 0
 101 277 96 277 96 274 c 0
 96 271 101 271 111 267 c 0
 166 249 169 213 169 126 c 2
 169 -23 l 2
 169 -100 201 -115 253 -115 c 0
 263 -115 267 -115 267 -128 c 0
 267 -140 265 -141 255 -141 c 0
 118 -141 117 -81 117 52 c 2
 117 132 l 2
 117 297 40 245 40 274 c 0
EndSplineSet
Substitution2: "'case' Case-Sensitive Forms in Latin lookup 14 subtable" braceleft.u
AlternateSubs2: "'aalt' Access All Alternates in Latin lookup 1 subtable" braceleft.u
AlternateSubs2: "'aalt' Access All Alternates lookup 0 subtable" braceleft.u
EndChar

StartChar: bar
Encoding: 124 124 93
Width: 247
GlyphClass: 2
Flags: MW
VStem: 100 47<-187 745>
LayerCount: 2
Back
Fore
SplineSet
100 -187 m 2
 100 746 l 2
 100 761 106 762 118 762 c 2
 125 762 l 2
 144 762 147 762 147 745 c 2
 147 -187 l 2
 147 -202 147 -209 135 -209 c 2
 114 -209 l 2
 100 -209 100 -208 100 -187 c 2
EndSplineSet
EndChar

StartChar: braceright
Encoding: 125 125 94
Width: 307
GlyphClass: 2
Flags: MW
HStem: -141 26<49 80 49 120.5> 663 26<49 80>
VStem: 138 52<-14.5 52 52 126 126 132 422 496> 211 56<272.5 275.5>
LayerCount: 2
Back
Fore
SplineSet
40 -128 m 0
 40 -115 44 -115 54 -115 c 0
 106 -115 138 -100 138 -23 c 2
 138 126 l 2
 138 213 141 249 196 267 c 0
 206 271 211 271 211 274 c 0
 211 277 206 277 196 281 c 0
 141 299 138 335 138 422 c 2
 138 571 l 2
 138 648 106 663 54 663 c 0
 44 663 40 663 40 676 c 0
 40 688 42 689 52 689 c 0
 189 689 190 629 190 496 c 2
 190 416 l 2
 190 251 267 303 267 274 c 0
 267 245 190 297 190 132 c 2
 190 52 l 2
 190 -81 189 -141 52 -141 c 0
 42 -141 40 -140 40 -128 c 0
EndSplineSet
Substitution2: "'case' Case-Sensitive Forms in Latin lookup 14 subtable" braceright.u
AlternateSubs2: "'aalt' Access All Alternates in Latin lookup 1 subtable" braceright.u
AlternateSubs2: "'aalt' Access All Alternates lookup 0 subtable" braceright.u
EndChar

StartChar: asciitilde
Encoding: 126 126 95
Width: 793
GlyphClass: 2
Flags: MW
HStem: 110 42<539 619> 248 48<167.5 244>
LayerCount: 2
Back
Fore
SplineSet
45 117 m 0
 45 119 47 128 49 134 c 0
 62 181 107 296 228 296 c 0
 371 296 481 152 597 152 c 0
 672 152 708 257 717 287 c 0
 720 298 721 296 732 294 c 0
 740 292 743 292 743 287 c 0
 743 286 743 284 742 281 c 0
 726 217 676 110 562 110 c 0
 414 110 304 248 184 248 c 0
 108 248 80 157 72 122 c 0
 69 112 69 108 65 108 c 0
 63 108 59 109 55 110 c 0
 47 112 45 111 45 117 c 0
EndSplineSet
EndChar

StartChar: exclamdown
Encoding: 161 161 97
Width: 220
GlyphClass: 2
Flags: MW
HStem: -8 21G<20.5 30 30 35> 559 98<100 118.5>
VStem: 5 59 65 90<598 618.5 598 623.5> 93 25<498 498>
LayerCount: 2
Back
Fore
SplineSet
5 9 m 0xe8
 5 13 6 16 7 21 c 0
 16 61 47 211 93 498 c 0
 94 503 101 503 105 503 c 0
 113 503 118 503 118 499 c 0
 118 495 110 412 98 316 c 0
 76 141 69 75 64 14 c 0
 63 -4 48 -8 35 -8 c 2
 30 -8 l 2
 11 -8 5 -2 5 9 c 0xe8
65 606 m 0xf0
 65 641 95 657 105 657 c 0
 133 657 155 626 155 611 c 0
 155 585 128 559 109 559 c 0
 91 559 65 586 65 606 c 0xf0
EndSplineSet
Position2: "'cpsp' Capital Spacing in Latin lookup 0 subtable" dx=4 dy=0 dh=8 dv=0
EndChar

StartChar: cent
Encoding: 162 162 98
Width: 407
GlyphClass: 2
Flags: MW
HStem: -10 44<195.5 266 198 266>
VStem: 42 62<154 223.5 154 227.5> 314 55
LayerCount: 2
Back
Fore
SplineSet
42 153 m 0
 42 302 142 385 231 397 c 0
 241 398 241 400 243 411 c 0
 249 448 253 476 255 487 c 0
 255 491 256 493 257 493 c 0
 259 493 276 493 276 490 c 2
 262 411 l 1
 262 405 l 2
 261 399 263 400 272 398 c 0
 323 389 369 352 369 308 c 0
 369 296 367 290 358 283 c 0
 349 276 337 270 329 270 c 0
 322 270 316 272 314 281 c 0
 304 320 304 360 266 370 c 0
 264 371 263 371 262 371 c 0
 257 371 256 367 254 360 c 2
 203 48 l 2
 202 41 201 38 207 37 c 0
 215 35 225 34 234 34 c 0
 298 34 342 64 349 64 c 0
 353 64 356 62 355 56 c 0
 354 50 294 -10 202 -10 c 2
 198 -10 l 2
 193 -10 192 -11 190 -18 c 0
 179 -85 171 -130 170 -130 c 0
 167 -130 154 -130 154 -128 c 0
 154 -125 162 -81 172 -18 c 0
 173 -6 172 -8 162 -6 c 0
 86 9 42 68 42 153 c 0
104 182 m 0
 104 126 127 73 173 48 c 0
 177 46 178 45 180 45 c 0
 182 45 182 46 183 52 c 2
 234 360 l 1
 234 366 l 2
 234 369 235 371 232 371 c 0
 230 371 228 371 224 370 c 0
 152 354 104 265 104 182 c 0
EndSplineSet
Substitution2: "'subs' Subscript in Latin lookup 10 subtable" cent.sub
Substitution2: "'sups' Superscript in Latin lookup 9 subtable" cent.sup
Substitution2: "'dnom' Denominators in Latin lookup 6 subtable" cent.denom
Substitution2: "'numr' Numerators in Latin lookup 5 subtable" cent.numer
AlternateSubs2: "'aalt' Access All Alternates in Latin lookup 1 subtable" cent.sub cent.sup cent.denom cent.numer
AlternateSubs2: "'aalt' Access All Alternates lookup 0 subtable" cent.sub cent.sup cent.denom cent.numer
EndChar

StartChar: sterling
Encoding: 163 163 99
Width: 489
GlyphClass: 2
Flags: MW
HStem: -34 53 -14 40<365.5 370.5> 14 35 248 24<48.5 124 53 117 208 311> 629 24<341 367>
VStem: 20 98<-23 35> 420 43<569 583.5 534 589.5> 438 26<47 71.5>
LayerCount: 2
Back
Fore
SplineSet
20 -16 m 0x9d
 20 12 62 16 81 19 c 0
 103 23 114 80 119 112 c 0
 125 153 131 196 132 232 c 0
 132 248 132 248 117 248 c 2
 51 248 l 2
 46 248 44 249 45 261 c 0
 46 271 47 272 53 272 c 2
 124 272 l 2
 138 272 135 273 136 281 c 0
 137 289 138 339 150 422 c 0
 163 514 203 599 275 635 c 0
 298 646 327 653 355 653 c 0
 411 653 463 621 463 546 c 0x9e
 463 522 462 484 438 484 c 0x9d
 420 484 413 505 413 522 c 0
 413 540 420 559 420 579 c 0
 420 600 388 629 346 629 c 0
 276 629 245 575 230 519 c 0
 210 444 202 353 195 282 c 0
 194 270 194 272 208 272 c 2
 315 272 l 2
 322 272 322 271 322 260 c 0
 322 250 319 248 311 248 c 2
 204 248 l 2
 188 248 192 248 188 232 c 0
 170 144 141 83 127 55 c 0
 126 52 118 36 118 34 c 0
 118 30 134 37 142 40 c 0
 158 47 185 49 196 49 c 0x3e
 248 49 350 26 381 26 c 0
 408 26 438 31 438 63 c 0
 438 80 421 95 412 106 c 0
 404 116 405 119 418 124 c 0
 422 126 428 126 434 126 c 0
 454 126 464 100 464 78 c 0
 464 13 399 -14 342 -14 c 0x5d
 287 -14 129 14 110 14 c 0x3d
 92 14 63 -34 36 -34 c 0
 29 -34 20 -30 20 -16 c 0x9d
EndSplineSet
EndChar

StartChar: currency
Encoding: 164 164 100
Width: 494
GlyphClass: 2
Flags: MW
HStem: -16 20G 26 50<224.5 264> 332 47<224.5 265 224.5 278.5>
VStem: 68 51<184 223.5> 370 52<182.5 222 182.5 237.5>
LayerCount: 2
Back
Fore
SplineSet
25 8 m 0
 25 19 34 27 42 35 c 2
 103 97 l 1
 81 127 68 164 68 204 c 0
 68 243 80 280 102 309 c 1
 42 371 l 2
 40 373 25 384 25 398 c 0
 25 412 37 422 49 422 c 0
 60 422 69 414 77 406 c 2
 139 344 l 1
 168 366 205 379 244 379 c 0
 286 379 322 365 350 344 c 1
 412 406 l 2
 414 408 425 422 439 422 c 0
 453 422 464 410 464 398 c 0
 464 387 455 379 447 371 c 2
 385 308 l 1
 407 278 422 242 422 202 c 0
 422 163 407 127 385 98 c 1
 447 35 l 2
 449 33 464 22 464 8 c 0
 464 -6 451 -17 439 -17 c 0
 428 -17 420 -8 412 0 c 2
 350 62 l 1
 321 40 284 26 244 26 c 0
 205 26 168 39 139 61 c 1
 77 0 l 2
 75 -2 63 -16 49 -16 c 0
 35 -16 25 -4 25 8 c 0
119 202 m 0
 119 131 176 76 244 76 c 0
 312 76 370 133 370 203 c 0
 370 272 313 332 244 332 c 0
 174 332 119 272 119 202 c 0
EndSplineSet
EndChar

StartChar: yen
Encoding: 165 165 101
Width: 613
GlyphClass: 2
Flags: MW
HStem: 0 27 223 24<71.5 224 73 220 299 456> 345 24<91.5 203 93 203 93 213 343 476> 639 30<32 38 38 46 31.5 85 215.5 223 421 429 429 436.5 569 577>
LayerCount: 2
Back
Fore
SplineSet
20 654 m 0
 20 669 25 669 38 669 c 0
 54 669 109 666 139 666 c 0
 169 666 204 669 227 669 c 0
 240 669 241 668 241 651 c 0
 241 639 239 639 223 639 c 2
 192 639 l 2
 177 639 180 639 184 624 c 0
 200 571 259 428 287 359 c 0
 291 351 292 347 295 347 c 0
 299 347 305 355 311 365 c 0
 358 436 482 612 482 636 c 0
 482 638 483 639 482 639 c 2
 429 639 l 2
 413 639 411 639 411 651 c 0
 411 668 412 669 425 669 c 0
 448 669 473 666 503 666 c 0
 533 666 561 669 577 669 c 0
 590 669 593 669 593 654 c 0
 593 639 589 639 577 639 c 2
 541 639 l 2
 537 639 412 469 343 369 c 1
 476 369 l 2
 480 369 480 345 476 345 c 2
 327 345 l 1
 318 332 l 2
 314 325 312 319 310 310 c 2
 299 247 l 1
 456 247 l 2
 460 247 460 223 456 223 c 2
 295 223 l 1
 279 128 266 44 266 40 c 0
 266 32 265 27 271 27 c 2
 334 27 l 2
 345 27 345 26 345 14 c 0
 345 -1 344 -3 334 -3 c 0
 311 -3 259 0 229 0 c 0
 199 0 158 -3 135 -3 c 0
 122 -3 121 0 121 13 c 0
 121 25 123 27 139 27 c 2
 181 27 l 2
 188 27 193 66 220 223 c 1
 73 223 l 2
 70 223 69 247 73 247 c 2
 224 247 l 1
 226 260 l 2
 231 287 231 296 231 301 c 0
 231 302 224 319 213 345 c 1
 93 345 l 2
 90 345 89 369 93 369 c 2
 203 369 l 1
 85 639 l 1
 38 639 l 2
 26 639 20 639 20 654 c 0
EndSplineSet
EndChar

StartChar: brokenbar
Encoding: 166 166 102
Width: 247
GlyphClass: 2
Flags: MW
VStem: 100 47<-187 189 379 745>
LayerCount: 2
Back
Fore
SplineSet
100 -187 m 2
 100 189 l 2
 100 201 104 203 111 203 c 2
 136 203 l 2
 143 203 147 201 147 189 c 2
 147 -187 l 2
 147 -202 147 -209 135 -209 c 2
 114 -209 l 2
 100 -209 100 -208 100 -187 c 2
100 379 m 2
 100 746 l 2
 100 761 106 762 118 762 c 2
 125 762 l 2
 144 762 147 762 147 745 c 2
 147 379 l 2
 147 362 144 360 133 360 c 2
 115 360 l 2
 102 360 100 361 100 379 c 2
EndSplineSet
EndChar

StartChar: section
Encoding: 167 167 103
Width: 381
GlyphClass: 2
Flags: MW
HStem: -226 42<194 214> 636 41<149.5 178>
VStem: 40 38<320 340.5> 63 35<550 590> 280 34<-138.5 -93> 302 39<112.5 145.5>
LayerCount: 2
Back
Fore
SplineSet
40 310 m 0xe8
 40 371 90 414 109 428 c 0
 116 433 112 439 107 446 c 0
 89 474 63 514 63 556 c 0
 63 624 111 677 188 677 c 0
 232 677 302 666 302 632 c 0
 302 611 285 605 265 605 c 0
 221 605 200 636 156 636 c 0
 131 636 98 633 98 594 c 0
 98 506 341 314 341 132 c 0xd4
 341 93 297 55 275 38 c 0
 268 32 265 29 265 26 c 0
 265 23 268 19 272 12 c 0
 287 -15 314 -69 314 -102 c 0
 314 -175 260 -226 168 -226 c 0
 124 -226 65 -221 65 -182 c 0
 65 -169 78 -159 93 -159 c 0
 109 -159 122 -167 136 -172 c 0
 150 -177 180 -184 208 -184 c 0
 247 -184 280 -169 280 -132 c 0
 280 -54 40 153 40 310 c 0xe8
78 357 m 0xe4
 78 283 209 100 245 52 c 0
 250 45 252 42 255 42 c 0
 258 42 261 45 269 52 c 0
 283 65 302 85 302 102 c 0
 302 189 164 365 131 411 c 0
 124 420 126 423 113 413 c 0
 100 403 78 383 78 357 c 0xe4
EndSplineSet
EndChar

StartChar: dieresis
Encoding: 168 168 104
Width: 400
GlyphClass: 2
Flags: MW
HStem: 487 94<118.5 144.5 117 145 258.5 284.5>
VStem: 89 85<524.5 543.5 520 548> 229 85<524.5 543.5 520 548>
LayerCount: 2
Back
Fore
SplineSet
89 535 m 0
 89 561 104 581 130 581 c 0
 159 581 174 554 174 533 c 0
 174 507 157 487 133 487 c 0
 104 487 89 514 89 535 c 0
229 535 m 0
 229 561 244 581 270 581 c 0
 299 581 314 554 314 533 c 0
 314 507 297 487 273 487 c 0
 244 487 229 514 229 535 c 0
EndSplineSet
EndChar

StartChar: copyright
Encoding: 169 169 105
Width: 843
GlyphClass: 2
Flags: MW
HStem: -183 32<326 514 326 523.5> -27 30<389.5 477.5> 401 20<373.5 462.5> 529 32<326 514>
VStem: 54 34<95 283 95 292.5> 196 65<145 257 145 268> 568 27<388 394 394 397.5> 752 34<95 283>
LayerCount: 2
Back
Fore
SplineSet
54 189 m 0
 54 396 213 561 420 561 c 0
 627 561 786 398 786 189 c 0
 786 -18 627 -183 420 -183 c 0
 213 -183 54 -18 54 189 c 0
88 189 m 0
 88 1 232 -151 420 -151 c 0
 608 -151 752 1 752 189 c 0
 752 377 608 529 420 529 c 0
 232 529 88 377 88 189 c 0
196 201 m 0
 196 335 296 421 425 421 c 0
 501 421 544 384 557 375 c 0
 563 371 568 366 568 377 c 2
 568 394 l 2
 568 401 573 403 583 403 c 0
 593 403 595 402 595 394 c 0
 595 382 593 304 593 271 c 0
 593 263 591 261 583 261 c 0
 571 261 565 262 565 268 c 0
 565 271 568 318 568 324 c 0
 568 333 505 401 420 401 c 0
 327 401 261 315 261 199 c 0
 261 91 340 3 439 3 c 0
 536 3 576 53 580 53 c 0
 581 53 592 36 592 34 c 0
 592 28 534 -27 421 -27 c 0
 303 -27 196 47 196 201 c 0
EndSplineSet
EndChar

StartChar: ordfeminine
Encoding: 170 170 106
Width: 379
GlyphClass: 2
Flags: MW
HStem: 340 46 636 35<173 213.5>
VStem: 30 55<421 447> 220 55<354.5 420> 294 48<657.5 659>
LayerCount: 2
Back
Fore
SplineSet
30 399 m 0
 30 495 94 671 221 671 c 0
 240 671 255 662 266 646 c 0
 274 635 279 624 282 623 c 0
 285 626 294 656 294 659 c 0
 297 666 316 669 328 669 c 0
 335 669 342 666 342 663 c 0
 342 651 275 438 275 402 c 0
 275 394 279 386 286 386 c 0
 298 386 335 433 339 433 c 0
 343 433 349 427 349 420 c 0
 349 416 279 340 243 340 c 0
 230 340 220 348 220 361 c 0
 220 390 254 496 264 528 c 1
 251 505 212 441 164 393 c 0
 135 364 114 341 83 341 c 0
 47 341 30 367 30 399 c 0
85 430 m 0
 85 412 90 386 108 386 c 0
 137 386 215 477 257 545 c 0
 267 560 269 585 269 589 c 0
 269 620 226 636 201 636 c 0
 145 636 85 497 85 430 c 0
EndSplineSet
EndChar

StartChar: guillemotleft
Encoding: 171 171 107
Width: 408
GlyphClass: 2
Flags: MW
HStem: 62 262<183.5 185 333.5 335>
VStem: 50 86<190.5 195.5> 200 86<190.5 195.5>
LayerCount: 2
Back
Fore
SplineSet
50 193 m 0
 50 198 76 221 105 248 c 0
 143 283 183 324 184 324 c 0
 186 324 198 314 198 312 c 0
 198 304 136 205 136 193 c 0
 136 181 198 82 198 74 c 0
 198 72 186 62 184 62 c 0
 183 62 143 103 105 138 c 0
 76 165 50 188 50 193 c 0
200 193 m 0
 200 198 226 221 255 248 c 0
 293 283 333 324 334 324 c 0
 336 324 348 314 348 312 c 0
 348 304 286 205 286 193 c 0
 286 181 348 82 348 74 c 0
 348 72 336 62 334 62 c 0
 333 62 293 103 255 138 c 0
 226 165 200 188 200 193 c 0
EndSplineSet
Substitution2: "'case' Case-Sensitive Forms in Latin lookup 14 subtable" guillemotleft.u
AlternateSubs2: "'aalt' Access All Alternates in Latin lookup 1 subtable" guillemotleft.u
AlternateSubs2: "'aalt' Access All Alternates lookup 0 subtable" guillemotleft.u
EndChar

StartChar: logicalnot
Encoding: 172 172 108
Width: 527
GlyphClass: 2
Flags: MW
HStem: 188 44<40.5 477 50 426>
VStem: 452 45<60 171 171 178>
LayerCount: 2
Back
Fore
SplineSet
31 215 m 0
 31 232 41 232 50 232 c 2
 477 232 l 2
 494 232 497 230 497 213 c 2
 497 55 l 2
 497 45 494 40 481 40 c 0
 462 40 452 40 452 60 c 2
 452 171 l 2
 452 185 442 188 426 188 c 2
 50 188 l 2
 31 188 31 196 31 215 c 0
EndSplineSet
EndChar

StartChar: uni00AD
Encoding: 173 173 109
Width: 268
GlyphClass: 2
Flags: MW
HStem: 198 43 206 42<225 232>
VStem: 30 203<200 241.5>
LayerCount: 2
Back
Fore
SplineSet
30 201 m 0xa0
 30 216 39 240 48 241 c 0xa0
 57 242 225 248 231 248 c 0
 233 248 233 244 233 239 c 0
 233 227 229 206 225 206 c 0x60
 212 205 47 198 34 198 c 0
 31 198 30 199 30 201 c 0xa0
EndSplineSet
Substitution2: "'case' Case-Sensitive Forms in Latin lookup 14 subtable" uni00AD.u
AlternateSubs2: "'aalt' Access All Alternates in Latin lookup 1 subtable" uni00AD.u
AlternateSubs2: "'aalt' Access All Alternates lookup 0 subtable" uni00AD.u
EndChar

StartChar: registered
Encoding: 174 174 110
Width: 536
GlyphClass: 2
Flags: MW
HStem: 223 23<206 330 206 337> 328 18<161 161.5 248 253 253 256 402.5 412 412 413> 472 15<225 236> 623 16<266 268> 694 23<206 330>
VStem: 25 25<408 532 408 539> 182 40<456 464 464 470.5 488 489 489 495> 329 43<536.5 575> 343 45 486 25<408 532>
LayerCount: 2
Back
Fore
SplineSet
25 470 m 0xfe40
 25 608 130 717 268 717 c 0
 406 717 511 609 511 470 c 0
 511 332 406 223 268 223 c 0
 130 223 25 332 25 470 c 0xfe40
50 470 m 0
 50 346 144 246 268 246 c 0
 392 246 486 346 486 470 c 0
 486 594 392 694 268 694 c 0
 144 694 50 594 50 470 c 0
142 628 m 0
 142 637 147 637 153 637 c 0
 161 637 191 636 204 636 c 0
 217 636 261 639 271 639 c 0
 317 639 372 625 372 559 c 0xff40
 372 514 328 490 308 481 c 1
 338 472 385 451 388 374 c 0
 389 346 390 346 392 346 c 2
 412 346 l 2
 418 346 420 344 420 334 c 0
 420 329 416 328 410 328 c 0
 395 328 350 329 350 329 c 2
 346 329 343 331 343 336 c 2
 343 363 l 2xfec0
 343 414 339 463 279 470 c 0
 264 472 245 472 227 472 c 0
 223 472 222 472 222 469 c 0
 222 443 224 358 226 346 c 1
 253 346 l 2
 259 346 260 345 260 339 c 0
 260 332 259 328 253 328 c 0
 243 328 216 329 203 329 c 0
 190 329 164 328 159 328 c 0
 152 328 150 330 150 339 c 0
 150 346 153 346 161 346 c 2
 180 346 l 1
 181 354 182 377 182 404 c 2
 182 464 l 2
 182 526 181 608 177 619 c 1
 153 618 l 2
 147 618 142 619 142 628 c 0
222 489 m 2
 222 487 222 487 227 487 c 0
 249 487 273 486 290 486 c 1
 311 496 329 516 329 553 c 0
 329 597 289 623 247 623 c 0
 239 623 232 622 224 622 c 1
 223 618 222 609 222 599 c 2
 222 489 l 2
EndSplineSet
EndChar

StartChar: macron
Encoding: 175 175 111
Width: 400
GlyphClass: 2
Flags: MW
HStem: 509 38<104.5 292 111 290>
VStem: 100 200<518 543.5>
LayerCount: 2
Back
Fore
SplineSet
100 518 m 2
 102 539 l 2
 103 547 103 547 111 547 c 2
 292 547 l 2
 299 547 300 547 300 540 c 2
 298 517 l 2
 297 509 298 509 290 509 c 2
 109 509 l 2
 100 509 99 509 100 518 c 2
EndSplineSet
EndChar

StartChar: degree
Encoding: 176 176 112
Width: 256
GlyphClass: 2
Flags: MW
HStem: 447 31<112 144 112 152> 592 31<112 144>
VStem: 40 31<519 551 519 559> 185 31<519 551>
LayerCount: 2
Back
Fore
SplineSet
40 535 m 0
 40 583 80 623 128 623 c 0
 176 623 216 583 216 535 c 0
 216 487 176 447 128 447 c 0
 80 447 40 487 40 535 c 0
71 535 m 0
 71 503 96 478 128 478 c 0
 160 478 185 503 185 535 c 0
 185 567 160 592 128 592 c 0
 96 592 71 567 71 535 c 0
EndSplineSet
EndChar

StartChar: plusminus
Encoding: 177 177 113
Width: 527
GlyphClass: 2
Flags: MW
HStem: 73 44<42.5 478 49 475> 301 45<39.5 230 49 225 297 475>
VStem: 241 44<152 284 356 357 357 365 365 493>
LayerCount: 2
Back
Fore
SplineSet
31 90 m 0
 31 108 31 117 49 117 c 2
 478 117 l 2
 493 117 496 112 496 97 c 0
 496 82 495 73 475 73 c 2
 48 73 l 2
 37 73 31 75 31 90 c 0
31 324 m 0
 31 336 34 346 49 346 c 2
 230 346 l 2
 239 346 241 350 241 356 c 2
 241 365 l 1
 241 495 l 2
 241 506 248 510 257 510 c 0
 281 510 285 507 285 493 c 2
 285 365 l 1
 285 357 l 2
 285 351 287 346 297 346 c 2
 480 346 l 2
 489 346 496 344 496 331 c 0
 496 311 496 301 475 301 c 2
 297 301 l 2
 287 301 285 294 285 284 c 2
 285 152 l 2
 285 139 279 138 269 138 c 0
 248 138 241 139 241 152 c 2
 241 284 l 2
 241 297 240 301 225 301 c 2
 48 301 l 2
 31 301 31 309 31 324 c 0
EndSplineSet
EndChar

StartChar: uni00B2
Encoding: 178 178 114
Width: 360
GlyphClass: 2
Flags: MW
HStem: 350 47<48 277 95 277 95 280> 717 43<160 204>
VStem: 253 55<632 665>
LayerCount: 2
Back
Fore
SplineSet
41 357 m 0
 41 366 95 437 99 440 c 0
 109 449 253 571 253 646 c 0
 253 684 229 717 179 717 c 0
 110 717 76 652 70 652 c 0
 66 652 55 659 55 665 c 0
 55 676 121 760 199 760 c 0
 265 760 308 713 308 652 c 0
 308 612 285 575 257 544 c 0
 210 493 155 458 133 440 c 0
 123 432 95 397 95 397 c 1
 277 397 l 1
 279 402 297 457 301 457 c 0
 304 457 319 456 319 452 c 0
 319 446 297 386 289 355 c 0
 288 350 285 350 280 350 c 2
 52 350 l 2
 44 350 41 353 41 357 c 0
EndSplineSet
EndChar

StartChar: uni00B3
Encoding: 179 179 115
Width: 360
GlyphClass: 2
Flags: MW
HStem: 341 23<134 175 134 177> 532 28<110.5 121> 730 30<161 194>
VStem: 237 55<431 484>
LayerCount: 2
Back
Fore
SplineSet
49 377 m 0
 49 386 68 395 79 395 c 0
 109 395 119 364 149 364 c 0
 201 364 237 404 237 458 c 0
 237 510 205 534 151 534 c 0
 141 534 126 532 116 532 c 0
 111 532 109 538 109 545 c 0
 109 549 108 560 113 560 c 0
 130 562 151 565 166 571 c 0
 207 587 236 612 236 665 c 0
 236 706 210 730 178 730 c 0
 133 730 105 696 99 696 c 0
 95 696 86 702 87 708 c 0
 88 716 134 760 188 760 c 0
 257 760 291 714 291 672 c 0
 291 593 190 565 177 559 c 1
 191 555 292 544 292 462 c 0
 292 381 213 341 141 341 c 0
 108 341 49 364 49 377 c 0
EndSplineSet
EndChar

StartChar: acute
Encoding: 180 180 116
Width: 400
GlyphClass: 2
Flags: MW
HStem: 449 155<174.5 277.5 176 277.5>
VStem: 172 127<450.5 589>
LayerCount: 2
Back
Fore
SplineSet
172 451 m 0
 172 452 174 455 175 457 c 2
 236 580 l 2
 244 595 255 604 268 604 c 0
 287 604 299 595 299 583 c 0
 299 573 297 566 290 558 c 2
 199 455 l 2
 196 451 194 449 191 449 c 2
 176 449 l 2
 173 449 172 450 172 451 c 0
EndSplineSet
EndChar

StartChar: uni00B5
Encoding: 181 181 117
Width: 509
GlyphClass: 2
Flags: MW
HStem: -15 53<152 170> 356 20G<145 151.5>
VStem: 25 40<-95 -90> 320 60<62 67.5> 367 63
LayerCount: 2
Back
Fore
SplineSet
25 -136 m 0xf0
 25 -44 60 40 85 155 c 0
 132 365 140 376 150 376 c 0
 153 376 189 375 189 359 c 0
 189 340 152 240 138 128 c 0
 137 116 135 100 135 85 c 0
 135 60 140 38 164 38 c 0
 233 38 325 224 367 329 c 0
 384 371 385 377 390 377 c 0
 405 377 430 371 430 362 c 0xe8
 430 350 380 115 380 70 c 0
 380 54 393 44 405 44 c 0
 442 44 452 111 466 111 c 0
 474 111 474 106 474 98 c 0
 474 61 421 -17 354 -17 c 0
 326 -17 320 11 320 47 c 0
 320 88 336 173 336 184 c 0
 336 187 336 192 332 192 c 0
 331 192 305 146 275 102 c 0
 245 58 204 -15 136 -15 c 0
 98 -15 90 54 86 54 c 0
 80 54 65 -47 65 -79 c 0
 65 -111 89 -148 89 -156 c 0
 89 -160 83 -183 59 -183 c 0
 43 -183 25 -169 25 -136 c 0xf0
EndSplineSet
EndChar

StartChar: paragraph
Encoding: 182 182 118
Width: 492
GlyphClass: 2
Flags: MW
HStem: -231 34<285.5 348 290 348 348 353 290 372> 620 34<390.5 394 394 440>
VStem: 40 245<319 500> 359 27<-189 610>
LayerCount: 2
Back
Fore
SplineSet
40 417 m 0
 40 583 186 644 273 644 c 0
 284 644 285 640 285 630 c 2
 285 162 l 2
 285 156 284 154 280 154 c 0
 210 154 40 221 40 417 c 0
280 -205 m 2
 280 -200 281 -197 290 -197 c 2
 348 -197 l 2
 358 -197 359 -196 359 -189 c 2
 359 642 l 2
 359 653 362 654 370 654 c 2
 440 654 l 2
 451 654 452 652 452 643 c 2
 452 629 l 2
 452 622 451 620 440 620 c 2
 394 620 l 2
 387 620 386 619 386 610 c 2
 386 -222 l 2
 386 -230 385 -231 372 -231 c 2
 290 -231 l 2
 281 -231 280 -228 280 -223 c 2
 280 -205 l 2
EndSplineSet
EndChar

StartChar: periodcentered
Encoding: 183 183 119
Width: 125
GlyphClass: 2
Flags: MW
HStem: 292 94<54.5 80.5 53 81>
VStem: 25 85<329.5 348.5 325 353>
LayerCount: 2
Back
Fore
SplineSet
25 340 m 0
 25 366 40 386 66 386 c 0
 95 386 110 359 110 338 c 0
 110 312 93 292 69 292 c 0
 40 292 25 319 25 340 c 0
EndSplineSet
EndChar

StartChar: cedilla
Encoding: 184 184 120
Width: 400
GlyphClass: 2
Flags: MW
HStem: -217 23<160 195.5 157.5 215.5> -100 33<186 243> -20 20<208 227 227 227>
VStem: 242 54<-156 -135>
LayerCount: 2
Back
Fore
SplineSet
109 -190 m 0
 109 -187 109 -180 117 -180 c 0
 120 -180 142 -194 173 -194 c 0
 218 -194 242 -179 242 -145 c 0
 242 -125 231 -100 195 -100 c 0
 177 -100 162 -106 159 -106 c 0
 157 -106 152 -104 152 -102 c 0
 152 -100 196 -24 208 0 c 1
 227 0 l 1
 218 -16 190 -65 190 -67 c 0
 190 -70 193 -69 195 -69 c 0
 199 -68 209 -67 219 -67 c 0
 267 -67 296 -98 296 -131 c 0
 296 -181 247 -217 184 -217 c 0
 136 -217 109 -194 109 -190 c 0
EndSplineSet
EndChar

StartChar: uni00B9
Encoding: 185 185 121
Width: 360
GlyphClass: 2
Flags: MW
HStem: 348 27<91 95.5 255.5 261 261 265> 715 45
VStem: 192 68<714.5 754>
LayerCount: 2
Back
Fore
SplineSet
78 360 m 0
 78 368 79 375 91 375 c 2
 147 375 l 1
 153 415 192 703 192 726 c 1
 183 725 135 715 132 715 c 0
 126 715 125 722 125 724 c 2
 125 732 l 2
 125 737 127 740 133 741 c 0
 160 744 249 760 253 760 c 0
 259 760 260 756 260 752 c 0
 260 745 247 670 238 612 c 2
 203 375 l 1
 261 375 l 2
 269 375 269 367 269 359 c 0
 269 349 269 348 261 348 c 0
 250 348 199 350 179 350 c 0
 159 350 103 348 88 348 c 0
 78 348 78 349 78 360 c 0
EndSplineSet
EndChar

StartChar: ordmasculine
Encoding: 186 186 122
Width: 377
GlyphClass: 2
Flags: MW
HStem: 342 22<116 188 116 199.5> 658 21<180.5 242.5>
VStem: 30 53<453.5 507.5 453.5 525> 283 54<542.5 572.5 496 594>
LayerCount: 2
Back
Fore
SplineSet
30 464 m 0
 30 586 111 679 222 679 c 0
 310 679 337 598 337 547 c 0
 337 445 252 342 147 342 c 0
 69 342 30 401 30 464 c 0
83 471 m 0
 83 436 84 364 148 364 c 0
 228 364 283 505 283 580 c 0
 283 608 272 658 213 658 c 0
 148 658 83 544 83 471 c 0
EndSplineSet
EndChar

StartChar: guillemotright
Encoding: 187 187 123
Width: 408
GlyphClass: 2
Flags: MW
HStem: 62 262<73 74.5 223 224.5>
VStem: 122 86<190.5 195.5 190.5 199> 272 86<190.5 195.5 190.5 199>
LayerCount: 2
Back
Fore
SplineSet
60 74 m 0
 60 82 122 181 122 193 c 0
 122 205 60 304 60 312 c 0
 60 314 72 324 74 324 c 0
 75 324 115 283 153 248 c 0
 182 221 208 198 208 193 c 0
 208 188 182 165 153 138 c 0
 115 103 75 62 74 62 c 0
 72 62 60 72 60 74 c 0
210 74 m 0
 210 82 272 181 272 193 c 0
 272 205 210 304 210 312 c 0
 210 314 222 324 224 324 c 0
 225 324 265 283 303 248 c 0
 332 221 358 198 358 193 c 0
 358 188 332 165 303 138 c 0
 265 103 225 62 224 62 c 0
 222 62 210 72 210 74 c 0
EndSplineSet
Substitution2: "'case' Case-Sensitive Forms in Latin lookup 14 subtable" guillemotright.u
AlternateSubs2: "'aalt' Access All Alternates in Latin lookup 1 subtable" guillemotright.u
AlternateSubs2: "'aalt' Access All Alternates lookup 0 subtable" guillemotright.u
EndChar

StartChar: onequarter
Encoding: 188 188 124
Width: 794
GlyphClass: 2
Flags: MW
HStem: -13 21<221 236> -11 21<599 606> 135 38<512 610 688 722> 248 27<91 95.5 255.5 261 261 265> 615 45 648 20<636 651>
VStem: 192 68<614.5 654> 458 40<138 176> 620 30 652 57<331 403>
LayerCount: 2
Back
Fore
SplineSet
458 141 m 0x61c0
 458 148 463 163 475 179 c 0
 509 225 587 299 636 358 c 0
 646 370 655 372 662 379 c 0
 676 393 696 414 702 414 c 0
 708 414 709 406 709 400 c 0
 709 390 679 184 679 184 c 2
 677 173 679 173 688 173 c 2
 725 173 l 2
 729 173 731 172 731 165 c 2
 731 142 l 2
 731 135 730 135 722 135 c 2
 676 135 l 2
 671 135 669 135 668 126 c 0
 662 86 650 3 650 0 c 0
 650 -6 643 -6 642 -7 c 0
 638 -8 611 -11 601 -11 c 0
 597 -11 596 -6 597 -1 c 2
 620 125 l 2
 622 134 620 135 610 135 c 2
 471 135 l 2
 466 135 458 135 458 141 c 0x61c0
498 175 m 0
 498 173 501 173 512 173 c 2
 620 173 l 2
 629 173 628 173 631 186 c 0
 634 204 652 318 652 344 c 1
 643 337 553 239 509 189 c 0
 505 185 498 177 498 175 c 0
210 -8 m 0x84
 210 -6 212 -3 214 1 c 2
 622 658 l 2
 627 665 627 668 645 668 c 0
 657 668 662 666 662 662 c 0
 662 661 662 660 661 658 c 2
 251 -1 l 2
 245 -10 244 -13 228 -13 c 0
 214 -13 210 -11 210 -8 c 0x84
78 260 m 0x1a
 78 268 79 275 91 275 c 2
 147 275 l 1
 153 315 192 603 192 626 c 1
 183 625 135 615 132 615 c 0
 126 615 125 622 125 624 c 2
 125 632 l 2
 125 637 127 640 133 641 c 0
 160 644 249 660 253 660 c 0
 259 660 260 656 260 652 c 0
 260 645 247 570 238 512 c 2
 203 275 l 1
 261 275 l 2
 269 275 269 267 269 259 c 0
 269 249 269 248 261 248 c 0
 250 248 199 250 179 250 c 0
 159 250 103 248 88 248 c 0
 78 248 78 249 78 260 c 0x1a
EndSplineSet
EndChar

StartChar: onehalf
Encoding: 189 189 125
Width: 844
GlyphClass: 2
Flags: MW
HStem: -13 21<221 236> 0 47<532 761 579 761 579 764> 248 27<91 95.5 255.5 261 261 265> 367 43<644 688> 615 45 648 20<636 651>
VStem: 192 68<614.5 654> 737 55<282 315>
LayerCount: 2
Back
Fore
SplineSet
525 7 m 0x50
 525 16 579 87 583 90 c 0
 593 99 737 221 737 296 c 0
 737 334 713 367 663 367 c 0
 594 367 560 302 554 302 c 0
 550 302 539 309 539 315 c 0
 539 326 605 410 683 410 c 0
 749 410 792 363 792 302 c 0x51
 792 262 769 225 741 194 c 0
 694 143 639 108 617 90 c 0
 607 82 579 47 579 47 c 1
 761 47 l 1
 763 52 781 107 785 107 c 0
 788 107 803 106 803 102 c 0
 803 96 781 36 773 5 c 0
 772 0 769 0 764 0 c 2
 536 0 l 2
 528 0 525 3 525 7 c 0x50
210 -8 m 0x84
 210 -6 212 -3 214 1 c 2
 622 658 l 2
 627 665 627 668 645 668 c 0
 657 668 662 666 662 662 c 0
 662 661 662 660 661 658 c 2
 251 -1 l 2
 245 -10 244 -13 228 -13 c 0
 214 -13 210 -11 210 -8 c 0x84
78 260 m 0x2a
 78 268 79 275 91 275 c 2
 147 275 l 1
 153 315 192 603 192 626 c 1
 183 625 135 615 132 615 c 0
 126 615 125 622 125 624 c 2
 125 632 l 2
 125 637 127 640 133 641 c 0
 160 644 249 660 253 660 c 0
 259 660 260 656 260 652 c 0
 260 645 247 570 238 512 c 2
 203 275 l 1
 261 275 l 2
 269 275 269 267 269 259 c 0
 269 249 269 248 261 248 c 0
 250 248 199 250 179 250 c 0
 159 250 103 248 88 248 c 0
 78 248 78 249 78 260 c 0x2a
EndSplineSet
EndChar

StartChar: threequarters
Encoding: 190 190 126
Width: 794
GlyphClass: 2
Flags: MW
HStem: -13 21<221 236> -11 21<599 606> 135 38<512 610 688 722> 241 23<134 175 134 177> 432 28<110.5 121> 630 30<161 194> 648 20<636 651>
VStem: 237 55<331 384> 458 40<138 176> 620 30 652 57<331 403>
LayerCount: 2
Back
Fore
SplineSet
458 141 m 0x60e0
 458 148 463 163 475 179 c 0
 509 225 587 299 636 358 c 0
 646 370 655 372 662 379 c 0
 676 393 696 414 702 414 c 0
 708 414 709 406 709 400 c 0
 709 390 679 184 679 184 c 2
 677 173 679 173 688 173 c 2
 725 173 l 2
 729 173 731 172 731 165 c 2
 731 142 l 2
 731 135 730 135 722 135 c 2
 676 135 l 2
 671 135 669 135 668 126 c 0
 662 86 650 3 650 0 c 0
 650 -6 643 -6 642 -7 c 0
 638 -8 611 -11 601 -11 c 0
 597 -11 596 -6 597 -1 c 2
 620 125 l 2
 622 134 620 135 610 135 c 2
 471 135 l 2
 466 135 458 135 458 141 c 0x60e0
498 175 m 0
 498 173 501 173 512 173 c 2
 620 173 l 2
 629 173 628 173 631 186 c 0
 634 204 652 318 652 344 c 1
 643 337 553 239 509 189 c 0
 505 185 498 177 498 175 c 0
210 -8 m 0x82
 210 -6 212 -3 214 1 c 2
 622 658 l 2
 627 665 627 668 645 668 c 0
 657 668 662 666 662 662 c 0
 662 661 662 660 661 658 c 2
 251 -1 l 2
 245 -10 244 -13 228 -13 c 0
 214 -13 210 -11 210 -8 c 0x82
49 277 m 0x1d
 49 286 68 295 79 295 c 0
 109 295 119 264 149 264 c 0
 201 264 237 304 237 358 c 0
 237 410 205 434 151 434 c 0
 141 434 126 432 116 432 c 0
 111 432 109 438 109 445 c 0
 109 449 108 460 113 460 c 0
 130 462 151 465 166 471 c 0
 207 487 236 512 236 565 c 0
 236 606 210 630 178 630 c 0
 133 630 105 596 99 596 c 0
 95 596 86 602 87 608 c 0
 88 616 134 660 188 660 c 0
 257 660 291 614 291 572 c 0
 291 493 190 465 177 459 c 1
 191 455 292 444 292 362 c 0
 292 281 213 241 141 241 c 0
 108 241 49 264 49 277 c 0x1d
EndSplineSet
EndChar

StartChar: questiondown
Encoding: 191 191 127
Width: 374
GlyphClass: 2
Flags: MW
HStem: -8 57<169.5 198 169 205.5> 559 98<239 257.5>
VStem: 35 26<122 161.5 119.5 181> 204 90<598 618.5 598 623.5> 256 34<443 463 424 470>
LayerCount: 2
Back
Fore
SplineSet
35 148 m 0xe8
 35 214 54 230 84 264 c 0
 125 310 153 335 189 371 c 0
 208 390 256 429 256 457 c 0
 256 483 228 506 228 510 c 0
 228 513 237 523 242 523 c 0
 247 523 290 483 290 443 c 0
 290 405 262 371 225 334 c 0
 157 266 61 189 61 134 c 0
 61 105 79 75 98 63 c 0
 120 49 151 49 187 49 c 0
 209 49 258 52 267 52 c 0
 280 52 278 32 279 13 c 0
 280 1 275 -1 261 -3 c 0
 243 -6 214 -8 197 -8 c 0
 142 -8 121 2 107 11 c 0
 63 40 35 96 35 148 c 0xe8
204 606 m 0xf0
 204 641 234 657 244 657 c 0
 272 657 294 626 294 611 c 0
 294 585 267 559 248 559 c 0
 230 559 204 586 204 606 c 0xf0
EndSplineSet
Position2: "'cpsp' Capital Spacing in Latin lookup 0 subtable" dx=4 dy=0 dh=8 dv=0
EndChar

StartChar: Agrave
Encoding: 192 192 128
Width: 688
GlyphClass: 2
Flags: MW
HStem: -3 30<38 45.5 197.5 209 209 214 460 467.5 649.5 657 657 662> 281 24<277.5 469 302 469 469 473> 667 20<482.5 491.5> 729 118<420 480 420 498>
VStem: 402 59<822 822 822 826>
LayerCount: 2
Back
Fore
SplineSet
402 818 m 0
 402 834 409 847 431 847 c 0
 446 847 454 836 461 822 c 2
 501 737 l 2
 502 735 502 734 502 732 c 0
 502 730 502 729 498 729 c 2
 480 729 l 2
 477 729 476 732 473 735 c 2
 412 795 l 2
 406 801 402 809 402 818 c 0
20 15 m 0
 20 27 22 27 38 27 c 2
 71 27 l 2
 79 27 338 489 420 610 c 0
 433 629 454 640 471 673 c 0
 475 681 479 687 486 687 c 0
 497 687 497 678 499 668 c 0
 518 551 603 27 615 27 c 2
 657 27 l 2
 668 27 668 26 668 14 c 0
 668 -1 667 -3 657 -3 c 0
 642 -3 597 0 567 0 c 0
 537 0 479 -3 456 -3 c 0
 443 -3 442 -2 442 15 c 0
 442 27 444 27 460 27 c 2
 517 27 l 2
 519 27 519 31 519 38 c 0
 519 79 494 229 491 262 c 0
 489 281 488 281 473 281 c 2
 284 281 l 2
 271 281 268 279 261 266 c 0
 236 219 140 42 140 28 c 0
 140 27 141 27 141 27 c 1
 209 27 l 2
 220 27 220 26 220 14 c 0
 220 -1 219 -3 209 -3 c 0
 186 -3 137 0 107 0 c 0
 77 0 57 -3 34 -3 c 0
 21 -3 20 -2 20 15 c 0
284 311 m 0
 284 306 290 305 302 305 c 2
 469 305 l 2
 479 305 482 307 482 310 c 0
 482 326 439 579 437 579 c 0
 435 579 430 571 424 560 c 2
 291 326 l 2
 287 319 284 314 284 311 c 0
EndSplineSet
Position2: "'cpsp' Capital Spacing in Latin lookup 0 subtable" dx=4 dy=0 dh=8 dv=0
EndChar

StartChar: Aacute
Encoding: 193 193 129
Width: 688
GlyphClass: 2
Flags: MW
HStem: -3 30<38 45.5 197.5 209 209 214 460 467.5 649.5 657 657 662> 281 24<277.5 469 302 469 469 473> 667 20<482.5 491.5> 729 118<484.5 598.5 486 598.5>
VStem: 482 133
LayerCount: 2
Back
Fore
SplineSet
482 731 m 0
 482 733 484 735 485 737 c 2
 551 822 l 2
 562 836 574 847 589 847 c 0
 608 847 615 837 615 826 c 0
 615 813 607 802 597 795 c 2
 514 735 l 2
 510 732 508 729 505 729 c 2
 486 729 l 2
 483 729 482 730 482 731 c 0
20 15 m 0
 20 27 22 27 38 27 c 2
 71 27 l 2
 79 27 338 489 420 610 c 0
 433 629 454 640 471 673 c 0
 475 681 479 687 486 687 c 0
 497 687 497 678 499 668 c 0
 518 551 603 27 615 27 c 2
 657 27 l 2
 668 27 668 26 668 14 c 0
 668 -1 667 -3 657 -3 c 0
 642 -3 597 0 567 0 c 0
 537 0 479 -3 456 -3 c 0
 443 -3 442 -2 442 15 c 0
 442 27 444 27 460 27 c 2
 517 27 l 2
 519 27 519 31 519 38 c 0
 519 79 494 229 491 262 c 0
 489 281 488 281 473 281 c 2
 284 281 l 2
 271 281 268 279 261 266 c 0
 236 219 140 42 140 28 c 0
 140 27 141 27 141 27 c 1
 209 27 l 2
 220 27 220 26 220 14 c 0
 220 -1 219 -3 209 -3 c 0
 186 -3 137 0 107 0 c 0
 77 0 57 -3 34 -3 c 0
 21 -3 20 -2 20 15 c 0
284 311 m 0
 284 306 290 305 302 305 c 2
 469 305 l 2
 479 305 482 307 482 310 c 0
 482 326 439 579 437 579 c 0
 435 579 430 571 424 560 c 2
 291 326 l 2
 287 319 284 314 284 311 c 0
EndSplineSet
Position2: "'cpsp' Capital Spacing in Latin lookup 0 subtable" dx=4 dy=0 dh=8 dv=0
EndChar

StartChar: Acircumflex
Encoding: 194 194 130
Width: 688
GlyphClass: 2
Flags: MW
HStem: -3 30<38 45.5 197.5 209 209 214 460 467.5 649.5 657 657 662> 281 24<277.5 469 302 469 469 473> 667 20<482.5 491.5> 729 110<393 523 503 577 503 589>
VStem: 388 206<730.5 731.5>
LayerCount: 2
Back
Fore
SplineSet
388 731 m 0
 388 732 389 733 392 736 c 2
 483 828 l 2
 493 838 493 839 503 839 c 2
 523 839 l 2
 533 839 533 838 539 828 c 2
 592 736 l 2
 594 733 594 732 594 731 c 0
 594 730 593 729 589 729 c 2
 577 729 l 2
 576 729 574 731 570 735 c 2
 507 787 l 2
 503 791 503 790 499 787 c 2
 414 735 l 2
 409 732 406 729 405 729 c 2
 393 729 l 2
 390 729 388 730 388 731 c 0
20 15 m 0
 20 27 22 27 38 27 c 2
 71 27 l 2
 79 27 338 489 420 610 c 0
 433 629 454 640 471 673 c 0
 475 681 479 687 486 687 c 0
 497 687 497 678 499 668 c 0
 518 551 603 27 615 27 c 2
 657 27 l 2
 668 27 668 26 668 14 c 0
 668 -1 667 -3 657 -3 c 0
 642 -3 597 0 567 0 c 0
 537 0 479 -3 456 -3 c 0
 443 -3 442 -2 442 15 c 0
 442 27 444 27 460 27 c 2
 517 27 l 2
 519 27 519 31 519 38 c 0
 519 79 494 229 491 262 c 0
 489 281 488 281 473 281 c 2
 284 281 l 2
 271 281 268 279 261 266 c 0
 236 219 140 42 140 28 c 0
 140 27 141 27 141 27 c 1
 209 27 l 2
 220 27 220 26 220 14 c 0
 220 -1 219 -3 209 -3 c 0
 186 -3 137 0 107 0 c 0
 77 0 57 -3 34 -3 c 0
 21 -3 20 -2 20 15 c 0
284 311 m 0
 284 306 290 305 302 305 c 2
 469 305 l 2
 479 305 482 307 482 310 c 0
 482 326 439 579 437 579 c 0
 435 579 430 571 424 560 c 2
 291 326 l 2
 287 319 284 314 284 311 c 0
EndSplineSet
Position2: "'cpsp' Capital Spacing in Latin lookup 0 subtable" dx=4 dy=0 dh=8 dv=0
EndChar

StartChar: Atilde
Encoding: 195 195 131
Width: 688
GlyphClass: 2
Flags: MW
HStem: -3 30<38 45.5 197.5 209 209 214 460 467.5 649.5 657 657 662> 281 24<277.5 469 302 469 469 473> 667 20<482.5 491.5> 743 43<534 542> 778 44<459.5 464.5>
VStem: 587 19
LayerCount: 2
Back
Fore
SplineSet
393 745 m 0x14
 394 750 400 763 404 770 c 0
 425 806 452 822 467 822 c 0x0c
 497 822 521 786 547 786 c 0
 568 786 579 805 587 819 c 0
 590 826 591 826 600 826 c 0
 604 826 606 826 606 824 c 0
 605 817 599 806 595 798 c 0
 578 766 555 743 529 743 c 0x14
 495 743 480 778 449 778 c 0x0c
 428 778 418 762 411 749 c 0
 408 743 407 743 399 743 c 0
 395 743 393 743 393 745 c 0x14
20 15 m 0xe0
 20 27 22 27 38 27 c 2
 71 27 l 2
 79 27 338 489 420 610 c 0
 433 629 454 640 471 673 c 0
 475 681 479 687 486 687 c 0
 497 687 497 678 499 668 c 0
 518 551 603 27 615 27 c 2
 657 27 l 2
 668 27 668 26 668 14 c 0
 668 -1 667 -3 657 -3 c 0
 642 -3 597 0 567 0 c 0
 537 0 479 -3 456 -3 c 0
 443 -3 442 -2 442 15 c 0
 442 27 444 27 460 27 c 2
 517 27 l 2
 519 27 519 31 519 38 c 0
 519 79 494 229 491 262 c 0
 489 281 488 281 473 281 c 2
 284 281 l 2
 271 281 268 279 261 266 c 0
 236 219 140 42 140 28 c 0
 140 27 141 27 141 27 c 1
 209 27 l 2
 220 27 220 26 220 14 c 0
 220 -1 219 -3 209 -3 c 0
 186 -3 137 0 107 0 c 0
 77 0 57 -3 34 -3 c 0
 21 -3 20 -2 20 15 c 0xe0
284 311 m 0
 284 306 290 305 302 305 c 2
 469 305 l 2
 479 305 482 307 482 310 c 0
 482 326 439 579 437 579 c 0
 435 579 430 571 424 560 c 2
 291 326 l 2
 287 319 284 314 284 311 c 0
EndSplineSet
Position2: "'cpsp' Capital Spacing in Latin lookup 0 subtable" dx=4 dy=0 dh=8 dv=0
EndChar

StartChar: Adieresis
Encoding: 196 196 132
Width: 688
GlyphClass: 2
Flags: MW
HStem: -3 30<38 45.5 197.5 209 209 214 460 467.5 649.5 657 657 662> 281 24<277.5 469 302 469 469 473> 667 20<482.5 491.5> 737 94<419.5 445.5 418 446 559.5 585.5>
VStem: 390 85<774.5 793.5 770 798> 530 85<774.5 793.5>
LayerCount: 2
Back
Fore
SplineSet
390 785 m 0
 390 811 405 831 431 831 c 0
 460 831 475 804 475 783 c 0
 475 757 458 737 434 737 c 0
 405 737 390 764 390 785 c 0
530 785 m 0
 530 811 545 831 571 831 c 0
 600 831 615 804 615 783 c 0
 615 757 598 737 574 737 c 0
 545 737 530 764 530 785 c 0
20 15 m 0
 20 27 22 27 38 27 c 2
 71 27 l 2
 79 27 338 489 420 610 c 0
 433 629 454 640 471 673 c 0
 475 681 479 687 486 687 c 0
 497 687 497 678 499 668 c 0
 518 551 603 27 615 27 c 2
 657 27 l 2
 668 27 668 26 668 14 c 0
 668 -1 667 -3 657 -3 c 0
 642 -3 597 0 567 0 c 0
 537 0 479 -3 456 -3 c 0
 443 -3 442 -2 442 15 c 0
 442 27 444 27 460 27 c 2
 517 27 l 2
 519 27 519 31 519 38 c 0
 519 79 494 229 491 262 c 0
 489 281 488 281 473 281 c 2
 284 281 l 2
 271 281 268 279 261 266 c 0
 236 219 140 42 140 28 c 0
 140 27 141 27 141 27 c 1
 209 27 l 2
 220 27 220 26 220 14 c 0
 220 -1 219 -3 209 -3 c 0
 186 -3 137 0 107 0 c 0
 77 0 57 -3 34 -3 c 0
 21 -3 20 -2 20 15 c 0
284 311 m 0
 284 306 290 305 302 305 c 2
 469 305 l 2
 479 305 482 307 482 310 c 0
 482 326 439 579 437 579 c 0
 435 579 430 571 424 560 c 2
 291 326 l 2
 287 319 284 314 284 311 c 0
EndSplineSet
Position2: "'cpsp' Capital Spacing in Latin lookup 0 subtable" dx=4 dy=0 dh=8 dv=0
EndChar

StartChar: Aring
Encoding: 197 197 133
Width: 688
GlyphClass: 2
Flags: MW
HStem: -3 30<38 45.5 197.5 209 209 214 460 467.5 649.5 657 657 662> 281 24<277.5 469 302 469 469 473> 667 20<482.5 491.5> 713 28<489.5 512.5 489.5 519.5> 821 28<489.5 512.5>
VStem: 433 28<769.5 792.5 769.5 799.5> 541 28<769.5 792.5>
LayerCount: 2
Back
Fore
SplineSet
433 781 m 0
 433 818 464 849 501 849 c 0
 538 849 569 818 569 781 c 0
 569 744 538 713 501 713 c 0
 464 713 433 744 433 781 c 0
461 781 m 0
 461 758 478 741 501 741 c 0
 524 741 541 758 541 781 c 0
 541 804 524 821 501 821 c 0
 478 821 461 804 461 781 c 0
20 15 m 0
 20 27 22 27 38 27 c 2
 71 27 l 2
 79 27 338 489 420 610 c 0
 433 629 454 640 471 673 c 0
 475 681 479 687 486 687 c 0
 497 687 497 678 499 668 c 0
 518 551 603 27 615 27 c 2
 657 27 l 2
 668 27 668 26 668 14 c 0
 668 -1 667 -3 657 -3 c 0
 642 -3 597 0 567 0 c 0
 537 0 479 -3 456 -3 c 0
 443 -3 442 -2 442 15 c 0
 442 27 444 27 460 27 c 2
 517 27 l 2
 519 27 519 31 519 38 c 0
 519 79 494 229 491 262 c 0
 489 281 488 281 473 281 c 2
 284 281 l 2
 271 281 268 279 261 266 c 0
 236 219 140 42 140 28 c 0
 140 27 141 27 141 27 c 1
 209 27 l 2
 220 27 220 26 220 14 c 0
 220 -1 219 -3 209 -3 c 0
 186 -3 137 0 107 0 c 0
 77 0 57 -3 34 -3 c 0
 21 -3 20 -2 20 15 c 0
284 311 m 0
 284 306 290 305 302 305 c 2
 469 305 l 2
 479 305 482 307 482 310 c 0
 482 326 439 579 437 579 c 0
 435 579 430 571 424 560 c 2
 291 326 l 2
 287 319 284 314 284 311 c 0
EndSplineSet
Position2: "'cpsp' Capital Spacing in Latin lookup 0 subtable" dx=4 dy=0 dh=8 dv=0
EndChar

StartChar: AE
Encoding: 198 198 134
Width: 968
GlyphClass: 2
Flags: MW
HStem: -3 30<8 15.5 172.5 184 184 189 427 434.5> -3 40<879 883 879 894> 301 24<344 512> 325 27<604.5 776 612 763> 636 29<449 451.5 444 455 444 523>
VStem: 813 50 834 29<418 418> 896 31<553 554 550 560.5> 906 30<678 678> 917 31
LayerCount: 2
Back
Fore
SplineSet
-10 15 m 0xa880
 -10 27 -8 27 8 27 c 2
 41 27 l 2
 57 27 427 521 523 636 c 1
 455 636 l 2
 443 636 436 636 436 651 c 0
 436 663 440 665 448 665 c 0
 455 665 567 662 602 662 c 0
 655 662 768 665 811 665 c 0
 878 665 904 666 906 678 c 0
 907 688 911 690 919 690 c 0
 933 690 936 689 936 679 c 0xa880
 936 660 929 634 927 554 c 0
 927 546 925 544 911 544 c 0
 899 544 896 548 896 558 c 0
 896 563 902 625 902 631 c 0
 902 635 750 638 639 638 c 0
 634 638 608 444 600 382 c 0
 599 375 597 365 597 358 c 0
 597 352 600 352 612 352 c 2
 776 352 l 2
 795 352 821 352 823 365 c 2
 834 418 l 2x9b
 835 424 842 425 850 425 c 0
 857 425 863 424 863 419 c 0
 863 410 853 370 846 332 c 0
 840 300 833 256 831 243 c 0
 830 238 825 236 818 236 c 0
 810 236 801 238 801 244 c 0
 804 262 813 307 813 311 c 0
 813 321 805 325 763 325 c 2
 612 325 l 2
 597 325 594 325 592 315 c 0
 589 299 558 83 553 39 c 0
 553 32 555 30 560 30 c 0
 586 30 879 37 879 37 c 2
 887 37 904 103 917 134 c 0
 919 139 923 143 931 143 c 0
 939 143 948 138 948 132 c 0x5c40
 948 121 927 71 906 8 c 0
 903 -1 899 -3 889 -3 c 0x5880
 866 -3 556 0 526 0 c 0
 496 0 446 -3 423 -3 c 0
 410 -3 409 -2 409 15 c 0
 409 27 411 27 427 27 c 2
 470 27 l 1
 512 301 l 1
 311 301 l 2
 304 301 296 298 288 286 c 0
 258 242 115 42 115 28 c 0
 115 27 116 27 116 27 c 1
 184 27 l 2
 195 27 195 26 195 14 c 0
 195 -1 194 -3 184 -3 c 0
 161 -3 107 0 77 0 c 0
 47 0 27 -3 4 -3 c 0
 -9 -3 -10 -2 -10 15 c 0xa880
323 331 m 0
 323 326 332 325 344 325 c 2x28
 516 325 l 1x18
 536 470 l 2
 541 506 556 606 556 624 c 0
 556 630 555 632 553 632 c 0
 550 632 546 628 542 622 c 2
 333 346 l 2
 328 339 323 334 323 331 c 0
EndSplineSet
Position2: "'cpsp' Capital Spacing in Latin lookup 0 subtable" dx=4 dy=0 dh=8 dv=0
EndChar

StartChar: Ccedilla
Encoding: 199 199 135
Width: 686
GlyphClass: 2
Flags: MW
HStem: -217 23<309 344.5 306.5 364.5> -100 31<343 344 343 362> -14 34<368 368> 643 28<318.5 441 302 450.5>
VStem: 35 90<203.5 367.5 203.5 399.5> 301 38<-103 -66> 391 54<-156 -135> 576 40 603 48 610 41
LayerCount: 2
Back
Fore
SplineSet
35 291 m 0xff
 35 508 206 671 398 671 c 0
 484 671 566 632 610 584 c 1xfe40
 612 591 620 625 622 625 c 0
 631 625 651 620 651 614 c 0xfe80
 651 608 621 461 616 435 c 0xff
 615 429 608 430 603 430 c 0
 590 430 580 437 580 441 c 0
 580 445 603 529 603 538 c 0xfe80
 603 544 504 643 397 643 c 0
 240 643 125 447 125 288 c 0
 125 119 234 20 367 20 c 0
 470 20 546 81 551 96 c 0
 562 128 570 158 576 180 c 0
 580 193 586 192 599 189 c 0
 608 187 616 183 616 178 c 0
 616 173 604 132 583 62 c 0
 577 43 462 -11 368 -14 c 1
 356 -35 339 -65 339 -67 c 0
 339 -70 342 -69 344 -69 c 0
 348 -68 358 -67 368 -67 c 0
 416 -67 445 -98 445 -131 c 0
 445 -181 396 -217 333 -217 c 0
 285 -217 258 -194 258 -190 c 0
 258 -187 258 -180 266 -180 c 0
 269 -180 291 -194 322 -194 c 0
 367 -194 391 -179 391 -145 c 0
 391 -125 380 -100 344 -100 c 0
 326 -100 311 -106 308 -106 c 0
 306 -106 301 -104 301 -102 c 0
 301 -100 333 -45 350 -14 c 1
 191 -11 35 69 35 291 c 0xff
EndSplineSet
Position2: "'cpsp' Capital Spacing in Latin lookup 0 subtable" dx=4 dy=0 dh=8 dv=0
EndChar

StartChar: Egrave
Encoding: 200 200 136
Width: 579
GlyphClass: 2
Flags: MW
HStem: -3 40<490 494 490 505> 0 30<122 184> 325 27<215.5 387 223 374> 636 29<100 102.5 95 106 95 161> 729 118<271 331 271 349>
VStem: 253 59<822 822 822 826> 424 50 507 31<553 554 550 560.5> 517 30<678 678>
LayerCount: 2
Back
Fore
SplineSet
253 818 m 0x0c
 253 834 260 847 282 847 c 0
 297 847 305 836 312 822 c 2
 352 737 l 2
 353 735 353 734 353 732 c 0
 353 730 353 729 349 729 c 2
 331 729 l 2
 328 729 327 732 324 735 c 2
 263 795 l 2
 257 801 253 809 253 818 c 0x0c
20 15 m 0x3080
 20 27 22 27 38 27 c 2
 81 27 l 1
 81 27 164 546 164 626 c 0
 164 633 162 636 161 636 c 2
 106 636 l 2
 94 636 87 636 87 651 c 0
 87 663 91 665 99 665 c 0
 106 665 178 662 213 662 c 0
 266 662 379 665 422 665 c 0
 489 665 515 666 517 678 c 0
 518 688 522 690 530 690 c 0
 544 690 547 689 547 679 c 0x3080
 547 660 540 634 538 554 c 0
 538 546 536 544 522 544 c 0
 510 544 507 548 507 558 c 0
 507 563 513 625 513 631 c 0
 513 635 361 638 250 638 c 0
 245 638 218 436 209 369 c 0
 207 354 205 352 223 352 c 2
 387 352 l 2
 406 352 432 352 434 365 c 2
 445 418 l 2x31
 446 424 453 425 461 425 c 0
 468 425 474 424 474 419 c 0
 474 410 464 370 457 332 c 0
 451 300 444 256 442 243 c 0
 441 238 436 236 429 236 c 0
 421 236 412 238 412 244 c 0
 415 262 424 307 424 311 c 0
 424 321 416 325 374 325 c 2
 223 325 l 2
 208 325 205 325 203 315 c 0
 200 299 169 83 164 39 c 0
 164 32 166 30 171 30 c 0
 197 30 490 37 490 37 c 2
 498 37 515 103 528 134 c 0
 530 139 534 143 542 143 c 0
 550 143 559 138 559 132 c 0xb2
 559 121 538 71 517 8 c 0
 514 -1 510 -3 500 -3 c 0xb080
 477 -3 167 0 137 0 c 0
 107 0 57 -3 34 -3 c 0
 21 -3 20 -2 20 15 c 0x3080
EndSplineSet
Position2: "'cpsp' Capital Spacing in Latin lookup 0 subtable" dx=4 dy=0 dh=8 dv=0
EndChar

StartChar: Eacute
Encoding: 201 201 137
Width: 579
GlyphClass: 2
Flags: MW
HStem: -3 40<490 494 490 505> 0 30<122 184> 325 27<215.5 387 223 374> 636 29<100 102.5 95 106 95 161> 729 118<335.5 449.5 337 449.5>
VStem: 333 133<730.5 831.5> 424 50 507 31<553 554 550 560.5> 517 30<678 678>
LayerCount: 2
Back
Fore
SplineSet
333 731 m 0x0c
 333 733 335 735 336 737 c 2
 402 822 l 2
 413 836 425 847 440 847 c 0
 459 847 466 837 466 826 c 0
 466 813 458 802 448 795 c 2
 365 735 l 2
 361 732 359 729 356 729 c 2
 337 729 l 2
 334 729 333 730 333 731 c 0x0c
20 15 m 0x3080
 20 27 22 27 38 27 c 2
 81 27 l 1
 81 27 164 546 164 626 c 0
 164 633 162 636 161 636 c 2
 106 636 l 2
 94 636 87 636 87 651 c 0
 87 663 91 665 99 665 c 0
 106 665 178 662 213 662 c 0
 266 662 379 665 422 665 c 0
 489 665 515 666 517 678 c 0
 518 688 522 690 530 690 c 0
 544 690 547 689 547 679 c 0x3080
 547 660 540 634 538 554 c 0
 538 546 536 544 522 544 c 0
 510 544 507 548 507 558 c 0
 507 563 513 625 513 631 c 0
 513 635 361 638 250 638 c 0
 245 638 218 436 209 369 c 0
 207 354 205 352 223 352 c 2
 387 352 l 2
 406 352 432 352 434 365 c 2
 445 418 l 2x31
 446 424 453 425 461 425 c 0
 468 425 474 424 474 419 c 0
 474 410 464 370 457 332 c 0
 451 300 444 256 442 243 c 0
 441 238 436 236 429 236 c 0
 421 236 412 238 412 244 c 0
 415 262 424 307 424 311 c 0
 424 321 416 325 374 325 c 2
 223 325 l 2
 208 325 205 325 203 315 c 0
 200 299 169 83 164 39 c 0
 164 32 166 30 171 30 c 0
 197 30 490 37 490 37 c 2
 498 37 515 103 528 134 c 0
 530 139 534 143 542 143 c 0
 550 143 559 138 559 132 c 0xb2
 559 121 538 71 517 8 c 0
 514 -1 510 -3 500 -3 c 0xb080
 477 -3 167 0 137 0 c 0
 107 0 57 -3 34 -3 c 0
 21 -3 20 -2 20 15 c 0x3080
EndSplineSet
Position2: "'cpsp' Capital Spacing in Latin lookup 0 subtable" dx=4 dy=0 dh=8 dv=0
EndChar

StartChar: Ecircumflex
Encoding: 202 202 138
Width: 579
GlyphClass: 2
Flags: MW
HStem: -3 40<490 494 490 505> 0 30<122 184> 325 27<215.5 387 223 374> 636 29<100 102.5 95 106 95 161> 729 110<244 374 354 428 354 440>
VStem: 239 206<730.5 731.5> 424 50 507 31<553 554 550 560.5> 517 30<678 678>
LayerCount: 2
Back
Fore
SplineSet
239 731 m 0x0c
 239 732 240 733 243 736 c 2
 334 828 l 2
 344 838 344 839 354 839 c 2
 374 839 l 2
 384 839 384 838 390 828 c 2
 443 736 l 2
 445 733 445 732 445 731 c 0
 445 730 444 729 440 729 c 2
 428 729 l 2
 427 729 425 731 421 735 c 2
 358 787 l 2
 354 791 354 790 350 787 c 2
 265 735 l 2
 260 732 257 729 256 729 c 2
 244 729 l 2
 241 729 239 730 239 731 c 0x0c
20 15 m 0x3080
 20 27 22 27 38 27 c 2
 81 27 l 1
 81 27 164 546 164 626 c 0
 164 633 162 636 161 636 c 2
 106 636 l 2
 94 636 87 636 87 651 c 0
 87 663 91 665 99 665 c 0
 106 665 178 662 213 662 c 0
 266 662 379 665 422 665 c 0
 489 665 515 666 517 678 c 0
 518 688 522 690 530 690 c 0
 544 690 547 689 547 679 c 0x3080
 547 660 540 634 538 554 c 0
 538 546 536 544 522 544 c 0
 510 544 507 548 507 558 c 0
 507 563 513 625 513 631 c 0
 513 635 361 638 250 638 c 0
 245 638 218 436 209 369 c 0
 207 354 205 352 223 352 c 2
 387 352 l 2
 406 352 432 352 434 365 c 2
 445 418 l 2x31
 446 424 453 425 461 425 c 0
 468 425 474 424 474 419 c 0
 474 410 464 370 457 332 c 0
 451 300 444 256 442 243 c 0
 441 238 436 236 429 236 c 0
 421 236 412 238 412 244 c 0
 415 262 424 307 424 311 c 0
 424 321 416 325 374 325 c 2
 223 325 l 2
 208 325 205 325 203 315 c 0
 200 299 169 83 164 39 c 0
 164 32 166 30 171 30 c 0
 197 30 490 37 490 37 c 2
 498 37 515 103 528 134 c 0
 530 139 534 143 542 143 c 0
 550 143 559 138 559 132 c 0xb2
 559 121 538 71 517 8 c 0
 514 -1 510 -3 500 -3 c 0xb080
 477 -3 167 0 137 0 c 0
 107 0 57 -3 34 -3 c 0
 21 -3 20 -2 20 15 c 0x3080
EndSplineSet
Position2: "'cpsp' Capital Spacing in Latin lookup 0 subtable" dx=4 dy=0 dh=8 dv=0
EndChar

StartChar: Edieresis
Encoding: 203 203 139
Width: 579
GlyphClass: 2
Flags: MW
HStem: -3 40<490 494 490 505> 0 30<122 184> 325 27<215.5 387 223 374> 636 29<100 102.5 95 106 95 161> 737 94<270.5 296.5 269 297 410.5 436.5>
VStem: 241 85<774.5 793.5 770 798> 381 85<774.5 793.5 770 798> 424 50 507 31<553 554 550 560.5> 517 30<678 678>
LayerCount: 2
Back
Fore
SplineSet
241 785 m 0x0e
 241 811 256 831 282 831 c 0
 311 831 326 804 326 783 c 0
 326 757 309 737 285 737 c 0
 256 737 241 764 241 785 c 0x0e
381 785 m 0
 381 811 396 831 422 831 c 0
 451 831 466 804 466 783 c 0
 466 757 449 737 425 737 c 0
 396 737 381 764 381 785 c 0
20 15 m 0x3040
 20 27 22 27 38 27 c 2
 81 27 l 1
 81 27 164 546 164 626 c 0
 164 633 162 636 161 636 c 2
 106 636 l 2
 94 636 87 636 87 651 c 0
 87 663 91 665 99 665 c 0
 106 665 178 662 213 662 c 0
 266 662 379 665 422 665 c 0
 489 665 515 666 517 678 c 0
 518 688 522 690 530 690 c 0
 544 690 547 689 547 679 c 0x3040
 547 660 540 634 538 554 c 0
 538 546 536 544 522 544 c 0
 510 544 507 548 507 558 c 0
 507 563 513 625 513 631 c 0
 513 635 361 638 250 638 c 0
 245 638 218 436 209 369 c 0
 207 354 205 352 223 352 c 2
 387 352 l 2
 406 352 432 352 434 365 c 2
 445 418 l 2x3080
 446 424 453 425 461 425 c 0
 468 425 474 424 474 419 c 0
 474 410 464 370 457 332 c 0
 451 300 444 256 442 243 c 0
 441 238 436 236 429 236 c 0
 421 236 412 238 412 244 c 0
 415 262 424 307 424 311 c 0
 424 321 416 325 374 325 c 2
 223 325 l 2
 208 325 205 325 203 315 c 0
 200 299 169 83 164 39 c 0
 164 32 166 30 171 30 c 0
 197 30 490 37 490 37 c 2
 498 37 515 103 528 134 c 0
 530 139 534 143 542 143 c 0
 550 143 559 138 559 132 c 0xb1
 559 121 538 71 517 8 c 0
 514 -1 510 -3 500 -3 c 0xb040
 477 -3 167 0 137 0 c 0
 107 0 57 -3 34 -3 c 0
 21 -3 20 -2 20 15 c 0x3040
EndSplineSet
Position2: "'cpsp' Capital Spacing in Latin lookup 0 subtable" dx=4 dy=0 dh=8 dv=0
EndChar

StartChar: Igrave
Encoding: 204 204 140
Width: 377
GlyphClass: 2
Flags: MW
HStem: 0 27 639 30<108.5 127 112.5 127 112.5 178 331.5 339> 729 118<169 229 169 247>
VStem: 151 59<822 822 822 826>
LayerCount: 2
Back
Fore
SplineSet
151 818 m 0
 151 834 158 847 180 847 c 0
 195 847 203 836 210 822 c 2
 250 737 l 2
 251 735 251 734 251 732 c 0
 251 730 251 729 247 729 c 2
 229 729 l 2
 226 729 225 732 222 735 c 2
 161 795 l 2
 155 801 151 809 151 818 c 0
20 15 m 0
 20 27 22 27 38 27 c 2
 98 27 l 2
 105 27 187 572 187 623 c 0
 187 633 185 639 178 639 c 2
 112 639 l 2
 105 639 100 640 100 654 c 0
 100 669 106 669 119 669 c 0
 135 669 204 666 234 666 c 0
 264 666 320 669 343 669 c 0
 356 669 357 668 357 651 c 0
 357 639 355 639 339 639 c 2
 282 639 l 2
 270 639 194 100 194 40 c 0
 194 32 196 27 202 27 c 2
 268 27 l 2
 279 27 279 26 279 14 c 0
 279 -1 278 -3 268 -3 c 0
 245 -3 177 0 147 0 c 0
 117 0 57 -3 34 -3 c 0
 21 -3 20 -2 20 15 c 0
EndSplineSet
Position2: "'cpsp' Capital Spacing in Latin lookup 0 subtable" dx=4 dy=0 dh=8 dv=0
EndChar

StartChar: Iacute
Encoding: 205 205 141
Width: 377
GlyphClass: 2
Flags: MW
HStem: 0 27 639 30<108.5 127 112.5 127 112.5 178 331.5 339> 729 118<233.5 347.5 235 347.5>
VStem: 231 133<730.5 831.5>
LayerCount: 2
Back
Fore
SplineSet
231 731 m 0
 231 733 233 735 234 737 c 2
 300 822 l 2
 311 836 323 847 338 847 c 0
 357 847 364 837 364 826 c 0
 364 813 356 802 346 795 c 2
 263 735 l 2
 259 732 257 729 254 729 c 2
 235 729 l 2
 232 729 231 730 231 731 c 0
20 15 m 0
 20 27 22 27 38 27 c 2
 98 27 l 2
 105 27 187 572 187 623 c 0
 187 633 185 639 178 639 c 2
 112 639 l 2
 105 639 100 640 100 654 c 0
 100 669 106 669 119 669 c 0
 135 669 204 666 234 666 c 0
 264 666 320 669 343 669 c 0
 356 669 357 668 357 651 c 0
 357 639 355 639 339 639 c 2
 282 639 l 2
 270 639 194 100 194 40 c 0
 194 32 196 27 202 27 c 2
 268 27 l 2
 279 27 279 26 279 14 c 0
 279 -1 278 -3 268 -3 c 0
 245 -3 177 0 147 0 c 0
 117 0 57 -3 34 -3 c 0
 21 -3 20 -2 20 15 c 0
EndSplineSet
Position2: "'cpsp' Capital Spacing in Latin lookup 0 subtable" dx=4 dy=0 dh=8 dv=0
EndChar

StartChar: Icircumflex
Encoding: 206 206 142
Width: 377
GlyphClass: 2
Flags: MW
HStem: 0 27 639 30<108.5 127 112.5 127 112.5 178 331.5 339> 729 110<142 272 252 326 252 338>
VStem: 137 206<730.5 731.5>
LayerCount: 2
Back
Fore
SplineSet
137 731 m 0
 137 732 138 733 141 736 c 2
 232 828 l 2
 242 838 242 839 252 839 c 2
 272 839 l 2
 282 839 282 838 288 828 c 2
 341 736 l 2
 343 733 343 732 343 731 c 0
 343 730 342 729 338 729 c 2
 326 729 l 2
 325 729 323 731 319 735 c 2
 256 787 l 2
 252 791 252 790 248 787 c 2
 163 735 l 2
 158 732 155 729 154 729 c 2
 142 729 l 2
 139 729 137 730 137 731 c 0
20 15 m 0
 20 27 22 27 38 27 c 2
 98 27 l 2
 105 27 187 572 187 623 c 0
 187 633 185 639 178 639 c 2
 112 639 l 2
 105 639 100 640 100 654 c 0
 100 669 106 669 119 669 c 0
 135 669 204 666 234 666 c 0
 264 666 320 669 343 669 c 0
 356 669 357 668 357 651 c 0
 357 639 355 639 339 639 c 2
 282 639 l 2
 270 639 194 100 194 40 c 0
 194 32 196 27 202 27 c 2
 268 27 l 2
 279 27 279 26 279 14 c 0
 279 -1 278 -3 268 -3 c 0
 245 -3 177 0 147 0 c 0
 117 0 57 -3 34 -3 c 0
 21 -3 20 -2 20 15 c 0
EndSplineSet
Position2: "'cpsp' Capital Spacing in Latin lookup 0 subtable" dx=4 dy=0 dh=8 dv=0
EndChar

StartChar: Idieresis
Encoding: 207 207 143
Width: 377
GlyphClass: 2
Flags: MW
HStem: 0 27 639 30<108.5 127 112.5 127 112.5 178 331.5 339> 737 94<168.5 194.5 167 195 308.5 334.5>
VStem: 139 85<774.5 793.5 770 798> 279 85<774.5 793.5 770 798>
LayerCount: 2
Back
Fore
SplineSet
139 785 m 0
 139 811 154 831 180 831 c 0
 209 831 224 804 224 783 c 0
 224 757 207 737 183 737 c 0
 154 737 139 764 139 785 c 0
279 785 m 0
 279 811 294 831 320 831 c 0
 349 831 364 804 364 783 c 0
 364 757 347 737 323 737 c 0
 294 737 279 764 279 785 c 0
20 15 m 0
 20 27 22 27 38 27 c 2
 98 27 l 2
 105 27 187 572 187 623 c 0
 187 633 185 639 178 639 c 2
 112 639 l 2
 105 639 100 640 100 654 c 0
 100 669 106 669 119 669 c 0
 135 669 204 666 234 666 c 0
 264 666 320 669 343 669 c 0
 356 669 357 668 357 651 c 0
 357 639 355 639 339 639 c 2
 282 639 l 2
 270 639 194 100 194 40 c 0
 194 32 196 27 202 27 c 2
 268 27 l 2
 279 27 279 26 279 14 c 0
 279 -1 278 -3 268 -3 c 0
 245 -3 177 0 147 0 c 0
 117 0 57 -3 34 -3 c 0
 21 -3 20 -2 20 15 c 0
EndSplineSet
Position2: "'cpsp' Capital Spacing in Latin lookup 0 subtable" dx=4 dy=0 dh=8 dv=0
EndChar

StartChar: Eth
Encoding: 208 208 144
Width: 742
GlyphClass: 2
Flags: MW
HStem: -4 29<24.5 79 319.5 352> 321 24<47.5 120 49 113 220 416> 635 28<327 419>
VStem: 614 88<316.5 443.5>
LayerCount: 2
Back
Fore
SplineSet
19 10 m 0
 19 25 23 25 36 25 c 2
 79 25 l 2
 83 25 104 164 125 310 c 0
 127 321 124 321 113 321 c 2
 49 321 l 2
 46 321 45 345 49 345 c 2
 120 345 l 2
 129 345 130 348 131 357 c 0
 148 476 163 590 167 625 c 0
 168 632 164 636 163 636 c 2
 93 634 l 2
 84 634 80 634 80 646 c 0
 80 658 80 662 93 662 c 0
 97 662 178 661 212 661 c 0
 272 661 310 663 344 663 c 0
 551 663 702 570 702 335 c 0
 702 113 534 -2 352 -4 c 0
 287 -4 192 0 127 0 c 0
 99 0 41 -4 30 -4 c 0
 19 -4 19 -2 19 10 c 0
171 46 m 0
 171 36 174 31 177 29 c 0
 183 25 216 25 236 25 c 0
 577 25 614 268 614 365 c 0
 614 522 522 635 316 635 c 0
 296 635 267 635 253 631 c 1
 212 357 l 2
 211 348 210 345 220 345 c 2
 416 345 l 2
 420 345 420 321 416 321 c 2
 219 321 l 2
 207 321 207 321 205 310 c 0
 187 185 171 67 171 46 c 0
EndSplineSet
Position2: "'cpsp' Capital Spacing in Latin lookup 0 subtable" dx=4 dy=0 dh=8 dv=0
EndChar

StartChar: Ntilde
Encoding: 209 209 145
Width: 824
GlyphClass: 2
Flags: MW
HStem: -21 21 0 27<38 136> 639 30<96 101 101 108 96 151 612 617 617 628.5 778.5 786> 743 43<507 515> 778 44<432.5 437.5>
VStem: 88 51<27 85> 188 21 560 19
LayerCount: 2
Back
Fore
SplineSet
366 745 m 0x11
 367 750 373 763 377 770 c 0
 398 806 425 822 440 822 c 0x09
 470 822 494 786 520 786 c 0
 541 786 552 805 560 819 c 0
 563 826 564 826 573 826 c 0
 577 826 579 826 579 824 c 0
 578 817 572 806 568 798 c 0
 551 766 528 743 502 743 c 0x11
 468 743 453 778 422 778 c 0x09
 401 778 391 762 384 749 c 0
 381 743 380 743 372 743 c 0
 368 743 366 743 366 745 c 0x11
20 15 m 0x26
 20 27 22 27 38 27 c 2
 88 27 l 1x26
 116 200 146 372 177 541 c 0
 180 561 188 596 188 614 c 0
 188 618 187 619 183 626 c 0
 176 639 172 639 151 639 c 2
 101 639 l 2
 90 639 90 640 90 652 c 0
 90 667 91 669 101 669 c 0
 115 669 192 666 213 666 c 0
 235 666 252 669 258 669 c 0
 269 669 271 667 278 656 c 2
 607 157 l 2
 615 145 620 145 623 145 c 0
 632 145 695 567 695 627 c 0
 695 635 695 639 693 639 c 2
 617 639 l 2
 606 639 606 640 606 652 c 0
 606 667 607 669 617 669 c 0
 640 669 676 666 706 666 c 0
 736 666 767 669 790 669 c 0
 803 669 804 668 804 651 c 0
 804 639 802 639 786 639 c 2
 744 639 l 2
 739 639 686 311 664 172 c 0
 660 147 655 123 648 4 c 0
 647 -15 644 -21 632 -21 c 0xa6
 622 -21 613 -4 604 11 c 0
 559 84 529 128 486 191 c 2
 230 565 l 2
 223 575 218 586 214 586 c 0
 212 586 210 581 209 566 c 0
 209 553 139 128 139 42 c 0
 139 32 140 27 142 27 c 2
 227 27 l 2
 238 27 238 26 238 14 c 0
 238 -1 237 -3 227 -3 c 0x26
 204 -3 151 0 121 0 c 0xa6
 91 0 42 -3 34 -3 c 0
 21 -3 20 -2 20 15 c 0x26
EndSplineSet
Position2: "'cpsp' Capital Spacing in Latin lookup 0 subtable" dx=4 dy=0 dh=8 dv=0
EndChar

StartChar: Ograve
Encoding: 210 210 146
Width: 734
GlyphClass: 2
Flags: MW
HStem: -22 24<272 430 272 435.5> 645 28<337.5 482> 729 118<358 418 358 436>
VStem: 35 92<216.5 374.5 216.5 399.5> 340 59<822 822 822 826> 608 91<293 428.5>
LayerCount: 2
Back
Fore
SplineSet
340 818 m 0
 340 834 347 847 369 847 c 0
 384 847 392 836 399 822 c 2
 439 737 l 2
 440 735 440 734 440 732 c 0
 440 730 440 729 436 729 c 2
 418 729 l 2
 415 729 414 732 411 735 c 2
 350 795 l 2
 344 801 340 809 340 818 c 0
35 280 m 0
 35 519 226 673 407 673 c 0
 588 673 699 542 699 348 c 0
 699 148 537 -22 334 -22 c 0
 174 -22 35 66 35 280 c 0
127 286 m 0
 127 147 193 2 351 2 c 0
 509 2 608 213 608 373 c 0
 608 484 554 645 410 645 c 0
 265 645 127 463 127 286 c 0
EndSplineSet
Position2: "'cpsp' Capital Spacing in Latin lookup 0 subtable" dx=4 dy=0 dh=8 dv=0
EndChar

StartChar: Oacute
Encoding: 211 211 147
Width: 734
GlyphClass: 2
Flags: MW
HStem: -22 24<272 430 272 435.5> 645 28<337.5 482> 729 118<422.5 536.5 424 536.5>
VStem: 35 92<216.5 374.5 216.5 399.5> 420 133<730.5 831.5> 608 91<293 428.5>
LayerCount: 2
Back
Fore
SplineSet
420 731 m 0
 420 733 422 735 423 737 c 2
 489 822 l 2
 500 836 512 847 527 847 c 0
 546 847 553 837 553 826 c 0
 553 813 545 802 535 795 c 2
 452 735 l 2
 448 732 446 729 443 729 c 2
 424 729 l 2
 421 729 420 730 420 731 c 0
35 280 m 0
 35 519 226 673 407 673 c 0
 588 673 699 542 699 348 c 0
 699 148 537 -22 334 -22 c 0
 174 -22 35 66 35 280 c 0
127 286 m 0
 127 147 193 2 351 2 c 0
 509 2 608 213 608 373 c 0
 608 484 554 645 410 645 c 0
 265 645 127 463 127 286 c 0
EndSplineSet
Position2: "'cpsp' Capital Spacing in Latin lookup 0 subtable" dx=4 dy=0 dh=8 dv=0
EndChar

StartChar: Ocircumflex
Encoding: 212 212 148
Width: 734
GlyphClass: 2
Flags: MW
HStem: -22 24<272 430 272 435.5> 645 28<337.5 482> 729 110<331 461 441 515 441 527>
VStem: 35 92<216.5 374.5 216.5 399.5> 326 206<730.5 731.5> 608 91<293 428.5>
LayerCount: 2
Back
Fore
SplineSet
326 731 m 0
 326 732 327 733 330 736 c 2
 421 828 l 2
 431 838 431 839 441 839 c 2
 461 839 l 2
 471 839 471 838 477 828 c 2
 530 736 l 2
 532 733 532 732 532 731 c 0
 532 730 531 729 527 729 c 2
 515 729 l 2
 514 729 512 731 508 735 c 2
 445 787 l 2
 441 791 441 790 437 787 c 2
 352 735 l 2
 347 732 344 729 343 729 c 2
 331 729 l 2
 328 729 326 730 326 731 c 0
35 280 m 0
 35 519 226 673 407 673 c 0
 588 673 699 542 699 348 c 0
 699 148 537 -22 334 -22 c 0
 174 -22 35 66 35 280 c 0
127 286 m 0
 127 147 193 2 351 2 c 0
 509 2 608 213 608 373 c 0
 608 484 554 645 410 645 c 0
 265 645 127 463 127 286 c 0
EndSplineSet
Position2: "'cpsp' Capital Spacing in Latin lookup 0 subtable" dx=4 dy=0 dh=8 dv=0
EndChar

StartChar: Otilde
Encoding: 213 213 149
Width: 734
GlyphClass: 2
Flags: MW
HStem: -22 24<272 430 272 435.5> 645 28<337.5 482> 743 43<472 480> 778 44<397.5 402.5>
VStem: 35 92<216.5 374.5 216.5 399.5> 525 19 608 91<293 428.5>
LayerCount: 2
Back
Fore
SplineSet
331 745 m 0x24
 332 750 338 763 342 770 c 0
 363 806 390 822 405 822 c 0x14
 435 822 459 786 485 786 c 0
 506 786 517 805 525 819 c 0
 528 826 529 826 538 826 c 0
 542 826 544 826 544 824 c 0
 543 817 537 806 533 798 c 0
 516 766 493 743 467 743 c 0x24
 433 743 418 778 387 778 c 0x14
 366 778 356 762 349 749 c 0
 346 743 345 743 337 743 c 0
 333 743 331 743 331 745 c 0x24
35 280 m 0xca
 35 519 226 673 407 673 c 0
 588 673 699 542 699 348 c 0
 699 148 537 -22 334 -22 c 0
 174 -22 35 66 35 280 c 0xca
127 286 m 0
 127 147 193 2 351 2 c 0
 509 2 608 213 608 373 c 0
 608 484 554 645 410 645 c 0
 265 645 127 463 127 286 c 0
EndSplineSet
Position2: "'cpsp' Capital Spacing in Latin lookup 0 subtable" dx=4 dy=0 dh=8 dv=0
EndChar

StartChar: Odieresis
Encoding: 214 214 150
Width: 734
GlyphClass: 2
Flags: MW
HStem: -22 24<272 430 272 435.5> 645 28<337.5 482> 737 94<357.5 383.5 356 384 497.5 523.5>
VStem: 35 92<216.5 374.5 216.5 399.5> 328 85<774.5 793.5 770 798> 468 85<774.5 793.5 770 798> 608 91<293 428.5>
LayerCount: 2
Back
Fore
SplineSet
328 785 m 0
 328 811 343 831 369 831 c 0
 398 831 413 804 413 783 c 0
 413 757 396 737 372 737 c 0
 343 737 328 764 328 785 c 0
468 785 m 0
 468 811 483 831 509 831 c 0
 538 831 553 804 553 783 c 0
 553 757 536 737 512 737 c 0
 483 737 468 764 468 785 c 0
35 280 m 0
 35 519 226 673 407 673 c 0
 588 673 699 542 699 348 c 0
 699 148 537 -22 334 -22 c 0
 174 -22 35 66 35 280 c 0
127 286 m 0
 127 147 193 2 351 2 c 0
 509 2 608 213 608 373 c 0
 608 484 554 645 410 645 c 0
 265 645 127 463 127 286 c 0
EndSplineSet
Position2: "'cpsp' Capital Spacing in Latin lookup 0 subtable" dx=4 dy=0 dh=8 dv=0
EndChar

StartChar: multiply
Encoding: 215 215 151
Width: 527
GlyphClass: 2
Flags: MW
HStem: 173 76<261.5 265> 364 20G<111.5 118>
VStem: 226 74<208 211.5 208 212.5>
LayerCount: 2
Back
Fore
SplineSet
88 358 m 0
 88 365 107 384 116 384 c 0
 120 384 125 381 130 376 c 2
 246 261 l 2
 252 255 258 249 265 249 c 0
 268 249 272 250 276 254 c 2
 401 379 l 2
 405 383 410 385 413 385 c 0
 419 385 438 368 438 358 c 0
 438 355 435 350 429 344 c 2
 308 223 l 2
 303 218 300 213 300 210 c 0
 300 206 304 202 308 198 c 2
 432 74 l 2
 437 69 438 65 438 62 c 0
 438 54 419 35 412 35 c 0
 409 35 404 37 399 42 c 2
 276 166 l 2
 271 171 267 173 263 173 c 0
 258 173 254 169 247 162 c 2
 127 42 l 2
 122 37 118 35 115 35 c 0
 108 35 89 53 89 61 c 0
 89 65 92 69 97 74 c 2
 217 195 l 2
 223 201 226 206 226 210 c 0
 226 215 223 219 219 223 c 2
 95 347 l 2
 91 351 88 355 88 358 c 0
EndSplineSet
EndChar

StartChar: Oslash
Encoding: 216 216 152
Width: 734
GlyphClass: 2
Flags: MW
HStem: -22 24<325.5 430 325.5 435.5> 645 28<337.5 430.5>
VStem: 35 92<246.5 374.5 246.5 399.5> 608 91<293 407>
LayerCount: 2
Back
Fore
SplineSet
35 280 m 0
 35 519 226 673 407 673 c 0
 454 673 495 664 532 648 c 0
 537 646 539 646 542 652 c 2
 582 722 l 1
 582 722 583 723 585 723 c 0
 591 723 605 713 603 710 c 2
 562 640 l 2
 559 635 558 635 563 632 c 0
 650 579 699 477 699 348 c 0
 699 148 537 -22 334 -22 c 0
 288 -22 242 -15 202 1 c 0
 195 4 196 4 192 -2 c 2
 162 -53 l 2
 161 -54 160 -55 159 -55 c 0
 151 -55 139 -45 140 -43 c 2
 170 9 l 2
 174 16 173 15 166 19 c 0
 88 64 35 148 35 280 c 0
127 286 m 0
 127 207 149 125 197 70 c 0
 203 63 203 64 207 72 c 2
 513 602 l 2
 516 607 516 608 512 611 c 0
 485 632 451 645 410 645 c 0
 265 645 127 463 127 286 c 0
224 54 m 2
 220 47 220 47 226 42 c 0
 259 17 300 2 351 2 c 0
 509 2 608 213 608 373 c 0
 608 441 588 529 538 586 c 0
 534 590 534 591 531 586 c 2
 224 54 l 2
EndSplineSet
Position2: "'cpsp' Capital Spacing in Latin lookup 0 subtable" dx=4 dy=0 dh=8 dv=0
EndChar

StartChar: Ugrave
Encoding: 217 217 153
Width: 759
GlyphClass: 2
Flags: MW
HStem: -7 47<309.5 311.5> 1 21<544 548 548 553> 634 30<72 78 78 86 71.5 141 258.5 266 533 539 539 547 720 721> 729 118<346 406 346 424>
VStem: 76 83<110 194> 328 59<822 822 822 826> 537 35
LayerCount: 2
Back
Fore
SplineSet
328 818 m 0x14
 328 834 335 847 357 847 c 0
 372 847 380 836 387 822 c 2
 427 737 l 2
 428 735 428 734 428 732 c 0
 428 730 428 729 424 729 c 2
 406 729 l 2
 403 729 402 732 399 735 c 2
 338 795 l 2
 332 801 328 809 328 818 c 0x14
60 649 m 0xaa
 60 664 65 664 78 664 c 0
 94 664 140 661 170 661 c 0
 200 661 247 664 270 664 c 0
 283 664 284 663 284 646 c 0
 284 634 282 634 266 634 c 2
 234 634 l 2
 224 634 159 250 159 176 c 0
 159 44 297 40 322 40 c 0xaa
 383 40 453 69 487 91 c 0
 502 101 518 121 526 151 c 0
 536 191 547 251 558 314 c 0
 579 438 598 546 606 634 c 1
 539 634 l 2
 527 634 519 634 519 649 c 0
 519 664 526 664 539 664 c 0
 555 664 613 661 643 661 c 0
 673 661 715 664 725 664 c 0
 738 664 739 663 739 646 c 0
 739 634 737 634 721 634 c 2
 689 634 l 1
 681 596 674 556 667 516 c 0
 638 339 606 141 572 26 c 0
 566 4 560 1 553 1 c 2
 548 1 l 2x6a
 540 1 538 5 537 12 c 0
 532 55 533 79 524 79 c 0
 519 79 502 68 479 55 c 0
 437 32 355 -7 268 -7 c 0
 163 -7 76 51 76 151 c 0
 76 237 142 569 142 629 c 0
 142 632 142 634 141 634 c 2
 78 634 l 2
 66 634 60 634 60 649 c 0xaa
EndSplineSet
Position2: "'cpsp' Capital Spacing in Latin lookup 0 subtable" dx=4 dy=0 dh=8 dv=0
EndChar

StartChar: Uacute
Encoding: 218 218 154
Width: 759
GlyphClass: 2
Flags: MW
HStem: -7 47<309.5 311.5> 1 21<544 548 548 553> 634 30<72 78 78 86 71.5 141 258.5 266 533 539 539 547 720 721> 729 118<410.5 524.5 412 524.5>
VStem: 76 83<110 194> 408 133<730.5 831.5> 537 35
LayerCount: 2
Back
Fore
SplineSet
408 731 m 0x14
 408 733 410 735 411 737 c 2
 477 822 l 2
 488 836 500 847 515 847 c 0
 534 847 541 837 541 826 c 0
 541 813 533 802 523 795 c 2
 440 735 l 2
 436 732 434 729 431 729 c 2
 412 729 l 2
 409 729 408 730 408 731 c 0x14
60 649 m 0xaa
 60 664 65 664 78 664 c 0
 94 664 140 661 170 661 c 0
 200 661 247 664 270 664 c 0
 283 664 284 663 284 646 c 0
 284 634 282 634 266 634 c 2
 234 634 l 2
 224 634 159 250 159 176 c 0
 159 44 297 40 322 40 c 0xaa
 383 40 453 69 487 91 c 0
 502 101 518 121 526 151 c 0
 536 191 547 251 558 314 c 0
 579 438 598 546 606 634 c 1
 539 634 l 2
 527 634 519 634 519 649 c 0
 519 664 526 664 539 664 c 0
 555 664 613 661 643 661 c 0
 673 661 715 664 725 664 c 0
 738 664 739 663 739 646 c 0
 739 634 737 634 721 634 c 2
 689 634 l 1
 681 596 674 556 667 516 c 0
 638 339 606 141 572 26 c 0
 566 4 560 1 553 1 c 2
 548 1 l 2x6a
 540 1 538 5 537 12 c 0
 532 55 533 79 524 79 c 0
 519 79 502 68 479 55 c 0
 437 32 355 -7 268 -7 c 0
 163 -7 76 51 76 151 c 0
 76 237 142 569 142 629 c 0
 142 632 142 634 141 634 c 2
 78 634 l 2
 66 634 60 634 60 649 c 0xaa
EndSplineSet
Position2: "'cpsp' Capital Spacing in Latin lookup 0 subtable" dx=4 dy=0 dh=8 dv=0
EndChar

StartChar: Ucircumflex
Encoding: 219 219 155
Width: 759
GlyphClass: 2
Flags: MW
HStem: -7 47<309.5 311.5> 1 21<544 548 548 553> 634 30<72 78 78 86 71.5 141 258.5 266 533 539 539 547 720 721> 729 110<319 449 429 503 429 515>
VStem: 76 83<110 194> 314 206<730.5 731.5> 537 35
LayerCount: 2
Back
Fore
SplineSet
314 731 m 0x14
 314 732 315 733 318 736 c 2
 409 828 l 2
 419 838 419 839 429 839 c 2
 449 839 l 2
 459 839 459 838 465 828 c 2
 518 736 l 2
 520 733 520 732 520 731 c 0
 520 730 519 729 515 729 c 2
 503 729 l 2
 502 729 500 731 496 735 c 2
 433 787 l 2
 429 791 429 790 425 787 c 2
 340 735 l 2
 335 732 332 729 331 729 c 2
 319 729 l 2
 316 729 314 730 314 731 c 0x14
60 649 m 0xaa
 60 664 65 664 78 664 c 0
 94 664 140 661 170 661 c 0
 200 661 247 664 270 664 c 0
 283 664 284 663 284 646 c 0
 284 634 282 634 266 634 c 2
 234 634 l 2
 224 634 159 250 159 176 c 0
 159 44 297 40 322 40 c 0xaa
 383 40 453 69 487 91 c 0
 502 101 518 121 526 151 c 0
 536 191 547 251 558 314 c 0
 579 438 598 546 606 634 c 1
 539 634 l 2
 527 634 519 634 519 649 c 0
 519 664 526 664 539 664 c 0
 555 664 613 661 643 661 c 0
 673 661 715 664 725 664 c 0
 738 664 739 663 739 646 c 0
 739 634 737 634 721 634 c 2
 689 634 l 1
 681 596 674 556 667 516 c 0
 638 339 606 141 572 26 c 0
 566 4 560 1 553 1 c 2
 548 1 l 2x6a
 540 1 538 5 537 12 c 0
 532 55 533 79 524 79 c 0
 519 79 502 68 479 55 c 0
 437 32 355 -7 268 -7 c 0
 163 -7 76 51 76 151 c 0
 76 237 142 569 142 629 c 0
 142 632 142 634 141 634 c 2
 78 634 l 2
 66 634 60 634 60 649 c 0xaa
EndSplineSet
Position2: "'cpsp' Capital Spacing in Latin lookup 0 subtable" dx=4 dy=0 dh=8 dv=0
EndChar

StartChar: Udieresis
Encoding: 220 220 156
Width: 759
GlyphClass: 2
Flags: MW
HStem: -7 47<309.5 311.5> 1 21<544 548 548 553> 634 30<72 78 78 86 71.5 141 258.5 266 533 539 539 547 720 721> 737 94<345.5 371.5 344 372 485.5 511.5>
VStem: 76 83<110 194> 316 85<774.5 793.5 770 798> 456 85<774.5 793.5 770 798> 537 35
LayerCount: 2
Back
Fore
SplineSet
316 785 m 0x16
 316 811 331 831 357 831 c 0
 386 831 401 804 401 783 c 0
 401 757 384 737 360 737 c 0
 331 737 316 764 316 785 c 0x16
456 785 m 0
 456 811 471 831 497 831 c 0
 526 831 541 804 541 783 c 0
 541 757 524 737 500 737 c 0
 471 737 456 764 456 785 c 0
60 649 m 0xa9
 60 664 65 664 78 664 c 0
 94 664 140 661 170 661 c 0
 200 661 247 664 270 664 c 0
 283 664 284 663 284 646 c 0
 284 634 282 634 266 634 c 2
 234 634 l 2
 224 634 159 250 159 176 c 0
 159 44 297 40 322 40 c 0xa9
 383 40 453 69 487 91 c 0
 502 101 518 121 526 151 c 0
 536 191 547 251 558 314 c 0
 579 438 598 546 606 634 c 1
 539 634 l 2
 527 634 519 634 519 649 c 0
 519 664 526 664 539 664 c 0
 555 664 613 661 643 661 c 0
 673 661 715 664 725 664 c 0
 738 664 739 663 739 646 c 0
 739 634 737 634 721 634 c 2
 689 634 l 1
 681 596 674 556 667 516 c 0
 638 339 606 141 572 26 c 0
 566 4 560 1 553 1 c 2
 548 1 l 2x69
 540 1 538 5 537 12 c 0
 532 55 533 79 524 79 c 0
 519 79 502 68 479 55 c 0
 437 32 355 -7 268 -7 c 0
 163 -7 76 51 76 151 c 0
 76 237 142 569 142 629 c 0
 142 632 142 634 141 634 c 2
 78 634 l 2
 66 634 60 634 60 649 c 0xa9
EndSplineSet
Position2: "'cpsp' Capital Spacing in Latin lookup 0 subtable" dx=4 dy=0 dh=8 dv=0
EndChar

StartChar: Yacute
Encoding: 221 221 157
Width: 613
GlyphClass: 2
Flags: MW
HStem: 0 27 639 30<32 38 38 46 31.5 85 215.5 223 421 429 429 436.5 569 577> 729 118<324.5 438.5 326 438.5>
VStem: 322 133<730.5 831.5>
LayerCount: 2
Back
Fore
SplineSet
322 731 m 0
 322 733 324 735 325 737 c 2
 391 822 l 2
 402 836 414 847 429 847 c 0
 448 847 455 837 455 826 c 0
 455 813 447 802 437 795 c 2
 354 735 l 2
 350 732 348 729 345 729 c 2
 326 729 l 2
 323 729 322 730 322 731 c 0
20 654 m 0
 20 669 25 669 38 669 c 0
 54 669 109 666 139 666 c 0
 169 666 204 669 227 669 c 0
 240 669 241 668 241 651 c 0
 241 639 239 639 223 639 c 2
 192 639 l 2
 177 639 180 639 184 624 c 0
 200 571 259 428 287 359 c 0
 291 351 292 347 295 347 c 0
 299 347 305 355 311 365 c 0
 358 436 482 612 482 636 c 0
 482 638 483 639 482 639 c 2
 429 639 l 2
 413 639 411 639 411 651 c 0
 411 668 412 669 425 669 c 0
 448 669 473 666 503 666 c 0
 533 666 561 669 577 669 c 0
 590 669 593 669 593 654 c 0
 593 639 589 639 577 639 c 2
 541 639 l 2
 536 639 375 419 318 332 c 0
 314 325 312 319 310 310 c 0
 289 186 266 45 266 40 c 0
 266 32 265 27 271 27 c 2
 334 27 l 2
 345 27 345 26 345 14 c 0
 345 -1 344 -3 334 -3 c 0
 311 -3 259 0 229 0 c 0
 199 0 158 -3 135 -3 c 0
 122 -3 121 0 121 13 c 0
 121 25 123 27 139 27 c 2
 181 27 l 2
 188 27 194 72 226 260 c 0
 231 287 231 296 231 301 c 0
 231 307 85 639 85 639 c 1
 38 639 l 2
 26 639 20 639 20 654 c 0
EndSplineSet
Position2: "'cpsp' Capital Spacing in Latin lookup 0 subtable" dx=4 dy=0 dh=8 dv=0
EndChar

StartChar: Thorn
Encoding: 222 222 158
Width: 566
GlyphClass: 2
Flags: MW
HStem: -3 30<32 39.5 250.5 262 262 267> 156 21<278.5 288.5 230.5 350> 497 20 639 30<102.5 121 106.5 121 106.5 172 325.5 333>
VStem: 181 72 459 77<283 393.5>
LayerCount: 2
Back
Fore
SplineSet
14 15 m 0
 14 27 16 27 32 27 c 2
 92 27 l 2
 99 27 181 572 181 623 c 0
 181 633 179 639 172 639 c 2
 106 639 l 2
 99 639 94 640 94 654 c 0
 94 669 100 669 113 669 c 0
 129 669 198 666 228 666 c 0
 258 666 314 669 337 669 c 0
 350 669 351 668 351 651 c 0
 351 639 349 639 333 639 c 2
 276 639 l 2
 272 639 265 596 254 533 c 0
 253 529 253 526 253 524 c 0
 253 519 255 517 260 517 c 0
 263 517 268 517 274 518 c 0
 297 521 317 521 326 521 c 0
 462 521 536 448 536 350 c 0
 536 198 408 156 292 156 c 0
 265 156 226 158 216 158 c 0
 198 158 199 155 197 141 c 0
 190 99 182 48 182 32 c 0
 182 29 182 27 183 27 c 2
 262 27 l 2
 273 27 273 26 273 14 c 0
 273 -1 272 -3 262 -3 c 0
 239 -3 171 0 141 0 c 0
 111 0 51 -3 28 -3 c 0
 15 -3 14 -2 14 15 c 0
204 189 m 0
 204 183 206 179 216 178 c 0
 221 177 227 177 234 177 c 0
 343 177 459 222 459 344 c 0
 459 443 401 497 292 497 c 0
 286 497 274 497 264 496 c 0
 245 494 247 493 245 479 c 2
 233 398 l 2
 223 332 213 262 205 201 c 0
 204 196 204 192 204 189 c 0
EndSplineSet
Position2: "'cpsp' Capital Spacing in Latin lookup 0 subtable" dx=4 dy=0 dh=8 dv=0
EndChar

StartChar: germandbls
Encoding: 223 223 159
Width: 488
GlyphClass: 2
Flags: MW
HStem: -276 53<-73.5 28> -10 18<263.5 310 263.5 323.5> 357 21 658 20<263.5 326.5>
VStem: 187 53<45.5 66 45.5 76.5> 241 43<369 369> 365 67<173.5 256.5 139.5 278.5> 375 58<508.5 591.5 501 593>
LayerCount: 2
Back
Fore
SplineSet
-125 -240 m 0xfd
 -125 -222 -96 -199 -76 -199 c 0
 -50 -199 -29 -223 5 -223 c 0
 51 -223 61 -104 69 -54 c 0
 100 139 120 322 127 384 c 0
 129 406 136 457 139 481 c 0
 152 585 204 678 314 678 c 0
 389 678 433 627 433 556 c 0xfd
 433 446 348 393 306 375 c 0
 292 369 284 369 284 368 c 0
 284 367 289 367 301 363 c 0
 338 350 432 315 432 198 c 0
 432 81 370 -10 277 -10 c 0
 227 -10 187 16 187 63 c 0
 187 90 202 101 226 109 c 0
 238 113 245 108 245 101 c 0
 244 89 240 73 240 59 c 0
 240 32 247 8 280 8 c 0
 340 8 365 134 365 213 c 0xfe
 365 344 289 351 246 357 c 0
 241 358 240 360 241 369 c 0
 242 374 242 377 248 378 c 0
 300 383 375 448 375 569 c 0
 375 617 351 658 302 658 c 0
 225 658 214 553 205 492 c 0
 183 345 162 153 128 -54 c 0
 125 -73 99 -185 34 -234 c 0
 12 -250 -19 -276 -57 -276 c 0
 -90 -276 -125 -254 -125 -240 c 0xfd
EndSplineSet
EndChar

StartChar: agrave
Encoding: 224 224 160
Width: 433
GlyphClass: 2
Flags: MW
HStem: -11 54 347 40<198 247> 449 157<234 280 234 295>
VStem: 25 69<85 117> 212 87 254 65<5 85> 343 57<372 373>
LayerCount: 2
Back
Fore
SplineSet
212 575 m 0x28
 212 594 222 606 246 606 c 0
 259 606 269 597 272 582 c 2
 298 457 l 2
 298 455 299 452 299 451 c 0
 299 450 298 449 295 449 c 2
 280 449 l 2
 277 449 275 451 273 455 c 2
 216 562 l 2
 213 567 212 571 212 575 c 0x28
25 59 m 0xd6
 25 175 102 387 252 387 c 0
 275 387 295 376 308 357 c 0
 317 344 323 329 328 329 c 0
 331 329 343 371 343 373 c 0
 346 381 365 382 379 384 c 0
 389 385 400 383 400 379 c 0
 400 365 319 107 319 63 c 0
 319 53 323 43 333 43 c 0
 348 43 394 99 397 99 c 0
 401 99 408 93 408 85 c 0
 408 81 324 -11 281 -11 c 0
 265 -11 254 -3 254 13 c 0
 254 55 311 226 311 226 c 1
 311 226 256 125 186 52 c 0
 151 16 127 -10 90 -10 c 0
 47 -10 25 21 25 59 c 0xd6
94 96 m 0
 94 74 97 43 120 43 c 0
 156 43 249 153 299 235 c 0
 311 254 314 284 314 289 c 0
 314 327 262 347 232 347 c 0
 164 347 94 177 94 96 c 0
EndSplineSet
EndChar

StartChar: aacute
Encoding: 225 225 161
Width: 433
GlyphClass: 2
Flags: MW
HStem: -11 54 347 40<198 247> 449 155<258.5 361.5 260 361.5>
VStem: 25 69<85 117> 254 65<5 85> 256 127<450.5 589> 343 57<372 373>
LayerCount: 2
Back
Fore
SplineSet
256 451 m 0x24
 256 452 258 455 259 457 c 2
 320 580 l 2
 328 595 339 604 352 604 c 0
 371 604 383 595 383 583 c 0
 383 573 381 566 374 558 c 2
 283 455 l 2
 280 451 278 449 275 449 c 2
 260 449 l 2
 257 449 256 450 256 451 c 0x24
25 59 m 0xda
 25 175 102 387 252 387 c 0
 275 387 295 376 308 357 c 0
 317 344 323 329 328 329 c 0
 331 329 343 371 343 373 c 0
 346 381 365 382 379 384 c 0
 389 385 400 383 400 379 c 0
 400 365 319 107 319 63 c 0
 319 53 323 43 333 43 c 0
 348 43 394 99 397 99 c 0
 401 99 408 93 408 85 c 0
 408 81 324 -11 281 -11 c 0
 265 -11 254 -3 254 13 c 0
 254 55 311 226 311 226 c 1
 311 226 256 125 186 52 c 0
 151 16 127 -10 90 -10 c 0
 47 -10 25 21 25 59 c 0xda
94 96 m 0
 94 74 97 43 120 43 c 0
 156 43 249 153 299 235 c 0
 311 254 314 284 314 289 c 0
 314 327 262 347 232 347 c 0
 164 347 94 177 94 96 c 0
EndSplineSet
EndChar

StartChar: acircumflex
Encoding: 226 226 162
Width: 433
GlyphClass: 2
Flags: MW
HStem: -11 54 347 40<198 247> 460 124<177.5 309 179 309 289 363 289 375>
VStem: 25 69<85 117> 174 206<461.5 462.5> 254 65<5 85> 343 57<372 373>
LayerCount: 2
Back
Fore
SplineSet
174 462 m 0x28
 174 463 176 465 178 468 c 2
 269 572 l 2
 279 583 279 584 289 584 c 2
 309 584 l 2
 319 584 319 583 325 572 c 2
 378 468 l 2
 380 465 380 463 380 462 c 0
 380 461 379 460 375 460 c 2
 363 460 l 2
 362 460 360 462 356 466 c 2
 293 528 l 2
 289 532 289 531 285 528 c 2
 200 466 l 2
 195 462 192 460 191 460 c 2
 179 460 l 2
 176 460 174 461 174 462 c 0x28
25 59 m 0xd6
 25 175 102 387 252 387 c 0
 275 387 295 376 308 357 c 0
 317 344 323 329 328 329 c 0
 331 329 343 371 343 373 c 0
 346 381 365 382 379 384 c 0
 389 385 400 383 400 379 c 0
 400 365 319 107 319 63 c 0
 319 53 323 43 333 43 c 0
 348 43 394 99 397 99 c 0
 401 99 408 93 408 85 c 0
 408 81 324 -11 281 -11 c 0
 265 -11 254 -3 254 13 c 0
 254 55 311 226 311 226 c 1
 311 226 256 125 186 52 c 0
 151 16 127 -10 90 -10 c 0
 47 -10 25 21 25 59 c 0xd6
94 96 m 0
 94 74 97 43 120 43 c 0
 156 43 249 153 299 235 c 0
 311 254 314 284 314 289 c 0
 314 327 262 347 232 347 c 0
 164 347 94 177 94 96 c 0
EndSplineSet
EndChar

StartChar: atilde
Encoding: 227 227 163
Width: 433
GlyphClass: 2
Flags: MW
HStem: -11 54 347 40<198 247> 493 43<317 325> 528 44<242.5 247.5>
VStem: 25 69<85 117> 254 65<5 85> 343 57<372 373> 370 19
LayerCount: 2
Back
Fore
SplineSet
176 495 m 0x21
 177 500 183 513 187 520 c 0
 208 556 235 572 250 572 c 0x11
 280 572 304 536 330 536 c 0
 351 536 362 555 370 569 c 0
 373 576 374 576 383 576 c 0
 387 576 389 576 389 574 c 0
 388 567 382 556 378 548 c 0
 361 516 338 493 312 493 c 0x21
 278 493 263 528 232 528 c 0x11
 211 528 201 512 194 499 c 0
 191 493 190 493 182 493 c 0
 178 493 176 493 176 495 c 0x21
25 59 m 0xce
 25 175 102 387 252 387 c 0
 275 387 295 376 308 357 c 0
 317 344 323 329 328 329 c 0
 331 329 343 371 343 373 c 0
 346 381 365 382 379 384 c 0
 389 385 400 383 400 379 c 0
 400 365 319 107 319 63 c 0
 319 53 323 43 333 43 c 0
 348 43 394 99 397 99 c 0
 401 99 408 93 408 85 c 0
 408 81 324 -11 281 -11 c 0
 265 -11 254 -3 254 13 c 0
 254 55 311 226 311 226 c 1
 311 226 256 125 186 52 c 0
 151 16 127 -10 90 -10 c 0
 47 -10 25 21 25 59 c 0xce
94 96 m 0
 94 74 97 43 120 43 c 0
 156 43 249 153 299 235 c 0
 311 254 314 284 314 289 c 0
 314 327 262 347 232 347 c 0
 164 347 94 177 94 96 c 0
EndSplineSet
EndChar

StartChar: adieresis
Encoding: 228 228 164
Width: 433
GlyphClass: 2
Flags: MW
HStem: -11 54 347 40<198 247> 487 94<202.5 228.5 201 229 342.5 368.5>
VStem: 25 69<85 117> 173 85<524.5 543.5 520 548> 254 65<5 85> 313 85<524.5 543.5 520 548> 343 57<372 373>
LayerCount: 2
Back
Fore
SplineSet
173 535 m 0x2a
 173 561 188 581 214 581 c 0
 243 581 258 554 258 533 c 0
 258 507 241 487 217 487 c 0
 188 487 173 514 173 535 c 0x2a
313 535 m 0
 313 561 328 581 354 581 c 0
 383 581 398 554 398 533 c 0
 398 507 381 487 357 487 c 0
 328 487 313 514 313 535 c 0
25 59 m 0xd5
 25 175 102 387 252 387 c 0
 275 387 295 376 308 357 c 0
 317 344 323 329 328 329 c 0
 331 329 343 371 343 373 c 0
 346 381 365 382 379 384 c 0
 389 385 400 383 400 379 c 0
 400 365 319 107 319 63 c 0
 319 53 323 43 333 43 c 0
 348 43 394 99 397 99 c 0
 401 99 408 93 408 85 c 0
 408 81 324 -11 281 -11 c 0
 265 -11 254 -3 254 13 c 0
 254 55 311 226 311 226 c 1
 311 226 256 125 186 52 c 0
 151 16 127 -10 90 -10 c 0
 47 -10 25 21 25 59 c 0xd5
94 96 m 0
 94 74 97 43 120 43 c 0
 156 43 249 153 299 235 c 0
 311 254 314 284 314 289 c 0
 314 327 262 347 232 347 c 0
 164 347 94 177 94 96 c 0
EndSplineSet
EndChar

StartChar: aring
Encoding: 229 229 165
Width: 433
GlyphClass: 2
Flags: MW
HStem: -11 54 347 40<198 247> 463 28<272.5 295.5 272.5 302.5> 571 28<272.5 295.5>
VStem: 25 69<85 117> 216 28<519.5 542.5 519.5 549.5> 254 65<5 85> 324 28<519.5 542.5> 343 57<372 373>
LayerCount: 2
Back
Fore
SplineSet
216 531 m 0x35
 216 568 247 599 284 599 c 0
 321 599 352 568 352 531 c 0
 352 494 321 463 284 463 c 0
 247 463 216 494 216 531 c 0x35
244 531 m 0
 244 508 261 491 284 491 c 0
 307 491 324 508 324 531 c 0
 324 554 307 571 284 571 c 0
 261 571 244 554 244 531 c 0
25 59 m 0xca80
 25 175 102 387 252 387 c 0
 275 387 295 376 308 357 c 0
 317 344 323 329 328 329 c 0
 331 329 343 371 343 373 c 0
 346 381 365 382 379 384 c 0
 389 385 400 383 400 379 c 0
 400 365 319 107 319 63 c 0
 319 53 323 43 333 43 c 0
 348 43 394 99 397 99 c 0
 401 99 408 93 408 85 c 0
 408 81 324 -11 281 -11 c 0
 265 -11 254 -3 254 13 c 0
 254 55 311 226 311 226 c 1
 311 226 256 125 186 52 c 0
 151 16 127 -10 90 -10 c 0
 47 -10 25 21 25 59 c 0xca80
94 96 m 0
 94 74 97 43 120 43 c 0
 156 43 249 153 299 235 c 0
 311 254 314 284 314 289 c 0
 314 327 262 347 232 347 c 0
 164 347 94 177 94 96 c 0
EndSplineSet
EndChar

StartChar: ae
Encoding: 230 230 166
Width: 636
GlyphClass: 2
Flags: MW
HStem: -10 53<68.5 138> -5 40<405 456.5> 170 23<358 364> 347 40<198 247> 367 24<494 508.5>
VStem: 25 69<85 117> 271 66<91 116.5> 314 38 343 57<372 381> 544 65<294.5 338.5>
LayerCount: 2
Back
Fore
SplineSet
25 59 m 0xa6c0
 25 175 102 387 252 387 c 0xb6c0
 275 387 295 376 308 357 c 0
 317 344 323 329 328 329 c 0
 331 329 343 371 343 373 c 0
 346 381 365 382 379 384 c 0
 389 385 400 383 400 379 c 0
 400 376 397 366 393 350 c 1
 430 376 472 391 516 391 c 0
 558 391 609 378 609 325 c 0
 609 264 550 218 486 194 c 0
 437 176 383 170 345 170 c 0
 340 170 337 151 337 124 c 0
 337 58 377 35 433 35 c 0
 527 35 596 122 603 122 c 0
 608 122 616 114 616 108 c 0
 616 104 516 -5 397 -5 c 0x6ec0
 329 -5 271 28 271 105 c 0
 271 128 273 150 278 172 c 1
 255 137 223 91 186 52 c 0
 151 16 127 -10 90 -10 c 0
 47 -10 25 21 25 59 c 0xa6c0
94 96 m 0
 94 74 97 43 120 43 c 0
 156 43 249 153 299 235 c 0
 311 254 314 284 314 289 c 0xb540
 314 327 262 347 232 347 c 0
 164 347 94 177 94 96 c 0
352 200 m 0
 352 196 354 193 362 193 c 0
 456 193 544 242 544 326 c 0
 544 351 523 367 494 367 c 0x2d40
 424 367 386 298 366 245 c 0
 360 230 352 203 352 200 c 0
EndSplineSet
EndChar

StartChar: ccedilla
Encoding: 231 231 167
Width: 402
GlyphClass: 2
Flags: MW
HStem: -217 23<98 133.5 95.5 153.5> -100 31<132 133 132 151> -9 49<160 162 160 160> 364 27<224 260>
VStem: 25 65<131 168> 180 54<-156 -135> 290 64<312 316 290.5 327.5>
LayerCount: 2
Back
Fore
SplineSet
25 128 m 0
 25 291 151 391 246 391 c 0
 283 391 313 381 332 360 c 0
 345 346 354 328 354 304 c 0
 354 277 337 255 311 255 c 0
 295 255 289 273 289 292 c 0
 289 300 290 308 290 316 c 0
 290 339 277 364 243 364 c 0
 205 364 163 337 137 297 c 0
 107 252 90 192 90 144 c 0
 90 118 91 40 196 40 c 0
 283 40 351 118 358 118 c 0
 362 118 370 110 370 104 c 0
 370 98 261 -9 162 -9 c 2
 160 -9 l 1
 148 -29 128 -65 128 -67 c 0
 128 -70 131 -69 133 -69 c 0
 137 -68 147 -67 157 -67 c 0
 205 -67 234 -98 234 -131 c 0
 234 -181 185 -217 122 -217 c 0
 74 -217 47 -194 47 -190 c 0
 47 -187 47 -180 55 -180 c 0
 58 -180 80 -194 111 -194 c 0
 156 -194 180 -179 180 -145 c 0
 180 -125 169 -100 133 -100 c 0
 115 -100 100 -106 97 -106 c 0
 95 -106 90 -104 90 -102 c 0
 90 -100 126 -38 142 -8 c 1
 51 1 25 67 25 128 c 0
EndSplineSet
EndChar

StartChar: egrave
Encoding: 232 232 168
Width: 390
GlyphClass: 2
Flags: MW
HStem: -5 40<159 210.5> 170 23<112 118> 367 24<213 262.5> 449 157<233 279 233 294>
VStem: 25 66<91 137.5 91 180.5> 211 87 298 65<294.5 338.5>
LayerCount: 2
Back
Fore
SplineSet
211 575 m 0x14
 211 594 221 606 245 606 c 0
 258 606 268 597 271 582 c 2
 297 457 l 2
 297 455 298 452 298 451 c 0
 298 450 297 449 294 449 c 2
 279 449 l 2
 276 449 274 451 272 455 c 2
 215 562 l 2
 212 567 211 571 211 575 c 0x14
25 105 m 0xea
 25 256 138 391 270 391 c 0
 312 391 363 378 363 325 c 0
 363 264 304 218 240 194 c 0
 191 176 137 170 99 170 c 0
 94 170 91 151 91 124 c 0
 91 58 131 35 187 35 c 0
 281 35 350 122 357 122 c 0
 362 122 370 114 370 108 c 0
 370 104 270 -5 151 -5 c 0
 83 -5 25 28 25 105 c 0xea
106 200 m 0
 106 196 108 193 116 193 c 0
 210 193 298 242 298 326 c 0
 298 351 277 367 248 367 c 0
 178 367 140 298 120 245 c 0
 114 230 106 203 106 200 c 0
EndSplineSet
EndChar

StartChar: eacute
Encoding: 233 233 169
Width: 390
GlyphClass: 2
Flags: MW
HStem: -5 40<159 210.5> 170 23<112 118> 367 24<213 262.5> 449 155<257.5 360.5 259 360.5>
VStem: 25 66<91 137.5 91 180.5> 255 127<450.5 589> 298 65<294.5 338.5>
LayerCount: 2
Back
Fore
SplineSet
255 451 m 0x14
 255 452 257 455 258 457 c 2
 319 580 l 2
 327 595 338 604 351 604 c 0
 370 604 382 595 382 583 c 0
 382 573 380 566 373 558 c 2
 282 455 l 2
 279 451 277 449 274 449 c 2
 259 449 l 2
 256 449 255 450 255 451 c 0x14
25 105 m 0xea
 25 256 138 391 270 391 c 0
 312 391 363 378 363 325 c 0
 363 264 304 218 240 194 c 0
 191 176 137 170 99 170 c 0
 94 170 91 151 91 124 c 0
 91 58 131 35 187 35 c 0
 281 35 350 122 357 122 c 0
 362 122 370 114 370 108 c 0
 370 104 270 -5 151 -5 c 0
 83 -5 25 28 25 105 c 0xea
106 200 m 0
 106 196 108 193 116 193 c 0
 210 193 298 242 298 326 c 0
 298 351 277 367 248 367 c 0
 178 367 140 298 120 245 c 0
 114 230 106 203 106 200 c 0
EndSplineSet
EndChar

StartChar: ecircumflex
Encoding: 234 234 170
Width: 390
GlyphClass: 2
Flags: MW
HStem: -5 40<159 210.5> 170 23<112 118> 367 24<213 262.5> 460 124<176.5 308 178 308 288 362 288 374>
VStem: 25 66<91 137.5 91 180.5> 173 206<461.5 462.5> 298 65<294.5 338.5>
LayerCount: 2
Back
Fore
SplineSet
173 462 m 0x14
 173 463 175 465 177 468 c 2
 268 572 l 2
 278 583 278 584 288 584 c 2
 308 584 l 2
 318 584 318 583 324 572 c 2
 377 468 l 2
 379 465 379 463 379 462 c 0
 379 461 378 460 374 460 c 2
 362 460 l 2
 361 460 359 462 355 466 c 2
 292 528 l 2
 288 532 288 531 284 528 c 2
 199 466 l 2
 194 462 191 460 190 460 c 2
 178 460 l 2
 175 460 173 461 173 462 c 0x14
25 105 m 0xea
 25 256 138 391 270 391 c 0
 312 391 363 378 363 325 c 0
 363 264 304 218 240 194 c 0
 191 176 137 170 99 170 c 0
 94 170 91 151 91 124 c 0
 91 58 131 35 187 35 c 0
 281 35 350 122 357 122 c 0
 362 122 370 114 370 108 c 0
 370 104 270 -5 151 -5 c 0
 83 -5 25 28 25 105 c 0xea
106 200 m 0
 106 196 108 193 116 193 c 0
 210 193 298 242 298 326 c 0
 298 351 277 367 248 367 c 0
 178 367 140 298 120 245 c 0
 114 230 106 203 106 200 c 0
EndSplineSet
EndChar

StartChar: edieresis
Encoding: 235 235 171
Width: 390
GlyphClass: 2
Flags: MW
HStem: -5 40<159 210.5> 170 23<112 118> 367 24<213 262.5> 487 94<201.5 227.5 200 228 341.5 367.5>
VStem: 25 66<91 137.5 91 180.5> 172 85<524.5 543.5 520 548> 298 65<294.5 338.5> 312 85<524.5 543.5 520 548>
LayerCount: 2
Back
Fore
SplineSet
172 535 m 0x15
 172 561 187 581 213 581 c 0
 242 581 257 554 257 533 c 0
 257 507 240 487 216 487 c 0
 187 487 172 514 172 535 c 0x15
312 535 m 0
 312 561 327 581 353 581 c 0
 382 581 397 554 397 533 c 0
 397 507 380 487 356 487 c 0
 327 487 312 514 312 535 c 0
25 105 m 0xea
 25 256 138 391 270 391 c 0
 312 391 363 378 363 325 c 0
 363 264 304 218 240 194 c 0
 191 176 137 170 99 170 c 0
 94 170 91 151 91 124 c 0
 91 58 131 35 187 35 c 0
 281 35 350 122 357 122 c 0
 362 122 370 114 370 108 c 0
 370 104 270 -5 151 -5 c 0
 83 -5 25 28 25 105 c 0xea
106 200 m 0
 106 196 108 193 116 193 c 0
 210 193 298 242 298 326 c 0
 298 351 277 367 248 367 c 0
 178 367 140 298 120 245 c 0
 114 230 106 203 106 200 c 0
EndSplineSet
EndChar

StartChar: igrave
Encoding: 236 236 172
Width: 270
GlyphClass: 2
Flags: MW
HStem: -6 61<79 153.5> 328 55<106 181> 449 157<136 182 136 197>
VStem: 60 71<4.5 89> 114 87 131 65<279.5 369.5>
LayerCount: 2
Back
Fore
SplineSet
114 575 m 0x28
 114 594 124 606 148 606 c 0
 161 606 171 597 174 582 c 2
 200 457 l 2
 200 455 201 452 201 451 c 0
 201 450 200 449 197 449 c 2
 182 449 l 2
 179 449 177 451 175 455 c 2
 118 562 l 2
 115 567 114 571 114 575 c 0x28
25 282 m 0xc4
 25 288 139 383 176 383 c 0
 186 383 196 378 196 361 c 0xc4
 196 314 131 103 131 75 c 0
 131 65 131 55 144 55 c 0
 163 55 220 119 223 119 c 0
 227 119 235 110 235 107 c 0
 235 93 115 -6 84 -6 c 0
 74 -6 60 -3 60 12 c 0xd0
 60 63 131 249 131 310 c 0
 131 320 129 328 119 328 c 0
 93 328 42 269 37 269 c 0
 32 269 25 277 25 282 c 0xc4
EndSplineSet
EndChar

StartChar: iacute
Encoding: 237 237 173
Width: 270
GlyphClass: 2
Flags: MW
HStem: -6 61<79 153.5> 328 55<106 181> 449 155<160.5 263.5 162 263.5>
VStem: 60 71<4.5 89> 131 65<279.5 369.5> 158 127<450.5 589>
LayerCount: 2
Back
Fore
SplineSet
158 451 m 0x24
 158 452 160 455 161 457 c 2
 222 580 l 2
 230 595 241 604 254 604 c 0
 273 604 285 595 285 583 c 0
 285 573 283 566 276 558 c 2
 185 455 l 2
 182 451 180 449 177 449 c 2
 162 449 l 2
 159 449 158 450 158 451 c 0x24
25 282 m 0xc8
 25 288 139 383 176 383 c 0
 186 383 196 378 196 361 c 0xc8
 196 314 131 103 131 75 c 0
 131 65 131 55 144 55 c 0
 163 55 220 119 223 119 c 0
 227 119 235 110 235 107 c 0
 235 93 115 -6 84 -6 c 0
 74 -6 60 -3 60 12 c 0xd0
 60 63 131 249 131 310 c 0
 131 320 129 328 119 328 c 0
 93 328 42 269 37 269 c 0
 32 269 25 277 25 282 c 0xc8
EndSplineSet
EndChar

StartChar: icircumflex
Encoding: 238 238 174
Width: 270
GlyphClass: 2
Flags: MW
HStem: -6 61<79 153.5> 328 55<106 181> 460 124<79.5 211 81 211 191 265 191 277>
VStem: 60 71<4.5 89> 76 206<461.5 462.5> 131 65<279.5 369.5>
LayerCount: 2
Back
Fore
SplineSet
76 462 m 0x28
 76 463 78 465 80 468 c 2
 171 572 l 2
 181 583 181 584 191 584 c 2
 211 584 l 2
 221 584 221 583 227 572 c 2
 280 468 l 2
 282 465 282 463 282 462 c 0
 282 461 281 460 277 460 c 2
 265 460 l 2
 264 460 262 462 258 466 c 2
 195 528 l 2
 191 532 191 531 187 528 c 2
 102 466 l 2
 97 462 94 460 93 460 c 2
 81 460 l 2
 78 460 76 461 76 462 c 0x28
25 282 m 0xc4
 25 288 139 383 176 383 c 0
 186 383 196 378 196 361 c 0xc4
 196 314 131 103 131 75 c 0
 131 65 131 55 144 55 c 0
 163 55 220 119 223 119 c 0
 227 119 235 110 235 107 c 0
 235 93 115 -6 84 -6 c 0
 74 -6 60 -3 60 12 c 0xd0
 60 63 131 249 131 310 c 0
 131 320 129 328 119 328 c 0
 93 328 42 269 37 269 c 0
 32 269 25 277 25 282 c 0xc4
EndSplineSet
EndChar

StartChar: idieresis
Encoding: 239 239 175
Width: 270
GlyphClass: 2
Flags: MW
HStem: -6 61<79 153.5> 328 55<106 181> 487 94<111.5 137.5 110 138 237.5 263.5>
VStem: 60 71<4.5 89> 82 85<524.5 543.5 520 548> 131 65<279.5 369.5> 208 85<524.5 543.5 520 548>
LayerCount: 2
Back
Fore
SplineSet
82 535 m 0x2a
 82 561 97 581 123 581 c 0
 152 581 167 554 167 533 c 0
 167 507 150 487 126 487 c 0
 97 487 82 514 82 535 c 0x2a
208 535 m 0
 208 561 223 581 249 581 c 0
 278 581 293 554 293 533 c 0
 293 507 276 487 252 487 c 0
 223 487 208 514 208 535 c 0
25 282 m 0xc4
 25 288 139 383 176 383 c 0
 186 383 196 378 196 361 c 0xc4
 196 314 131 103 131 75 c 0
 131 65 131 55 144 55 c 0
 163 55 220 119 223 119 c 0
 227 119 235 110 235 107 c 0
 235 93 115 -6 84 -6 c 0
 74 -6 60 -3 60 12 c 0xd0
 60 63 131 249 131 310 c 0
 131 320 129 328 119 328 c 0
 93 328 42 269 37 269 c 0
 32 269 25 277 25 282 c 0xc4
EndSplineSet
EndChar

StartChar: eth
Encoding: 240 240 176
Width: 411
GlyphClass: 2
Flags: MW
HStem: -8 24<126 214 126 228> 374 21<203 267 187.5 279.5> 650 20G<195 199.5>
VStem: 25 62<125 190 125 211> 324 62<233 295>
LayerCount: 2
Back
Fore
SplineSet
25 138 m 0
 25 284 121 395 254 395 c 0
 280 395 304 385 315 379 c 1
 308 424 276 492 261 517 c 0
 259 520 256 522 254 521 c 2
 141 490 l 2
 138 490 129 507 129 512 c 0
 129 513 231 540 241 543 c 0
 247 544 245 547 243 549 c 0
 221 584 191 624 151 661 c 0
 147 665 146 669 151 669 c 2
 195 670 l 2
 204 670 243 625 291 562 c 0
 295 557 296 557 303 559 c 2
 303 559 399 585 403 585 c 0
 406 585 414 569 414 564 c 0
 414 563 322 540 313 538 c 0
 307 537 310 533 312 530 c 0
 347 470 386 375 386 265 c 0
 386 112 293 -8 163 -8 c 0
 72 -8 25 62 25 138 c 0
87 146 m 0
 87 104 87 16 165 16 c 0
 263 16 324 188 324 278 c 0
 324 312 316 374 243 374 c 0
 163 374 87 234 87 146 c 0
EndSplineSet
EndChar

